<?xml version="1.0" standalone="no"?>
<!DOCTYPE svg PUBLIC "-//W3C//DTD SVG 20010904//EN"
 "http://www.w3.org/TR/2001/REC-SVG-20010904/DTD/svg10.dtd">
<svg version="1.0" xmlns="http://www.w3.org/2000/svg"
 width="2560.000000pt" height="480.000000pt" viewBox="0 0 2560.000000 480.000000"
 preserveAspectRatio="xMidYMid meet">

<g transform="translate(0.000000,480.000000) scale(0.100000,-0.100000)"
fill="#000000" stroke="none">
<path d="M3360 4304 c-202 -24 -382 -67 -535 -127 -150 -59 -407 -211 -520
-308 -208 -178 -398 -425 -505 -653 -51 -110 -60 -134 -94 -243 -100 -319
-117 -646 -50 -968 20 -96 74 -275 103 -340 147 -328 333 -573 587 -771 264
-206 544 -328 894 -390 116 -21 427 -24 545 -5 145 23 394 87 430 111 6 4 33
15 60 25 61 23 199 94 274 142 357 228 643 584 781 973 35 99 36 107 13 114
-19 6 -306 66 -440 92 -46 9 -83 21 -83 27 0 6 35 47 77 91 193 203 269 283
287 304 l20 22 -200 200 c-109 110 -200 204 -202 209 -4 11 13 17 83 31 28 5
104 21 170 35 66 14 143 30 170 35 28 5 68 15 91 21 l41 11 -17 61 c-28 100
-73 203 -152 347 -35 64 -141 216 -201 287 -93 112 -285 280 -407 358 -237
152 -465 241 -740 290 -82 15 -407 28 -480 19z m465 -190 c254 -47 466 -134
683 -278 169 -112 385 -337 497 -516 66 -104 129 -240 112 -240 -1 0 -67 -14
-147 -31 -80 -17 -174 -37 -210 -44 -36 -7 -78 -16 -95 -20 -29 -6 -42 6 -319
284 l-289 291 -224 0 c-210 0 -225 -1 -218 -17 4 -10 23 -72 42 -138 19 -66
39 -129 44 -140 7 -18 61 -192 94 -305 7 -25 19 -66 28 -93 8 -26 11 -49 7
-52 -8 -5 -134 -34 -240 -55 -70 -14 -180 -37 -235 -48 -192 -41 -354 -75
-440 -92 -155 -31 -247 -50 -285 -60 -19 -6 -116 -26 -215 -46 -99 -20 -220
-45 -270 -55 -49 -11 -103 -22 -120 -24 -16 -3 -46 -10 -65 -15 -19 -6 -48
-10 -65 -11 l-30 -1 30 -9 c17 -6 73 -19 125 -30 52 -10 113 -23 135 -28 47
-11 149 -33 295 -62 58 -12 134 -28 170 -36 36 -8 85 -18 110 -23 25 -5 110
-23 190 -40 80 -17 188 -39 240 -50 52 -11 138 -29 190 -40 52 -11 129 -27
170 -35 41 -8 95 -19 120 -25 25 -5 76 -16 113 -24 38 -8 71 -17 74 -20 3 -3
-11 -58 -32 -123 -21 -65 -48 -154 -62 -198 -13 -44 -28 -89 -33 -100 -5 -11
-23 -67 -40 -125 -17 -58 -39 -125 -47 -148 -13 -35 -14 -45 -4 -51 7 -5 118
-8 247 -8 l234 0 87 91 c49 50 175 182 281 292 l193 201 37 -7 c356 -74 422
-89 431 -95 22 -13 -86 -214 -192 -358 -79 -107 -295 -324 -355 -356 -11 -6
-26 -17 -34 -24 -43 -42 -263 -161 -388 -210 -79 -31 -224 -70 -343 -92 -132
-24 -429 -22 -572 4 -180 33 -386 102 -508 170 -18 10 -52 29 -77 43 -221 123
-492 392 -618 613 -166 292 -231 521 -239 850 -4 163 -2 208 16 315 12 69 27
145 35 170 8 25 24 79 37 120 30 97 138 313 207 415 30 44 58 82 61 85 3 3 24
27 46 55 71 88 182 194 290 276 58 45 220 149 230 149 3 0 29 12 58 26 177 87
425 155 607 168 102 7 364 -5 445 -20z m376 -944 c118 -120 215 -223 217 -228
2 -6 -23 -15 -55 -21 -32 -6 -87 -17 -123 -25 -169 -36 -225 -45 -231 -38 -4
4 -17 43 -29 87 -12 44 -28 98 -36 120 -24 70 -94 306 -94 316 0 5 31 9 69 9
l68 0 214 -220z m572 -578 c103 -103 187 -192 187 -198 -1 -5 -81 -91 -178
-192 l-177 -182 -70 14 c-377 77 -457 95 -463 101 -6 5 25 109 64 219 13 38
12 46 -28 173 -23 73 -39 136 -36 139 5 5 79 21 263 59 59 12 228 49 245 54 3
0 90 -84 193 -187z m-858 -24 c9 -35 24 -80 31 -101 21 -55 18 -88 -18 -199
l-33 -100 -30 6 c-16 3 -70 14 -120 25 -49 11 -146 31 -215 45 -313 65 -407
85 -627 132 -46 10 -83 20 -83 24 0 8 66 25 190 49 58 12 170 35 250 51 80 17
201 42 270 56 127 26 236 49 300 64 65 14 66 14 85 -52z m227 -644 c68 -14
152 -32 188 -40 36 -8 75 -17 88 -20 13 -3 22 -9 20 -14 -2 -5 -52 -60 -113
-122 -60 -62 -154 -160 -208 -216 l-97 -104 -83 -2 c-109 -3 -109 -3 -91 47
41 118 143 436 149 465 3 17 11 32 16 32 5 0 64 -11 131 -26z"/>
<path d="M6880 2671 c-82 -26 -142 -65 -204 -132 -68 -73 -98 -123 -127 -214
-73 -224 37 -431 245 -463 31 -5 58 -6 60 -3 7 11 46 182 46 201 0 13 -15 26
-44 39 -75 33 -101 101 -72 187 24 70 62 121 110 144 41 19 60 20 467 20 233
0 429 4 435 8 10 6 54 188 54 221 0 8 -142 11 -457 10 -409 0 -464 -2 -513
-18z"/>
<path d="M8957 2658 c-3 -18 -15 -76 -27 -128 -11 -52 -27 -126 -35 -165 -8
-38 -23 -113 -35 -165 -53 -245 -63 -301 -63 -385 -3 -306 225 -544 538 -562
294 -17 579 125 778 387 92 122 133 227 182 475 8 39 23 113 35 165 11 52 28
129 36 170 9 41 22 104 29 140 7 36 16 73 20 83 7 16 -3 17 -117 17 l-124 0
-28 -132 c-15 -73 -37 -172 -47 -220 -39 -182 -59 -275 -75 -348 -30 -145 -84
-242 -184 -333 -270 -243 -635 -219 -767 51 -24 50 -28 69 -28 152 0 82 11
144 78 451 42 196 77 361 77 367 0 9 -36 12 -119 12 l-118 0 -6 -32z"/>
<path d="M11520 2683 c0 -3 -18 -92 -41 -197 -59 -279 -98 -462 -114 -541 -8
-38 -24 -113 -35 -165 -11 -52 -27 -126 -35 -165 -8 -38 -28 -135 -45 -215
-16 -79 -30 -145 -30 -147 0 -2 54 -3 119 -3 l119 0 7 33 c4 17 22 104 41 192
19 88 42 194 51 235 8 41 19 86 23 100 l7 25 225 3 225 2 25 118 24 117 -223
3 c-171 2 -223 5 -223 15 0 7 11 66 25 132 14 66 32 152 40 190 8 39 24 114
35 168 11 55 20 101 20 103 0 2 -54 4 -120 4 -66 0 -120 -3 -120 -7z"/>
<path d="M12460 2393 c-113 -163 -226 -327 -252 -365 l-46 -68 28 -103 c15
-56 61 -216 100 -354 l73 -253 134 0 c123 0 134 1 129 18 -3 9 -48 169 -101
355 l-95 337 61 88 c159 228 422 609 430 625 9 16 0 17 -123 17 l-133 0 -205
-297z"/>
<path d="M13946 2608 c-10 -46 -24 -112 -31 -148 -8 -36 -24 -110 -36 -165
-11 -55 -26 -127 -34 -160 -7 -33 -20 -96 -29 -140 -9 -44 -48 -228 -86 -408
-39 -181 -70 -331 -70 -333 0 -2 54 -4 119 -4 l119 0 6 28 c49 250 112 529
120 534 6 4 172 8 368 8 l358 0 5 23 c3 12 14 63 24 112 l18 90 -363 3 c-200
1 -364 6 -364 11 0 10 13 76 40 201 11 52 27 127 35 165 8 39 23 112 35 164
11 52 20 96 20 98 0 2 -53 3 -119 3 l-118 0 -17 -82z"/>
<path d="M15032 2653 c-5 -21 -19 -85 -31 -143 -12 -58 -29 -136 -37 -175 -73
-336 -224 -1060 -224 -1071 0 -11 25 -14 120 -14 66 0 120 2 120 3 0 2 14 69
30 148 17 79 37 176 45 214 8 39 24 113 35 165 11 52 27 127 35 165 18 89 73
350 119 568 20 92 36 170 36 172 0 3 -54 5 -120 5 l-119 0 -9 -37z"/>
<path d="M16385 2678 c-2 -7 -36 -166 -75 -353 -39 -187 -77 -369 -85 -405 -7
-36 -23 -110 -35 -165 -12 -55 -28 -129 -35 -165 -8 -36 -21 -99 -30 -140 -8
-41 -22 -103 -29 -137 l-13 -63 118 0 c103 0 118 2 123 18 3 9 42 190 86 402
44 212 87 412 94 445 7 33 22 99 32 147 10 48 22 84 27 81 8 -5 315 -624 482
-970 l59 -123 156 0 155 0 38 183 c21 100 52 245 68 322 16 77 36 172 44 210
8 39 24 113 35 165 27 129 54 259 89 423 l28 137 -122 0 -122 0 -6 -32 c-33
-183 -224 -1057 -230 -1055 -13 4 -28 34 -125 237 -49 102 -160 335 -247 518
l-158 332 -159 0 c-118 0 -160 -3 -163 -12z"/>
<path d="M18815 2678 c-12 -32 -44 -212 -39 -220 3 -4 111 -8 240 -8 144 0
234 -4 234 -10 0 -20 -191 -916 -200 -937 -10 -23 -10 -23 -250 -23 -132 0
-240 -3 -240 -7 -1 -5 -11 -56 -24 -115 l-24 -108 612 0 613 0 18 88 c10 48
20 99 23 115 l4 27 -239 0 c-132 0 -242 2 -245 5 -6 7 1 46 82 425 11 52 25
115 30 140 5 25 21 99 35 165 14 66 31 146 36 178 l11 57 248 0 248 0 11 48
c6 26 16 72 21 102 6 30 13 63 16 73 5 16 -28 17 -606 17 -479 0 -612 -3 -615
-12z"/>
<path d="M21135 2678 c-2 -7 -17 -78 -34 -158 -16 -80 -46 -221 -66 -315 -20
-93 -40 -190 -45 -215 -5 -25 -21 -99 -35 -165 -14 -66 -38 -183 -54 -260 -17
-77 -38 -180 -49 -228 l-19 -88 120 3 121 3 12 50 c6 28 19 88 29 135 28 133
55 259 72 332 l15 68 227 2 226 3 22 105 c12 58 22 111 22 118 1 9 -49 12
-217 12 -120 0 -221 2 -224 5 -5 6 0 32 67 350 20 94 40 189 44 213 l8 42
-119 0 c-86 0 -120 -3 -123 -12z"/>
<path d="M22253 2648 c-133 -188 -467 -675 -470 -688 -2 -8 22 -103 53 -210
30 -107 75 -262 98 -345 l43 -150 136 -3 136 -3 -10 33 c-6 18 -26 87 -44 153
-19 66 -59 208 -90 315 -31 107 -54 202 -52 210 2 9 50 83 107 165 142 206
295 428 347 503 l43 62 -133 0 -134 0 -30 -42z"/>
<path d="M7316 2008 c-9 -40 -19 -92 -23 -114 -5 -40 -4 -42 29 -53 19 -6 48
-25 64 -42 26 -27 29 -37 28 -92 0 -69 -18 -113 -67 -165 -57 -59 -83 -62
-544 -62 l-413 0 -5 -22 c-3 -13 -14 -63 -24 -113 l-18 -90 446 -3 c277 -1
464 1 494 8 166 35 306 173 363 357 22 68 26 97 22 154 -7 90 -52 184 -111
233 -51 42 -135 76 -186 76 l-39 0 -16 -72z"/>
</g>
</svg>
