<?xml version="1.0" standalone="no"?>
<!DOCTYPE svg PUBLIC "-//W3C//DTD SVG 20010904//EN"
 "http://www.w3.org/TR/2001/REC-SVG-20010904/DTD/svg10.dtd">
<svg version="1.0" xmlns="http://www.w3.org/2000/svg"
 width="2560.000000pt" height="480.000000pt" viewBox="0 0 2560.000000 480.000000"
 preserveAspectRatio="xMidYMid meet">

<g transform="translate(0.000000,480.000000) scale(0.100000,-0.100000)"
fill="#000000" stroke="none">
<path d="M2960 3913 c-76 -8 -249 -46 -324 -70 -248 -81 -470 -233 -605 -413
-119 -160 -165 -272 -182 -439 -20 -200 13 -324 112 -416 76 -69 110 -79 274
-79 137 1 192 11 320 59 39 14 88 32 110 39 22 7 76 30 120 50 95 45 660 328
795 398 217 115 450 228 575 280 44 19 81 40 83 48 5 28 -285 300 -320 300 -4
0 -30 15 -57 34 -26 19 -74 46 -107 61 -32 14 -71 33 -85 40 -30 17 -156 56
-250 79 -127 30 -328 43 -459 29z"/>
<path d="M5220 3881 c-55 -11 -117 -32 -171 -59 l-85 -43 -89 20 c-50 12 -108
25 -130 30 -22 6 -41 8 -43 7 -2 -2 19 -28 47 -57 84 -91 111 -123 126 -150 8
-14 32 -54 55 -87 22 -34 40 -65 40 -70 0 -5 15 -43 34 -83 29 -63 35 -70 39
-49 44 219 51 242 87 269 92 69 220 232 220 280 0 14 -27 13 -130 -8z"/>
<path d="M4649 3448 c-68 -46 -176 -116 -239 -157 -63 -40 -141 -91 -172 -112
-32 -22 -60 -39 -63 -39 -2 0 -41 -25 -85 -55 -44 -30 -83 -55 -85 -55 -3 0
-37 -22 -77 -48 -119 -79 -331 -217 -566 -368 -48 -31 -98 -65 -112 -75 -14
-10 -38 -26 -55 -35 -16 -9 -93 -58 -170 -108 -77 -51 -165 -108 -195 -128
-164 -105 -241 -155 -300 -193 -159 -104 -367 -239 -753 -489 -67 -43 -134
-87 -149 -97 -15 -11 -31 -19 -35 -19 -13 0 -79 -59 -67 -60 6 0 42 12 80 26
38 14 123 45 189 69 66 23 170 61 232 83 61 22 120 45 130 51 11 5 57 23 104
40 46 16 113 42 149 56 105 43 233 96 265 110 17 7 40 16 53 20 13 4 58 23
100 42 42 19 95 41 117 48 22 8 78 28 125 45 182 67 407 88 541 50 96 -26 152
-61 203 -127 64 -80 81 -143 80 -283 -1 -99 -4 -123 -26 -177 -58 -140 -178
-267 -353 -373 -55 -34 -104 -65 -109 -70 -23 -22 191 44 289 90 35 17 68 30
72 30 4 0 40 20 78 45 226 143 378 292 502 490 106 170 153 294 199 525 23
111 25 143 21 285 -6 202 -45 391 -111 539 l-27 58 73 82 c105 116 242 288
282 354 15 24 -12 11 -135 -70z"/>
<path d="M6893 3070 c-205 -48 -387 -306 -370 -522 13 -160 128 -283 283 -303
59 -8 53 -17 79 110 9 44 19 88 21 97 4 13 -5 22 -35 34 -63 25 -91 65 -91
127 0 59 33 139 71 174 57 52 66 53 527 53 l429 0 23 108 c12 59 25 113 27
120 4 9 -92 12 -463 11 -258 -1 -483 -4 -501 -9z"/>
<path d="M8957 3058 c-4 -13 -41 -183 -83 -378 -72 -332 -77 -363 -77 -475 0
-134 18 -201 84 -311 67 -111 205 -207 345 -240 97 -23 292 -15 389 16 251 79
464 258 578 485 52 105 59 132 142 521 42 198 79 369 82 382 5 22 5 22 -121
22 -122 0 -126 -1 -131 -22 -3 -13 -41 -190 -84 -393 -43 -204 -89 -395 -102
-425 -28 -64 -103 -160 -167 -213 -212 -175 -478 -194 -647 -45 -106 94 -146
230 -110 381 8 34 24 107 35 162 12 55 27 129 35 165 8 36 28 130 45 210 18
80 34 153 36 163 5 15 -5 17 -119 17 -121 0 -125 -1 -130 -22z"/>
<path d="M11516 3063 c-3 -10 -24 -106 -46 -213 -22 -107 -47 -224 -55 -260
-8 -36 -26 -121 -41 -190 -50 -244 -93 -447 -127 -603 -18 -87 -30 -160 -25
-163 16 -10 228 -1 237 10 4 6 31 124 60 261 29 138 57 267 62 288 l10 37 224
0 c204 0 224 2 229 18 6 20 46 209 46 217 0 3 -101 5 -225 5 -124 0 -225 3
-225 7 0 9 120 575 125 591 3 9 -25 12 -120 12 -109 0 -124 -2 -129 -17z"/>
<path d="M12415 2723 c-136 -196 -249 -362 -252 -369 -5 -14 185 -692 200
-712 7 -9 43 -12 136 -10 l126 3 -2 29 c-1 15 -43 172 -93 348 -51 176 -90
329 -87 339 3 10 113 175 246 367 133 193 241 353 241 356 0 3 -60 6 -134 6
l-134 0 -247 -357z"/>
<path d="M13952 3043 c-5 -21 -17 -76 -27 -123 -10 -47 -26 -123 -36 -170 -79
-366 -229 -1087 -229 -1102 0 -16 10 -18 115 -18 110 0 116 1 125 23 5 12 32
132 60 267 28 135 54 253 56 262 5 16 34 18 371 20 l367 3 16 76 c9 42 20 95
24 117 l6 42 -359 0 c-198 0 -362 3 -365 8 -2 4 25 142 60 307 35 165 64 306
64 313 0 9 -31 12 -120 12 l-119 0 -9 -37z"/>
<path d="M14966 2752 c-38 -180 -84 -399 -103 -487 -19 -88 -47 -223 -63 -300
-16 -77 -38 -180 -49 -230 -11 -49 -16 -94 -12 -98 4 -4 59 -6 121 -5 88 2
115 6 120 18 5 8 15 49 24 90 8 41 74 353 146 692 71 340 130 624 130 633 0
13 -19 15 -122 15 l-123 0 -69 -328z"/>
<path d="M16346 2903 c-20 -98 -44 -209 -52 -248 -94 -435 -212 -1009 -209
-1015 3 -4 58 -7 122 -6 l118 1 27 130 c39 188 67 321 82 390 8 33 38 176 67
318 30 141 57 257 60 257 3 0 115 -224 250 -497 134 -274 255 -520 269 -548
l25 -50 153 -1 c84 -1 154 2 157 6 3 4 23 95 45 201 22 107 47 223 55 259 22
97 205 969 205 975 0 3 -56 5 -124 5 l-124 0 -15 -67 c-8 -38 -56 -266 -107
-508 -109 -518 -109 -520 -119 -509 -5 5 -69 137 -144 294 -74 157 -170 357
-212 445 -43 88 -97 202 -121 253 l-43 92 -164 0 -164 0 -37 -177z"/>
<path d="M18804 3043 c-3 -21 -12 -66 -20 -101 -25 -113 -49 -102 227 -102
224 0 240 -1 235 -17 -2 -10 -49 -226 -102 -480 l-98 -463 -242 0 c-223 0
-243 -1 -248 -17 -15 -52 -46 -215 -42 -222 7 -10 1214 -12 1221 -2 10 16 53
230 47 235 -3 4 -113 6 -244 6 -188 0 -238 3 -238 13 0 14 187 899 196 929 5
16 28 18 252 20 l247 3 22 105 c12 58 22 111 22 118 1 9 -128 12 -614 12
l-614 0 -7 -37z"/>
<path d="M21116 2998 c-17 -85 -46 -220 -72 -343 -107 -499 -212 -1009 -209
-1015 6 -10 233 -12 239 -1 3 5 33 135 66 291 33 155 62 286 65 291 4 5 104 9
230 9 l224 0 7 38 c3 20 14 74 24 120 l18 82 -224 0 c-256 0 -234 -11 -208
105 8 39 19 90 24 115 5 25 25 121 45 214 19 93 35 170 35 172 0 2 -55 4 -123
4 l-124 0 -17 -82z"/>
<path d="M22026 2717 c-138 -198 -249 -368 -249 -377 2 -18 194 -693 200 -700
7 -7 250 -8 262 -1 7 5 -23 125 -89 359 l-100 352 243 352 c134 194 247 359
251 366 6 9 -23 12 -131 12 l-138 -1 -249 -362z"/>
<path d="M7316 2408 c-41 -178 -42 -161 12 -184 50 -21 70 -41 82 -84 20 -73
-32 -193 -102 -235 -31 -19 -57 -20 -478 -25 l-444 -5 -23 -110 c-12 -60 -20
-115 -18 -121 5 -17 895 -12 955 5 208 60 370 273 370 487 0 178 -118 314
-291 338 l-47 7 -16 -73z"/>
</g>
</svg>
