<?xml version="1.0" standalone="no"?>
<!DOCTYPE svg PUBLIC "-//W3C//DTD SVG 20010904//EN"
 "http://www.w3.org/TR/2001/REC-SVG-20010904/DTD/svg10.dtd">
<svg version="1.0" xmlns="http://www.w3.org/2000/svg"
 width="649.000000pt" height="644.000000pt" viewBox="0 0 649.000000 644.000000"
 preserveAspectRatio="xMidYMid meet">

<g transform="translate(0.000000,644.000000) scale(0.100000,-0.100000)"
fill="#000000" stroke="none">
<path d="M3050 6344 c-19 -2 -87 -9 -150 -15 -198 -18 -496 -85 -700 -158
-305 -108 -644 -298 -905 -506 -134 -106 -393 -365 -495 -494 -330 -418 -555
-922 -639 -1431 -42 -254 -59 -535 -42 -680 6 -52 16 -142 21 -200 13 -122 51
-327 86 -455 149 -540 422 -1007 823 -1405 437 -434 984 -725 1587 -845 229
-46 381 -58 674 -52 421 8 666 56 1085 212 109 40 379 177 495 250 276 174
607 469 799 713 164 208 313 457 417 697 53 122 134 346 134 370 0 7 -48 21
-107 34 -232 48 -491 102 -553 116 -36 8 -102 22 -148 32 -54 11 -82 21 -80
29 3 11 257 280 515 545 62 63 113 117 113 120 0 2 -147 155 -327 338 -181
183 -329 337 -331 340 -1 4 53 19 120 33 296 65 748 158 763 158 27 0 26 23
-5 128 -38 127 -84 241 -162 397 -399 799 -1116 1389 -1973 1624 -133 36 -335
76 -465 91 -99 11 -489 21 -550 14z m621 -322 c848 -139 1559 -619 1998 -1350
65 -108 161 -297 161 -316 0 -7 -108 -34 -262 -65 -145 -29 -321 -67 -393 -82
l-130 -29 -470 475 -470 476 -367 -1 c-274 0 -368 -3 -368 -12 0 -6 20 -75 44
-152 25 -78 74 -238 110 -356 36 -118 90 -296 121 -395 69 -224 91 -303 85
-308 -3 -2 -219 -48 -480 -102 -261 -54 -524 -109 -585 -122 -60 -13 -164 -34
-230 -48 -66 -14 -185 -38 -265 -55 -80 -17 -251 -53 -380 -80 -129 -26 -408
-84 -620 -129 -212 -44 -447 -93 -522 -108 -76 -15 -138 -31 -138 -34 0 -4 26
-12 57 -17 32 -6 146 -29 253 -52 107 -22 290 -61 405 -85 116 -24 568 -119
1005 -210 719 -150 1042 -218 1245 -260 147 -31 247 -54 251 -57 4 -5 -3 -26
-111 -363 -42 -132 -87 -274 -100 -315 -42 -134 -164 -517 -171 -534 -6 -15
28 -16 403 -16 l408 0 126 128 c69 70 221 228 339 352 118 124 268 280 335
347 l120 122 305 -64 c419 -88 460 -97 460 -107 0 -19 -126 -260 -190 -363
-312 -502 -767 -892 -1314 -1125 -176 -74 -416 -144 -616 -179 -314 -55 -725
-49 -1037 15 -424 87 -831 276 -1193 554 -126 97 -375 349 -480 484 -475 618
-676 1383 -565 2150 107 737 504 1405 1103 1855 138 104 278 189 457 276 272
133 557 220 845 259 63 9 129 18 145 20 17 2 147 3 290 1 204 -2 287 -7 386
-23z m668 -1552 c209 -214 347 -362 339 -364 -34 -12 -643 -134 -647 -130 -2
2 -21 59 -41 126 -51 168 -134 439 -177 578 -19 63 -38 123 -40 133 -5 15 5
17 104 17 l109 0 353 -360z m923 -937 c164 -164 298 -304 298 -311 0 -16 -559
-602 -574 -602 -23 1 -846 177 -852 182 -6 7 -5 12 70 246 43 135 53 178 46
200 -66 210 -122 404 -118 408 3 3 90 22 194 44 104 21 284 59 399 83 116 25
217 45 225 46 8 1 149 -133 312 -296z m-1370 -129 l55 -186 -57 -176 c-49
-151 -60 -177 -76 -175 -10 1 -289 59 -619 128 -330 69 -711 149 -848 177
-136 29 -244 55 -240 59 5 4 44 14 88 24 86 17 262 54 525 109 91 19 275 57
410 85 135 28 313 65 395 83 83 17 175 36 205 43 111 26 99 39 162 -171z m488
-989 c179 -38 328 -71 332 -74 8 -7 -12 -30 -385 -418 l-300 -313 -138 0 c-77
0 -139 4 -139 8 0 4 23 80 51 167 28 88 61 194 74 235 13 41 30 95 39 120 8
25 33 103 56 173 55 171 58 180 73 174 6 -2 158 -35 337 -72z"/>
</g>
</svg>
