<?xml version="1.0" encoding="UTF-8"?>
<!DOCTYPE svg PUBLIC "-//W3C//DTD SVG 1.1//EN" "http://www.w3.org/Graphics/SVG/1.1/DTD/svg11.dtd">
<svg xmlns="http://www.w3.org/2000/svg" version="1.1" width="2560px" height="480px" style="shape-rendering:geometricPrecision; text-rendering:geometricPrecision; image-rendering:optimizeQuality; fill-rule:evenodd; clip-rule:evenodd" xmlns:xlink="http://www.w3.org/1999/xlink">
<g><path style="opacity:0.761" fill="#777777" d="M 361.5,47.5 C 361.5,47.8333 361.5,48.1667 361.5,48.5C 358.941,48.8016 356.607,48.4682 354.5,47.5C 356.804,46.2207 359.138,46.2207 361.5,47.5 Z"/></g>
<g><path style="opacity:0.158" fill="#111111" d="M 332.5,48.5 C 328.664,49.3777 324.664,50.0443 320.5,50.5C 320.918,49.7784 321.584,49.2784 322.5,49C 325.817,48.5017 329.15,48.335 332.5,48.5 Z"/></g>
<g><path style="opacity:0.16" fill="#131313" d="M 361.5,48.5 C 361.5,48.1667 361.5,47.8333 361.5,47.5C 368.524,47.6082 375.524,48.1082 382.5,49C 383.416,49.2784 384.082,49.7784 384.5,50.5C 376.884,49.3718 369.217,48.7052 361.5,48.5 Z"/></g>
<g><path style="opacity:1" fill="#e4e4e4" d="M 354.5,47.5 C 356.607,48.4682 358.941,48.8016 361.5,48.5C 369.217,48.7052 376.884,49.3718 384.5,50.5C 385.167,50.5 385.833,50.5 386.5,50.5C 390.618,51.9546 394.951,52.9546 399.5,53.5C 399.833,53.5 400.167,53.5 400.5,53.5C 402.515,54.9238 404.848,55.5905 407.5,55.5C 408.791,55.2627 409.791,55.596 410.5,56.5C 412.214,57.7384 414.214,58.405 416.5,58.5C 421.926,59.7225 426.926,61.7225 431.5,64.5C 432.514,65.6737 433.847,66.3404 435.5,66.5C 436.492,66.3284 437.158,66.6618 437.5,67.5C 438.514,68.6737 439.847,69.3404 441.5,69.5C 442.492,69.3284 443.158,69.6618 443.5,70.5C 444.514,71.6737 445.847,72.3404 447.5,72.5C 447.973,73.9063 448.973,74.573 450.5,74.5C 451.492,74.3284 452.158,74.6618 452.5,75.5C 452.973,76.9063 453.973,77.573 455.5,77.5C 456.167,77.5 456.5,77.8333 456.5,78.5C 457.29,79.4013 458.29,80.0679 459.5,80.5C 462.198,80.8449 464.198,82.1782 465.5,84.5C 464.294,85.8804 464.627,87.0471 466.5,88C 475.89,94.3841 484.39,101.884 492,110.5C 492.399,110.272 492.565,109.938 492.5,109.5C 492.833,109.5 493.167,109.5 493.5,109.5C 497.534,112.599 500.868,116.266 503.5,120.5C 503.427,122.027 504.094,123.027 505.5,123.5C 505.427,125.027 506.094,126.027 507.5,126.5C 508.167,126.5 508.5,126.833 508.5,127.5C 508.427,129.027 509.094,130.027 510.5,130.5C 510.427,132.027 511.094,133.027 512.5,133.5C 519.377,142.582 524.71,152.582 528.5,163.5C 528.992,165.819 529.992,167.819 531.5,169.5C 532.11,170.391 532.443,171.391 532.5,172.5C 532.595,174.786 533.262,176.786 534.5,178.5C 534.833,179.833 535.167,181.167 535.5,182.5C 535.5,183.833 535.5,185.167 535.5,186.5C 530.651,187.216 525.985,188.216 521.5,189.5C 516.908,189.882 512.575,190.882 508.5,192.5C 508.167,192.5 507.833,192.5 507.5,192.5C 502.556,192.754 497.889,193.754 493.5,195.5C 490.482,195.704 487.482,196.037 484.5,196.5C 484.062,196.565 483.728,196.399 483.5,196C 485.516,195.101 487.183,193.767 488.5,192C 488.167,191.667 487.833,191.333 487.5,191C 491.002,190.344 491.002,189.011 487.5,187C 479.528,184.207 471.528,182.54 463.5,182C 464.056,181.617 464.389,181.117 464.5,180.5C 465.791,180.737 466.791,180.404 467.5,179.5C 470.781,179.58 473.781,178.913 476.5,177.5C 478.042,176.699 479.708,176.366 481.5,176.5C 484.781,176.58 487.781,175.913 490.5,174.5C 490.833,174.5 491.167,174.5 491.5,174.5C 496.444,174.246 501.111,173.246 505.5,171.5C 507.604,171.799 509.604,171.466 511.5,170.5C 511.376,169.893 511.043,169.56 510.5,169.5C 510.5,169.167 510.5,168.833 510.5,168.5C 510.573,166.973 509.906,165.973 508.5,165.5C 507.463,164.07 506.796,162.403 506.5,160.5C 506.573,158.973 505.906,157.973 504.5,157.5C 500.75,150.998 496.75,144.665 492.5,138.5C 492.573,136.973 491.906,135.973 490.5,135.5C 490.573,133.973 489.906,132.973 488.5,132.5C 487.5,132.167 486.833,131.5 486.5,130.5C 485.92,128.251 484.587,126.585 482.5,125.5C 479.757,123.761 477.757,121.427 476.5,118.5C 476.027,117.094 475.027,116.427 473.5,116.5C 473.5,115.167 472.833,114.5 471.5,114.5C 469.5,113.167 467.833,111.5 466.5,109.5C 465.738,107.738 464.404,106.738 462.5,106.5C 461.5,106.167 460.833,105.5 460.5,104.5C 460.027,103.094 459.027,102.427 457.5,102.5C 457.167,101.5 456.5,100.833 455.5,100.5C 455.027,99.0937 454.027,98.427 452.5,98.5C 452.027,97.0937 451.027,96.427 449.5,96.5C 448.833,96.1667 448.167,95.8333 447.5,95.5C 446.738,93.7376 445.404,92.7376 443.5,92.5C 442.341,90.7497 440.674,89.7497 438.5,89.5C 436.326,89.2503 434.659,88.2503 433.5,86.5C 432.22,85.0687 430.553,84.4021 428.5,84.5C 427.713,82.8958 426.38,82.2291 424.5,82.5C 419.387,80.7768 414.387,78.7768 409.5,76.5C 407.898,74.9261 405.898,74.2594 403.5,74.5C 402.391,74.4431 401.391,74.1098 400.5,73.5C 398.162,71.9605 395.495,71.2938 392.5,71.5C 391.209,71.7373 390.209,71.404 389.5,70.5C 386.091,69.0966 382.425,68.4299 378.5,68.5C 361.168,67.1846 343.835,67.1846 326.5,68.5C 322.575,68.4299 318.909,69.0966 315.5,70.5C 311.239,70.8984 307.239,71.8984 303.5,73.5C 300.364,73.6031 297.698,74.6031 295.5,76.5C 295.167,76.5 294.833,76.5 294.5,76.5C 290.703,76.8723 287.37,78.2057 284.5,80.5C 283.791,81.404 282.791,81.7373 281.5,81.5C 279.847,81.6596 278.514,82.3263 277.5,83.5C 277.158,84.3382 276.492,84.6716 275.5,84.5C 273.847,84.6596 272.514,85.3263 271.5,86.5C 271.158,87.3382 270.492,87.6716 269.5,87.5C 267.973,87.427 266.973,88.0937 266.5,89.5C 264.326,89.7497 262.659,90.7497 261.5,92.5C 261.158,93.3382 260.492,93.6716 259.5,93.5C 257.973,93.427 256.973,94.0937 256.5,95.5C 254.973,95.427 253.973,96.0937 253.5,97.5C 253.5,98.1667 253.167,98.5 252.5,98.5C 250.973,98.427 249.973,99.0937 249.5,100.5C 246.057,103.729 242.39,106.729 238.5,109.5C 236.973,109.427 235.973,110.094 235.5,111.5C 234.5,111.833 233.833,112.5 233.5,113.5C 233.5,114.167 233.167,114.5 232.5,114.5C 231.5,114.833 230.833,115.5 230.5,116.5C 229.167,117.167 228.167,118.167 227.5,119.5C 226.5,119.833 225.833,120.5 225.5,121.5C 224.094,121.973 223.427,122.973 223.5,124.5C 222.527,126.139 221.194,127.473 219.5,128.5C 218.094,128.973 217.427,129.973 217.5,131.5C 215.397,134.72 213.064,137.72 210.5,140.5C 209.094,140.973 208.427,141.973 208.5,143.5C 206.819,146.203 205.153,148.869 203.5,151.5C 201.75,152.659 200.75,154.326 200.5,156.5C 196.829,164.508 193.163,172.508 189.5,180.5C 188.262,182.214 187.595,184.214 187.5,186.5C 186.031,192.904 184.364,199.238 182.5,205.5C 181.539,207.265 181.205,209.265 181.5,211.5C 176.857,242.579 179.857,272.579 190.5,301.5C 190.402,303.553 191.069,305.22 192.5,306.5C 192.833,307.167 193.167,307.833 193.5,308.5C 193.402,310.553 194.069,312.22 195.5,313.5C 198.753,319.004 201.753,324.67 204.5,330.5C 204.427,332.027 205.094,333.027 206.5,333.5C 206.427,335.027 207.094,336.027 208.5,336.5C 208.427,338.027 209.094,339.027 210.5,339.5C 212.975,341.77 214.975,344.437 216.5,347.5C 217.075,349.411 218.075,351.078 219.5,352.5C 220.268,355.562 222.268,357.228 225.5,357.5C 225.5,357.833 225.5,358.167 225.5,358.5C 225.833,359.5 226.5,360.167 227.5,360.5C 227.833,360.5 228.167,360.5 228.5,360.5C 228.427,362.027 229.094,363.027 230.5,363.5C 230.973,364.906 231.973,365.573 233.5,365.5C 233.5,366.833 234.167,367.5 235.5,367.5C 237.139,368.473 238.473,369.806 239.5,371.5C 239.973,372.906 240.973,373.573 242.5,373.5C 245.06,375.273 247.393,377.273 249.5,379.5C 249.973,380.906 250.973,381.573 252.5,381.5C 252.973,382.906 253.973,383.573 255.5,383.5C 260.037,385.93 264.37,388.597 268.5,391.5C 269.514,392.674 270.847,393.34 272.5,393.5C 274.153,393.66 275.486,394.326 276.5,395.5C 278.033,397.245 280.033,398.245 282.5,398.5C 283.492,398.328 284.158,398.662 284.5,399.5C 285.93,400.537 287.597,401.204 289.5,401.5C 294.931,402.858 300.264,404.524 305.5,406.5C 307.78,408.223 310.447,408.889 313.5,408.5C 314.959,408.433 316.292,408.766 317.5,409.5C 320.219,410.913 323.219,411.58 326.5,411.5C 342.951,412.775 359.617,412.775 376.5,411.5C 378.735,411.795 380.735,411.461 382.5,410.5C 384.265,409.539 386.265,409.205 388.5,409.5C 392.761,409.102 396.761,408.102 400.5,406.5C 402.898,406.741 404.898,406.074 406.5,404.5C 409.33,403.265 412.33,402.265 415.5,401.5C 418.157,401.065 420.491,400.065 422.5,398.5C 424.153,398.34 425.486,397.674 426.5,396.5C 428.426,394.707 430.759,393.707 433.5,393.5C 435.027,393.573 436.027,392.906 436.5,391.5C 436.842,390.662 437.508,390.328 438.5,390.5C 440.027,390.573 441.027,389.906 441.5,388.5C 441.842,387.662 442.508,387.328 443.5,387.5C 445.404,387.262 446.738,386.262 447.5,384.5C 448.167,384.167 448.833,383.833 449.5,383.5C 451.027,383.573 452.027,382.906 452.5,381.5C 454.027,381.573 455.027,380.906 455.5,379.5C 456.5,379.167 457.167,378.5 457.5,377.5C 459.404,377.262 460.738,376.262 461.5,374.5C 461.5,373.833 461.833,373.5 462.5,373.5C 464.749,372.92 466.415,371.587 467.5,369.5C 468.5,367.833 469.833,366.5 471.5,365.5C 472.833,365.5 473.5,364.833 473.5,363.5C 475.5,363.5 476.5,362.5 476.5,360.5C 478.5,360.5 479.5,359.5 479.5,357.5C 480.167,356.167 481.167,355.167 482.5,354.5C 483.906,354.027 484.573,353.027 484.5,351.5C 485.833,351.5 486.5,350.833 486.5,349.5C 486.833,348.5 487.5,347.833 488.5,347.5C 489.906,347.027 490.573,346.027 490.5,344.5C 491.906,344.027 492.573,343.027 492.5,341.5C 492.5,340.833 492.833,340.5 493.5,340.5C 494.906,340.027 495.573,339.027 495.5,337.5C 496.475,335.205 497.808,333.205 499.5,331.5C 500.906,331.027 501.573,330.027 501.5,328.5C 501.328,327.508 501.662,326.842 502.5,326.5C 503.906,326.027 504.573,325.027 504.5,323.5C 505.674,322.486 506.34,321.153 506.5,319.5C 506.328,318.508 506.662,317.842 507.5,317.5C 508.674,316.486 509.34,315.153 509.5,313.5C 509.328,312.508 509.662,311.842 510.5,311.5C 511.885,310.053 511.552,309.053 509.5,308.5C 505.014,308.032 500.681,307.032 496.5,305.5C 493.411,304.215 490.078,303.549 486.5,303.5C 484.708,303.634 483.042,303.301 481.5,302.5C 478.781,301.087 475.781,300.42 472.5,300.5C 470.901,300.768 469.568,300.434 468.5,299.5C 467.081,298.549 465.415,298.216 463.5,298.5C 472.096,296.524 480.763,294.357 489.5,292C 490.357,291.311 491.023,290.478 491.5,289.5C 489.337,287.693 488.671,285.693 489.5,283.5C 492.482,283.963 495.482,284.296 498.5,284.5C 499.568,285.434 500.901,285.768 502.5,285.5C 505.589,286.785 508.922,287.451 512.5,287.5C 512.833,287.5 513.167,287.5 513.5,287.5C 516.219,288.913 519.219,289.58 522.5,289.5C 524.292,289.366 525.958,289.699 527.5,290.5C 530.219,291.913 533.219,292.58 536.5,292.5C 536.5,293.5 536.5,294.5 536.5,295.5C 536.405,297.786 535.738,299.786 534.5,301.5C 533.262,303.214 532.595,305.214 532.5,307.5C 528.396,319.709 522.729,331.042 515.5,341.5C 514.603,340.402 513.77,340.402 513,341.5C 498.167,365.667 478.667,385.167 454.5,400C 454.381,401.145 454.048,402.312 453.5,403.5C 449.61,406.613 445.276,408.946 440.5,410.5C 438.435,410.953 436.768,411.953 435.5,413.5C 434.833,413.833 434.167,414.167 433.5,414.5C 431.62,414.229 430.287,414.896 429.5,416.5C 426.993,417.892 424.327,418.892 421.5,419.5C 419.447,419.402 417.78,420.069 416.5,421.5C 415.609,422.11 414.609,422.443 413.5,422.5C 411.102,422.259 409.102,422.926 407.5,424.5C 407.167,424.5 406.833,424.5 406.5,424.5C 403.848,424.41 401.515,425.076 399.5,426.5C 396.273,426.676 393.273,427.343 390.5,428.5C 389.081,429.451 387.415,429.784 385.5,429.5C 379.979,429.782 374.646,430.449 369.5,431.5C 358.167,432.833 346.833,432.833 335.5,431.5C 330.99,430.659 326.324,429.992 321.5,429.5C 320.833,429.5 320.167,429.5 319.5,429.5C 315.35,428.19 311.017,427.19 306.5,426.5C 297.367,425.055 288.7,422.388 280.5,418.5C 279.486,417.326 278.153,416.66 276.5,416.5C 275.209,416.737 274.209,416.404 273.5,415.5C 272.71,414.599 271.71,413.932 270.5,413.5C 269.209,413.737 268.209,413.404 267.5,412.5C 266.71,411.599 265.71,410.932 264.5,410.5C 263.209,410.737 262.209,410.404 261.5,409.5C 260.71,408.599 259.71,407.932 258.5,407.5C 256.216,407.025 254.216,406.025 252.5,404.5C 252.167,403.5 251.5,402.833 250.5,402.5C 247.296,401.617 244.629,399.95 242.5,397.5C 242.027,396.094 241.027,395.427 239.5,395.5C 238.29,395.068 237.29,394.401 236.5,393.5C 236.167,392.5 235.5,391.833 234.5,391.5C 234.027,390.094 233.027,389.427 231.5,389.5C 230.833,389.5 230.5,389.167 230.5,388.5C 229.415,386.413 227.749,385.08 225.5,384.5C 224.5,384.167 223.833,383.5 223.5,382.5C 223.611,381.883 223.944,381.383 224.5,381C 212.496,369.671 201.996,357.171 193,343.5C 192.23,342.402 191.397,342.402 190.5,343.5C 190.573,341.973 189.906,340.973 188.5,340.5C 187.662,340.158 187.328,339.492 187.5,338.5C 187.573,336.973 186.906,335.973 185.5,335.5C 182.465,330.755 179.798,325.755 177.5,320.5C 177.598,318.447 176.931,316.78 175.5,315.5C 175.204,313.597 174.537,311.93 173.5,310.5C 170.863,305.921 169.196,300.921 168.5,295.5C 168.405,293.214 167.738,291.214 166.5,289.5C 163.375,280.552 161.708,271.219 161.5,261.5C 160.167,246.833 160.167,232.167 161.5,217.5C 161.279,214.721 161.612,212.054 162.5,209.5C 163.785,206.411 164.451,203.078 164.5,199.5C 164.366,197.708 164.699,196.042 165.5,194.5C 166.768,192.095 167.435,189.428 167.5,186.5C 169.198,178.732 171.865,171.398 175.5,164.5C 176.931,163.22 177.598,161.553 177.5,159.5C 177.989,158.005 178.655,156.671 179.5,155.5C 180.906,155.027 181.573,154.027 181.5,152.5C 181.402,150.447 182.069,148.78 183.5,147.5C 184.906,147.027 185.573,146.027 185.5,144.5C 186.906,144.027 187.573,143.027 187.5,141.5C 187.328,140.508 187.662,139.842 188.5,139.5C 189.906,139.027 190.573,138.027 190.5,136.5C 190.328,135.508 190.662,134.842 191.5,134.5C 192.906,134.027 193.573,133.027 193.5,131.5C 195.147,128.527 197.147,125.86 199.5,123.5C 200.906,123.027 201.573,122.027 201.5,120.5C 201.5,119.833 201.833,119.5 202.5,119.5C 204.587,118.415 205.92,116.749 206.5,114.5C 206.833,113.5 207.5,112.833 208.5,112.5C 209.117,112.611 209.617,112.944 210,113.5C 217.073,106.931 223.573,99.931 229.5,92.5C 230.833,91.8333 231.833,90.8333 232.5,89.5C 232.842,88.6618 233.508,88.3284 234.5,88.5C 235.833,87.8333 236.833,86.8333 237.5,85.5C 239.027,85.573 240.027,84.9063 240.5,83.5C 242.404,83.2624 243.738,82.2624 244.5,80.5C 244.842,79.6618 245.508,79.3284 246.5,79.5C 248.027,79.573 249.027,78.9063 249.5,77.5C 251.027,77.573 252.027,76.9063 252.5,75.5C 252.842,74.6618 253.508,74.3284 254.5,74.5C 256.027,74.573 257.027,73.9063 257.5,72.5C 259.153,72.3404 260.486,71.6737 261.5,70.5C 261.842,69.6618 262.508,69.3284 263.5,69.5C 265.153,69.3404 266.486,68.6737 267.5,67.5C 267.842,66.6618 268.508,66.3284 269.5,66.5C 271.153,66.3404 272.486,65.6737 273.5,64.5C 276.088,62.4082 279.088,61.0749 282.5,60.5C 284.553,60.5979 286.22,59.9313 287.5,58.5C 290.623,56.8848 293.956,55.8848 297.5,55.5C 300.152,55.5905 302.485,54.9238 304.5,53.5C 304.833,53.5 305.167,53.5 305.5,53.5C 308.33,53.0372 310.997,52.3705 313.5,51.5C 315.607,50.5318 317.941,50.1984 320.5,50.5C 324.664,50.0443 328.664,49.3777 332.5,48.5C 337.233,47.8103 342.066,47.1437 347,46.5C 349.453,47.1122 351.953,47.4456 354.5,47.5 Z M 398.5,142.5 C 401.5,146.167 404.833,149.5 408.5,152.5C 412.5,157.167 416.833,161.5 421.5,165.5C 421.5,166.833 422.167,167.5 423.5,167.5C 424.167,168.833 425.167,169.833 426.5,170.5C 428.527,173.194 430.861,175.527 433.5,177.5C 435.167,180.167 436.833,182.833 438.5,185.5C 435.219,185.42 432.219,186.087 429.5,187.5C 429.167,187.5 428.833,187.5 428.5,187.5C 428.565,187.062 428.399,186.728 428,186.5C 427.005,187.066 426.172,187.733 425.5,188.5C 418.289,189.343 411.289,190.677 404.5,192.5C 403.041,192.567 401.708,192.234 400.5,191.5C 400.279,188.933 399.612,186.599 398.5,184.5C 397.243,177.828 395.243,171.495 392.5,165.5C 392.59,162.848 391.924,160.515 390.5,158.5C 389.565,154.03 388.232,149.697 386.5,145.5C 386.5,144.5 386.5,143.5 386.5,142.5C 390.5,142.5 394.5,142.5 398.5,142.5 Z M 406.5,286.5 C 410.862,288.344 415.529,289.344 420.5,289.5C 421.568,290.434 422.901,290.768 424.5,290.5C 425.919,291.451 427.585,291.784 429.5,291.5C 432.203,292.963 435.203,293.796 438.5,294C 439.756,294.417 440.423,295.25 440.5,296.5C 439.833,296.5 439.5,296.833 439.5,297.5C 438.167,298.167 437.167,299.167 436.5,300.5C 435.167,301.167 434.167,302.167 433.5,303.5C 432.5,304.5 431.5,305.5 430.5,306.5C 429.094,306.973 428.427,307.973 428.5,309.5C 426.5,309.5 425.5,310.5 425.5,312.5C 423.856,312.81 422.856,313.81 422.5,315.5C 420.856,315.81 419.856,316.81 419.5,318.5C 417.856,318.81 416.856,319.81 416.5,321.5C 414.833,322.5 413.5,323.833 412.5,325.5C 411.167,326.167 410.167,327.167 409.5,328.5C 407.086,329.911 405.419,331.911 404.5,334.5C 403.167,334.5 402.5,335.167 402.5,336.5C 401.833,336.5 401.5,336.833 401.5,337.5C 396.167,337.5 390.833,337.5 385.5,337.5C 385.674,335.139 386.007,332.806 386.5,330.5C 387.234,329.292 387.567,327.959 387.5,326.5C 389.074,324.898 389.741,322.898 389.5,320.5C 391.635,316.429 392.968,312.095 393.5,307.5C 394.931,306.22 395.598,304.553 395.5,302.5C 396.612,300.401 397.279,298.067 397.5,295.5C 399.074,293.898 399.741,291.898 399.5,289.5C 401.03,286.979 403.364,285.979 406.5,286.5 Z"/></g>
<g><path style="opacity:0.146" fill="#0c0c0c" d="M 313.5,51.5 C 310.997,52.3705 308.33,53.0372 305.5,53.5C 305.611,52.8826 305.944,52.3826 306.5,52C 308.81,51.5034 311.143,51.3367 313.5,51.5 Z"/></g>
<g><path style="opacity:0.125" fill="#101010" d="M 386.5,50.5 C 390.509,50.8583 394.509,51.3583 398.5,52C 399.056,52.3826 399.389,52.8826 399.5,53.5C 394.951,52.9546 390.618,51.9546 386.5,50.5 Z"/></g>
<g><path style="opacity:0.186" fill="#141414" d="M 304.5,53.5 C 302.485,54.9238 300.152,55.5905 297.5,55.5C 299.515,54.0762 301.848,53.4095 304.5,53.5 Z"/></g>
<g><path style="opacity:0.133" fill="#141414" d="M 400.5,53.5 C 403.152,53.4095 405.485,54.0762 407.5,55.5C 404.848,55.5905 402.515,54.9238 400.5,53.5 Z"/></g>
<g><path style="opacity:0.125" fill="#171717" d="M 410.5,56.5 C 412.898,56.2594 414.898,56.9261 416.5,58.5C 414.214,58.405 412.214,57.7384 410.5,56.5 Z"/></g>
<g><path style="opacity:0.082" fill="#080808" d="M 287.5,58.5 C 286.22,59.9313 284.553,60.5979 282.5,60.5C 283.78,59.0687 285.447,58.4021 287.5,58.5 Z"/></g>
<g><path style="opacity:0.216" fill="#070707" d="M 431.5,64.5 C 433.38,64.2291 434.713,64.8958 435.5,66.5C 433.847,66.3404 432.514,65.6737 431.5,64.5 Z"/></g>
<g><path style="opacity:0.678" fill="#2b2b2b" d="M 273.5,64.5 C 272.486,65.6737 271.153,66.3404 269.5,66.5C 270.287,64.8958 271.62,64.2291 273.5,64.5 Z"/></g>
<g><path style="opacity:0.071" fill="#171717" d="M 437.5,67.5 C 439.38,67.2291 440.713,67.8958 441.5,69.5C 439.847,69.3404 438.514,68.6737 437.5,67.5 Z"/></g>
<g><path style="opacity:0.804" fill="#4e4e4e" d="M 267.5,67.5 C 266.486,68.6737 265.153,69.3404 263.5,69.5C 264.287,67.8958 265.62,67.2291 267.5,67.5 Z"/></g>
<g><path style="opacity:0.16" fill="#0f0f0f" d="M 326.5,68.5 C 323.124,70.0823 319.458,70.7489 315.5,70.5C 318.909,69.0966 322.575,68.4299 326.5,68.5 Z"/></g>
<g><path style="opacity:0.165" fill="#0a0a0a" d="M 378.5,68.5 C 382.425,68.4299 386.091,69.0966 389.5,70.5C 385.542,70.7489 381.876,70.0823 378.5,68.5 Z"/></g>
<g><path style="opacity:0.14" fill="#070707" d="M 443.5,70.5 C 445.38,70.2291 446.713,70.8958 447.5,72.5C 445.847,72.3404 444.514,71.6737 443.5,70.5 Z"/></g>
<g><path style="opacity:0.671" fill="#2a2a2a" d="M 261.5,70.5 C 260.486,71.6737 259.153,72.3404 257.5,72.5C 258.287,70.8958 259.62,70.2291 261.5,70.5 Z"/></g>
<g><path style="opacity:0.183" fill="#0c0c0c" d="M 315.5,70.5 C 311.837,72.4159 307.837,73.4159 303.5,73.5C 307.239,71.8984 311.239,70.8984 315.5,70.5 Z"/></g>
<g><path style="opacity:0.169" fill="#000100" d="M 392.5,71.5 C 395.495,71.2938 398.162,71.9605 400.5,73.5C 397.572,73.4349 394.905,72.7682 392.5,71.5 Z"/></g>
<g><path style="opacity:0.114" fill="#141414" d="M 447.5,72.5 C 449.027,72.427 450.027,73.0937 450.5,74.5C 448.973,74.573 447.973,73.9063 447.5,72.5 Z"/></g>
<g><path style="opacity:0.796" fill="#484848" d="M 257.5,72.5 C 257.027,73.9063 256.027,74.573 254.5,74.5C 254.973,73.0937 255.973,72.427 257.5,72.5 Z"/></g>
<g><path style="opacity:0.15" fill="#141414" d="M 303.5,73.5 C 301.152,75.0972 298.486,76.0972 295.5,76.5C 297.698,74.6031 300.364,73.6031 303.5,73.5 Z"/></g>
<g><path style="opacity:0.122" fill="#040404" d="M 403.5,74.5 C 405.898,74.2594 407.898,74.9261 409.5,76.5C 407.214,76.405 405.214,75.7384 403.5,74.5 Z"/></g>
<g><path style="opacity:0.069" fill="#111111" d="M 452.5,75.5 C 454.027,75.427 455.027,76.0937 455.5,77.5C 453.973,77.573 452.973,76.9063 452.5,75.5 Z"/></g>
<g><path style="opacity:0.737" fill="#3a3a3a" d="M 252.5,75.5 C 252.027,76.9063 251.027,77.573 249.5,77.5C 249.973,76.0937 250.973,75.427 252.5,75.5 Z"/></g>
<g><path style="opacity:0.134" fill="#0e0e0e" d="M 294.5,76.5 C 291.63,78.7943 288.297,80.1277 284.5,80.5C 287.37,78.2057 290.703,76.8723 294.5,76.5 Z"/></g>
<g><path style="opacity:0.82" fill="#505050" d="M 249.5,77.5 C 249.027,78.9063 248.027,79.573 246.5,79.5C 246.973,78.0937 247.973,77.427 249.5,77.5 Z"/></g>
<g><path style="opacity:0.031" fill="#1b1b1b" d="M 456.5,78.5 C 458.179,78.2852 459.179,78.9519 459.5,80.5C 458.29,80.0679 457.29,79.4013 456.5,78.5 Z"/></g>
<g><path style="opacity:0.181" fill="#1a1a1a" d="M 244.5,80.5 C 243.738,82.2624 242.404,83.2624 240.5,83.5C 241.262,81.7376 242.596,80.7376 244.5,80.5 Z"/></g>
<g><path style="opacity:0.213" fill="#0b0b0b" d="M 281.5,81.5 C 280.713,83.1042 279.38,83.7709 277.5,83.5C 278.514,82.3263 279.847,81.6596 281.5,81.5 Z"/></g>
<g><path style="opacity:0.125" fill="#060606" d="M 424.5,82.5 C 426.38,82.2291 427.713,82.8958 428.5,84.5C 426.847,84.3404 425.514,83.6737 424.5,82.5 Z"/></g>
<g><path style="opacity:0.667" fill="#272727" d="M 240.5,83.5 C 240.027,84.9063 239.027,85.573 237.5,85.5C 237.973,84.0937 238.973,83.427 240.5,83.5 Z"/></g>
<g><path style="opacity:0.233" fill="#000000" d="M 275.5,84.5 C 274.713,86.1042 273.38,86.7709 271.5,86.5C 272.514,85.3263 273.847,84.6596 275.5,84.5 Z"/></g>
<g><path style="opacity:0.133" fill="#161616" d="M 237.5,85.5 C 236.833,86.8333 235.833,87.8333 234.5,88.5C 234.5,86.5 235.5,85.5 237.5,85.5 Z"/></g>
<g><path style="opacity:0.076" fill="#191919" d="M 428.5,84.5 C 430.553,84.4021 432.22,85.0687 433.5,86.5C 431.447,86.5979 429.78,85.9313 428.5,84.5 Z"/></g>
<g><path style="opacity:0.186" fill="#060606" d="M 269.5,87.5 C 269.027,88.9063 268.027,89.573 266.5,89.5C 266.973,88.0937 267.973,87.427 269.5,87.5 Z"/></g>
<g><path style="opacity:0.201" fill="#000000" d="M 232.5,89.5 C 231.833,90.8333 230.833,91.8333 229.5,92.5C 229.167,92.5 228.833,92.5 228.5,92.5C 229.262,90.7376 230.596,89.7376 232.5,89.5 Z"/></g>
<g><path style="opacity:0.156" fill="#030303" d="M 266.5,89.5 C 265.341,91.2503 263.674,92.2503 261.5,92.5C 262.659,90.7497 264.326,89.7497 266.5,89.5 Z"/></g>
<g><path style="opacity:0.073" fill="#1a1a1a" d="M 438.5,89.5 C 440.674,89.7497 442.341,90.7497 443.5,92.5C 441.326,92.2503 439.659,91.2503 438.5,89.5 Z"/></g>
<g><path style="opacity:0.024" fill="#151515" d="M 474.5,91.5 C 476.027,91.427 477.027,92.0937 477.5,93.5C 475.973,93.573 474.973,92.9063 474.5,91.5 Z"/></g>
<g><path style="opacity:0.106" fill="#171717" d="M 443.5,92.5 C 445.404,92.7376 446.738,93.7376 447.5,95.5C 445.596,95.2624 444.262,94.2624 443.5,92.5 Z"/></g>
<g><path style="opacity:0.282" fill="#151515" d="M 259.5,93.5 C 259.027,94.9063 258.027,95.573 256.5,95.5C 256.973,94.0937 257.973,93.427 259.5,93.5 Z"/></g>
<g><path style="opacity:1" fill="#acacac" d="M 228.5,92.5 C 228.833,92.5 229.167,92.5 229.5,92.5C 223.573,99.931 217.073,106.931 210,113.5C 209.617,112.944 209.117,112.611 208.5,112.5C 209.5,110.167 211.167,108.5 213.5,107.5C 214.906,107.027 215.573,106.027 215.5,104.5C 219.56,100.286 223.894,96.2859 228.5,92.5 Z"/></g>
<g><path style="opacity:0.222" fill="#0d0d0d" d="M 256.5,95.5 C 256.027,96.9063 255.027,97.573 253.5,97.5C 253.973,96.0937 254.973,95.427 256.5,95.5 Z"/></g>
<g><path style="opacity:0.241" fill="#121212" d="M 449.5,96.5 C 451.027,96.427 452.027,97.0937 452.5,98.5C 450.973,98.573 449.973,97.9063 449.5,96.5 Z"/></g>
<g><path style="opacity:1" fill="#bebebe" d="M 465.5,84.5 C 469.097,86.1002 472.097,88.4335 474.5,91.5C 474.973,92.9063 475.973,93.573 477.5,93.5C 480.5,96.1667 483.5,98.8333 486.5,101.5C 486.427,103.027 487.094,104.027 488.5,104.5C 489.167,104.5 489.5,104.833 489.5,105.5C 489.833,106.5 490.5,107.167 491.5,107.5C 491.833,108.167 492.167,108.833 492.5,109.5C 492.565,109.938 492.399,110.272 492,110.5C 484.39,101.884 475.89,94.3841 466.5,88C 464.627,87.0471 464.294,85.8804 465.5,84.5 Z"/></g>
<g><path style="opacity:0.176" fill="#000000" d="M 252.5,98.5 C 252.027,99.9063 251.027,100.573 249.5,100.5C 249.973,99.0937 250.973,98.427 252.5,98.5 Z"/></g>
<g><path style="opacity:0.6" fill="#1b1b1b" d="M 452.5,98.5 C 454.027,98.427 455.027,99.0937 455.5,100.5C 453.973,100.573 452.973,99.9063 452.5,98.5 Z"/></g>
<g><path style="opacity:0.153" fill="#000000" d="M 455.5,100.5 C 456.5,100.833 457.167,101.5 457.5,102.5C 456.167,102.5 455.5,101.833 455.5,100.5 Z"/></g>
<g><path style="opacity:0.608" fill="#1e1e1e" d="M 486.5,101.5 C 487.906,101.973 488.573,102.973 488.5,104.5C 487.094,104.027 486.427,103.027 486.5,101.5 Z"/></g>
<g><path style="opacity:0.184" fill="#0f0f0f" d="M 457.5,102.5 C 459.027,102.427 460.027,103.094 460.5,104.5C 458.973,104.573 457.973,103.906 457.5,102.5 Z"/></g>
<g><path style="opacity:0.694" fill="#373737" d="M 215.5,104.5 C 215.573,106.027 214.906,107.027 213.5,107.5C 213.427,105.973 214.094,104.973 215.5,104.5 Z"/></g>
<g><path style="opacity:0.035" fill="#181818" d="M 489.5,105.5 C 490.833,105.5 491.5,106.167 491.5,107.5C 490.5,107.167 489.833,106.5 489.5,105.5 Z"/></g>
<g><path style="opacity:0.241" fill="#010101" d="M 462.5,106.5 C 464.404,106.738 465.738,107.738 466.5,109.5C 464.596,109.262 463.262,108.262 462.5,106.5 Z"/></g>
<g><path style="opacity:0.202" fill="#030303" d="M 491.5,107.5 C 492.833,107.5 493.5,108.167 493.5,109.5C 493.167,109.5 492.833,109.5 492.5,109.5C 492.167,108.833 491.833,108.167 491.5,107.5 Z"/></g>
<g><path style="opacity:0.008" fill="#202020" d="M 238.5,109.5 C 238.027,110.906 237.027,111.573 235.5,111.5C 235.973,110.094 236.973,109.427 238.5,109.5 Z"/></g>
<g><path style="opacity:0.331" fill="#000000" d="M 235.5,111.5 C 235.5,112.833 234.833,113.5 233.5,113.5C 233.833,112.5 234.5,111.833 235.5,111.5 Z"/></g>
<g><path style="opacity:0.255" fill="#000000" d="M 232.5,114.5 C 232.5,115.833 231.833,116.5 230.5,116.5C 230.833,115.5 231.5,114.833 232.5,114.5 Z"/></g>
<g><path style="opacity:0.576" fill="#111111" d="M 471.5,114.5 C 472.833,114.5 473.5,115.167 473.5,116.5C 472.5,116.167 471.833,115.5 471.5,114.5 Z"/></g>
<g><path style="opacity:0.257" fill="#000000" d="M 230.5,116.5 C 230.5,118.5 229.5,119.5 227.5,119.5C 228.167,118.167 229.167,117.167 230.5,116.5 Z"/></g>
<g><path style="opacity:0.58" fill="#212121" d="M 206.5,114.5 C 205.92,116.749 204.587,118.415 202.5,119.5C 203.08,117.251 204.413,115.585 206.5,114.5 Z"/></g>
<g><path style="opacity:0.592" fill="#2b2b2b" d="M 473.5,116.5 C 475.027,116.427 476.027,117.094 476.5,118.5C 474.973,118.573 473.973,117.906 473.5,116.5 Z"/></g>
<g><path style="opacity:0.308" fill="#000000" d="M 227.5,119.5 C 227.5,120.833 226.833,121.5 225.5,121.5C 225.833,120.5 226.5,119.833 227.5,119.5 Z"/></g>
<g><path style="opacity:0.166" fill="#000000" d="M 503.5,120.5 C 504.906,120.973 505.573,121.973 505.5,123.5C 504.094,123.027 503.427,122.027 503.5,120.5 Z"/></g>
<g><path style="opacity:0.584" fill="#202020" d="M 201.5,120.5 C 201.573,122.027 200.906,123.027 199.5,123.5C 199.427,121.973 200.094,120.973 201.5,120.5 Z"/></g>
<g><path style="opacity:0.034" fill="#000000" d="M 405.5,122.5 C 390.5,122.5 375.5,122.5 360.5,122.5C 360.5,123.833 360.5,125.167 360.5,126.5C 358.78,125.249 358.447,123.749 359.5,122C 375.006,121.172 390.339,121.339 405.5,122.5 Z"/></g>
<g><path style="opacity:0.169" fill="#171717" d="M 225.5,121.5 C 225.573,123.027 224.906,124.027 223.5,124.5C 223.427,122.973 224.094,121.973 225.5,121.5 Z"/></g>
<g><path style="opacity:0.265" fill="#1b1b1b" d="M 505.5,123.5 C 506.906,123.973 507.573,124.973 507.5,126.5C 506.094,126.027 505.427,125.027 505.5,123.5 Z"/></g>
<g><path style="opacity:0.221" fill="#0e0e0e" d="M 482.5,125.5 C 484.587,126.585 485.92,128.251 486.5,130.5C 484.413,129.415 483.08,127.749 482.5,125.5 Z"/></g>
<g><path style="opacity:1" fill="#e1e1e1" d="M 405.5,122.5 C 407.833,124.167 409.833,126.167 411.5,128.5C 414.678,134.191 418.845,139.191 424,143.5C 424.383,142.944 424.883,142.611 425.5,142.5C 428.167,144.5 430.5,146.833 432.5,149.5C 432.5,151.5 433.5,152.5 435.5,152.5C 436.5,152.833 437.167,153.5 437.5,154.5C 437.5,156.5 438.5,157.5 440.5,157.5C 440.5,159.5 441.5,160.5 443.5,160.5C 444.833,161.167 445.833,162.167 446.5,163.5C 446.5,164.833 447.167,165.5 448.5,165.5C 448.5,167.5 449.5,168.5 451.5,168.5C 451.5,170.5 452.5,171.5 454.5,171.5C 454.427,173.027 455.094,174.027 456.5,174.5C 457.167,175.833 458.167,176.833 459.5,177.5C 460.167,178.833 461.167,179.833 462.5,180.5C 462.44,181.043 462.107,181.376 461.5,181.5C 456.56,180.27 451.893,178.436 447.5,176C 444.833,175.333 442.167,175.333 439.5,176C 439.833,176.333 440.167,176.667 440.5,177C 439.328,177.419 438.328,178.085 437.5,179C 438.687,180.019 439.687,181.186 440.5,182.5C 440.376,183.107 440.043,183.44 439.5,183.5C 437.833,181.167 435.833,179.167 433.5,177.5C 430.861,175.527 428.527,173.194 426.5,170.5C 426.649,169.448 426.483,168.448 426,167.5C 423.982,165.65 422.149,163.65 420.5,161.5C 421.025,160.808 421.692,160.308 422.5,160C 420.667,158.167 418.833,156.333 417,154.5C 417.077,155.738 416.911,156.738 416.5,157.5C 414.684,156.185 413.017,154.685 411.5,153C 410.552,152.517 409.552,152.351 408.5,152.5C 404.833,149.5 401.5,146.167 398.5,142.5C 394.019,141.352 389.352,141.185 384.5,142C 385.085,143.302 385.751,144.469 386.5,145.5C 388.232,149.697 389.565,154.03 390.5,158.5C 390.41,161.152 391.076,163.485 392.5,165.5C 395.243,171.495 397.243,177.828 398.5,184.5C 398.5,186.167 398.5,187.833 398.5,189.5C 395.302,188.066 391.968,187.566 388.5,188C 386.17,189.799 384.17,191.965 382.5,194.5C 381.824,193.398 381.158,192.398 380.5,191.5C 379.596,190.791 379.263,189.791 379.5,188.5C 379.405,186.214 378.738,184.214 377.5,182.5C 374.221,173.332 371.555,163.998 369.5,154.5C 369.097,151.514 368.097,148.848 366.5,146.5C 366.5,146.167 366.5,145.833 366.5,145.5C 366.405,143.214 365.738,141.214 364.5,139.5C 362.406,135.472 361.073,131.139 360.5,126.5C 360.5,125.167 360.5,123.833 360.5,122.5C 375.5,122.5 390.5,122.5 405.5,122.5 Z"/></g>
<g><path style="opacity:0.22" fill="#070707" d="M 219.5,128.5 C 219.573,130.027 218.906,131.027 217.5,131.5C 217.427,129.973 218.094,128.973 219.5,128.5 Z"/></g>
<g><path style="opacity:0.206" fill="#0e0e0e" d="M 508.5,127.5 C 509.906,127.973 510.573,128.973 510.5,130.5C 509.094,130.027 508.427,129.027 508.5,127.5 Z"/></g>
<g><path style="opacity:0.227" fill="#262626" d="M 510.5,130.5 C 511.906,130.973 512.573,131.973 512.5,133.5C 511.094,133.027 510.427,132.027 510.5,130.5 Z"/></g>
<g><path style="opacity:0.557" fill="#0a0a0a" d="M 193.5,131.5 C 193.573,133.027 192.906,134.027 191.5,134.5C 191.427,132.973 192.094,131.973 193.5,131.5 Z"/></g>
<g><path style="opacity:0.012" fill="#1b1b1b" d="M 488.5,132.5 C 489.906,132.973 490.573,133.973 490.5,135.5C 489.094,135.027 488.427,134.027 488.5,132.5 Z"/></g>
<g><path style="opacity:0.228" fill="#000000" d="M 490.5,135.5 C 491.906,135.973 492.573,136.973 492.5,138.5C 491.094,138.027 490.427,137.027 490.5,135.5 Z"/></g>
<g><path style="opacity:0.537" fill="#202020" d="M 190.5,136.5 C 190.573,138.027 189.906,139.027 188.5,139.5C 188.427,137.973 189.094,136.973 190.5,136.5 Z"/></g>
<g><path style="opacity:1" fill="#a4a4a4" d="M 411.5,128.5 C 416.5,132.833 421.167,137.5 425.5,142.5C 424.883,142.611 424.383,142.944 424,143.5C 418.845,139.191 414.678,134.191 411.5,128.5 Z"/></g>
<g><path style="opacity:0.174" fill="#101010" d="M 364.5,139.5 C 365.738,141.214 366.405,143.214 366.5,145.5C 364.926,143.898 364.259,141.898 364.5,139.5 Z"/></g>
<g><path style="opacity:0.098" fill="#111111" d="M 210.5,140.5 C 210.573,142.027 209.906,143.027 208.5,143.5C 208.427,141.973 209.094,140.973 210.5,140.5 Z"/></g>
<g><path style="opacity:0.147" fill="#000000" d="M 398.5,142.5 C 394.5,142.5 390.5,142.5 386.5,142.5C 386.5,143.5 386.5,144.5 386.5,145.5C 385.751,144.469 385.085,143.302 384.5,142C 389.352,141.185 394.019,141.352 398.5,142.5 Z"/></g>
<g><path style="opacity:0.788" fill="#454545" d="M 187.5,141.5 C 187.573,143.027 186.906,144.027 185.5,144.5C 185.427,142.973 186.094,141.973 187.5,141.5 Z"/></g>
<g><path style="opacity:0.174" fill="#000000" d="M 185.5,144.5 C 185.573,146.027 184.906,147.027 183.5,147.5C 183.427,145.973 184.094,144.973 185.5,144.5 Z"/></g>
<g><path style="opacity:0.021" fill="#171717" d="M 366.5,146.5 C 368.097,148.848 369.097,151.514 369.5,154.5C 367.603,152.302 366.603,149.636 366.5,146.5 Z"/></g>
<g><path style="opacity:0.937" fill="#626262" d="M 432.5,149.5 C 433.833,150.167 434.833,151.167 435.5,152.5C 433.5,152.5 432.5,151.5 432.5,149.5 Z"/></g>
<g><path style="opacity:0.918" fill="#5d5d5d" d="M 181.5,152.5 C 181.573,154.027 180.906,155.027 179.5,155.5C 179.427,153.973 180.094,152.973 181.5,152.5 Z"/></g>
<g><path style="opacity:0.008" fill="#0d0d0d" d="M 203.5,151.5 C 203.25,153.674 202.25,155.341 200.5,156.5C 200.75,154.326 201.75,152.659 203.5,151.5 Z"/></g>
<g><path style="opacity:1" fill="#b5b5b5" d="M 408.5,152.5 C 409.552,152.351 410.552,152.517 411.5,153C 413.017,154.685 414.684,156.185 416.5,157.5C 416.911,156.738 417.077,155.738 417,154.5C 418.833,156.333 420.667,158.167 422.5,160C 421.692,160.308 421.025,160.808 420.5,161.5C 422.149,163.65 423.982,165.65 426,167.5C 426.483,168.448 426.649,169.448 426.5,170.5C 425.167,169.833 424.167,168.833 423.5,167.5C 423.167,166.5 422.5,165.833 421.5,165.5C 416.833,161.5 412.5,157.167 408.5,152.5 Z"/></g>
<g><path style="opacity:0.914" fill="#5b5b5b" d="M 437.5,154.5 C 438.833,155.167 439.833,156.167 440.5,157.5C 438.5,157.5 437.5,156.5 437.5,154.5 Z"/></g>
<g><path style="opacity:0.065" fill="#121212" d="M 504.5,157.5 C 505.906,157.973 506.573,158.973 506.5,160.5C 505.094,160.027 504.427,159.027 504.5,157.5 Z"/></g>
<g><path style="opacity:0.203" fill="#0c0c0c" d="M 390.5,158.5 C 391.924,160.515 392.59,162.848 392.5,165.5C 391.076,163.485 390.41,161.152 390.5,158.5 Z"/></g>
<g><path style="opacity:0.863" fill="#545454" d="M 440.5,157.5 C 441.833,158.167 442.833,159.167 443.5,160.5C 441.5,160.5 440.5,159.5 440.5,157.5 Z"/></g>
<g><path style="opacity:0.096" fill="#151515" d="M 177.5,159.5 C 177.598,161.553 176.931,163.22 175.5,164.5C 175.402,162.447 176.069,160.78 177.5,159.5 Z"/></g>
<g><path style="opacity:0.627" fill="#1b1b1b" d="M 446.5,163.5 C 447.5,163.833 448.167,164.5 448.5,165.5C 447.167,165.5 446.5,164.833 446.5,163.5 Z"/></g>
<g><path style="opacity:0.102" fill="#1e1e1e" d="M 528.5,163.5 C 530.539,164.911 531.539,166.911 531.5,169.5C 529.992,167.819 528.992,165.819 528.5,163.5 Z"/></g>
<g><path style="opacity:0.299" fill="#000000" d="M 421.5,165.5 C 422.5,165.833 423.167,166.5 423.5,167.5C 422.167,167.5 421.5,166.833 421.5,165.5 Z"/></g>
<g><path style="opacity:0.102" fill="#151515" d="M 508.5,165.5 C 509.906,165.973 510.573,166.973 510.5,168.5C 509.094,168.027 508.427,167.027 508.5,165.5 Z"/></g>
<g><path style="opacity:0.612" fill="#2b2b2b" d="M 448.5,165.5 C 449.833,166.167 450.833,167.167 451.5,168.5C 449.5,168.5 448.5,167.5 448.5,165.5 Z"/></g>
<g><path style="opacity:0.217" fill="#0e0e0e" d="M 510.5,169.5 C 511.043,169.56 511.376,169.893 511.5,170.5C 509.604,171.466 507.604,171.799 505.5,171.5C 507.028,170.691 508.694,170.024 510.5,169.5 Z"/></g>
<g><path style="opacity:0.663" fill="#303030" d="M 451.5,168.5 C 452.833,169.167 453.833,170.167 454.5,171.5C 452.5,171.5 451.5,170.5 451.5,168.5 Z"/></g>
<g><path style="opacity:0.944" fill="#fefffe" d="M 690.5,170.5 C 722.167,170.5 753.833,170.5 785.5,170.5C 784.699,178.865 783.033,187.032 780.5,195C 753.167,195.333 725.833,195.667 698.5,196C 685.53,197.807 678.53,205.307 677.5,218.5C 677.692,220.577 678.192,222.577 679,224.5C 682.668,228.186 686.835,231.019 691.5,233C 689.497,239.679 687.997,246.512 687,253.5C 686.592,255.41 685.425,256.41 683.5,256.5C 663.246,253.579 652.246,241.912 650.5,221.5C 653.522,196.172 666.855,179.172 690.5,170.5 Z"/></g>
<g><path style="opacity:0.937" fill="#fefffe" d="M 895.5,170.5 C 903.84,170.334 912.173,170.5 920.5,171C 916.373,194.452 911.54,217.952 906,241.5C 901.165,262.657 908.331,278.157 927.5,288C 961.804,294.434 985.637,281.6 999,249.5C 1004.46,223.448 1010.13,197.448 1016,171.5C 1020.25,170.848 1024.59,170.514 1029,170.5C 1033.67,170.36 1038.17,170.86 1042.5,172C 1036.7,200.644 1030.2,229.144 1023,257.5C 1003.64,298.096 971.477,317.596 926.5,316C 895.843,309.342 879.51,290.342 877.5,259C 882.367,229.242 888.367,199.742 895.5,170.5 Z"/></g>
<g><path style="opacity:0.934" fill="#fefffe" d="M 1151.5,170.5 C 1159.83,170.5 1168.17,170.5 1176.5,170.5C 1172.92,190.914 1168.92,211.247 1164.5,231.5C 1179.17,231.333 1193.84,231.5 1208.5,232C 1208.96,232.414 1209.29,232.914 1209.5,233.5C 1207.68,241.421 1205.68,249.254 1203.5,257C 1188.5,257.5 1173.5,257.667 1158.5,257.5C 1154.63,276.849 1150.63,296.183 1146.5,315.5C 1137.86,316.498 1129.19,316.831 1120.5,316.5C 1129.65,267.554 1139.98,218.888 1151.5,170.5 Z"/></g>
<g><path style="opacity:0.936" fill="#fefffe" d="M 1265.5,170.5 C 1274.83,170.5 1284.17,170.5 1293.5,170.5C 1293.65,171.552 1293.48,172.552 1293,173.5C 1276.3,197.363 1259.8,221.363 1243.5,245.5C 1250.67,269.044 1257.34,292.71 1263.5,316.5C 1253.92,316.818 1244.42,316.485 1235,315.5C 1228.17,292.177 1221.34,268.843 1214.5,245.5C 1231.1,220.233 1248.1,195.233 1265.5,170.5 Z"/></g>
<g><path style="opacity:0.943" fill="#fefffe" d="M 1395.5,170.5 C 1403.51,170.334 1411.51,170.5 1419.5,171C 1420.02,171.561 1420.36,172.228 1420.5,173C 1415.97,193.128 1411.64,213.294 1407.5,233.5C 1431.49,234.333 1455.49,234.833 1479.5,235C 1479.96,235.414 1480.29,235.914 1480.5,236.5C 1478.77,244.002 1477.1,251.502 1475.5,259C 1451.17,259.333 1426.83,259.667 1402.5,260C 1398.21,278.447 1394.04,296.947 1390,315.5C 1381.59,316.483 1373.09,316.817 1364.5,316.5C 1374.02,267.616 1384.36,218.949 1395.5,170.5 Z"/></g>
<g><path style="opacity:0.934" fill="#fefffe" d="M 1502.5,170.5 C 1511.17,170.5 1519.83,170.5 1528.5,170.5C 1518.71,219.225 1508.71,267.891 1498.5,316.5C 1489.83,316.5 1481.17,316.5 1472.5,316.5C 1481.64,267.679 1491.64,219.012 1502.5,170.5 Z"/></g>
<g><path style="opacity:0.943" fill="#fefffe" d="M 1637.5,170.5 C 1648.51,170.333 1659.51,170.5 1670.5,171C 1671,171.5 1671.5,172 1672,172.5C 1688.81,207.954 1705.81,243.288 1723,278.5C 1730.56,242.797 1738.23,207.13 1746,171.5C 1754.67,170.167 1763.33,170.167 1772,171.5C 1762.75,219.822 1752.58,267.989 1741.5,316C 1730.59,316.82 1719.76,316.653 1709,315.5C 1691.61,279.71 1673.94,244.043 1656,208.5C 1647.73,243.597 1640.06,278.931 1633,314.5C 1628.92,315.798 1624.59,316.464 1620,316.5C 1615.33,316.64 1610.83,316.14 1606.5,315C 1616.78,266.821 1627.11,218.654 1637.5,170.5 Z"/></g>
<g><path style="opacity:0.951" fill="#fefffe" d="M 1880.5,170.5 C 1921.5,170.333 1962.5,170.5 2003.5,171C 2003.96,171.414 2004.29,171.914 2004.5,172.5C 2003.15,180.243 2001.49,187.909 1999.5,195.5C 1982.83,195.5 1966.17,195.5 1949.5,195.5C 1943.35,227.274 1936.68,258.94 1929.5,290.5C 1945.82,291.499 1962.15,291.833 1978.5,291.5C 1977.64,299.845 1975.97,308.011 1973.5,316C 1932.5,316.667 1891.5,316.667 1850.5,316C 1850.04,315.586 1849.71,315.086 1849.5,314.5C 1851.42,307.229 1853.09,299.896 1854.5,292.5C 1870.82,291.501 1887.15,291.167 1903.5,291.5C 1910.29,259.534 1916.96,227.534 1923.5,195.5C 1907.5,195.5 1891.5,195.5 1875.5,195.5C 1876.42,186.98 1878.09,178.647 1880.5,170.5 Z"/></g>
<g><path style="opacity:0.934" fill="#fefffe" d="M 2112.5,170.5 C 2120.84,170.334 2129.17,170.5 2137.5,171C 2138.02,171.561 2138.36,172.228 2138.5,173C 2134.29,192.39 2129.96,211.724 2125.5,231C 2140.17,231.333 2154.83,231.667 2169.5,232C 2169.62,240.28 2168.29,248.446 2165.5,256.5C 2150.5,257.167 2135.5,257.833 2120.5,258.5C 2116.4,277.501 2112.23,296.501 2108,315.5C 2099.58,316.649 2091.08,316.816 2082.5,316C 2091.67,267.543 2101.67,219.043 2112.5,170.5 Z"/></g>
<g><path style="opacity:0.935" fill="#fefffe" d="M 2226.5,170.5 C 2236.33,170.028 2246,170.528 2255.5,172C 2238.43,196.069 2221.76,220.403 2205.5,245C 2211.94,268.257 2218.61,291.424 2225.5,314.5C 2225.29,315.086 2224.96,315.586 2224.5,316C 2215.17,316.667 2205.83,316.667 2196.5,316C 2190.67,296.182 2184.83,276.348 2179,256.5C 2177.46,251.917 2176.8,247.25 2177,242.5C 2193.76,218.645 2210.26,194.645 2226.5,170.5 Z"/></g>
<g><path style="opacity:0.643" fill="#262626" d="M 454.5,171.5 C 455.906,171.973 456.573,172.973 456.5,174.5C 455.094,174.027 454.427,173.027 454.5,171.5 Z"/></g>
<g><path style="opacity:0.176" fill="#0a0a0a" d="M 505.5,171.5 C 501.111,173.246 496.444,174.246 491.5,174.5C 495.889,172.754 500.556,171.754 505.5,171.5 Z"/></g>
<g><path style="opacity:0.183" fill="#0a0a0a" d="M 532.5,172.5 C 534.074,174.102 534.741,176.102 534.5,178.5C 533.262,176.786 532.595,174.786 532.5,172.5 Z"/></g>
<g><path style="opacity:0.02" fill="#202020" d="M 456.5,174.5 C 458.5,174.5 459.5,175.5 459.5,177.5C 458.167,176.833 457.167,175.833 456.5,174.5 Z"/></g>
<g><path style="opacity:0.118" fill="#010101" d="M 490.5,174.5 C 487.781,175.913 484.781,176.58 481.5,176.5C 484.219,175.087 487.219,174.42 490.5,174.5 Z"/></g>
<g><path style="opacity:0.157" fill="#0a0a0a" d="M 476.5,177.5 C 473.781,178.913 470.781,179.58 467.5,179.5C 470.171,177.882 473.171,177.215 476.5,177.5 Z"/></g>
<g><path style="opacity:0.26" fill="#181818" d="M 459.5,177.5 C 461.882,179.046 464.549,179.713 467.5,179.5C 466.791,180.404 465.791,180.737 464.5,180.5C 463.833,180.5 463.167,180.5 462.5,180.5C 461.167,179.833 460.167,178.833 459.5,177.5 Z"/></g>
<g><path style="opacity:0.061" fill="#171717" d="M 189.5,180.5 C 189.741,182.898 189.074,184.898 187.5,186.5C 187.595,184.214 188.262,182.214 189.5,180.5 Z"/></g>
<g><path style="opacity:0.208" fill="#171717" d="M 433.5,177.5 C 435.833,179.167 437.833,181.167 439.5,183.5C 442.258,184.967 441.925,185.633 438.5,185.5C 436.833,182.833 435.167,180.167 433.5,177.5 Z"/></g>
<g><path style="opacity:0.14" fill="#000000" d="M 377.5,182.5 C 378.738,184.214 379.405,186.214 379.5,188.5C 377.926,186.898 377.259,184.898 377.5,182.5 Z"/></g>
<g><path style="opacity:0.145" fill="#0a0a0a" d="M 535.5,182.5 C 536.451,183.919 536.784,185.585 536.5,187.5C 531.57,188.648 526.57,189.315 521.5,189.5C 525.985,188.216 530.651,187.216 535.5,186.5C 535.5,185.167 535.5,183.833 535.5,182.5 Z"/></g>
<g><path style="opacity:0.085" fill="#0d0d0d" d="M 167.5,186.5 C 167.435,189.428 166.768,192.095 165.5,194.5C 165.294,191.505 165.96,188.838 167.5,186.5 Z"/></g>
<g><path style="opacity:0.134" fill="#040404" d="M 521.5,189.5 C 517.485,191.373 513.151,192.373 508.5,192.5C 512.575,190.882 516.908,189.882 521.5,189.5 Z"/></g>
<g><path style="opacity:0.166" fill="#0f0f0f" d="M 507.5,192.5 C 503.447,193.894 499.28,195.228 495,196.5C 494.617,195.944 494.117,195.611 493.5,195.5C 497.889,193.754 502.556,192.754 507.5,192.5 Z"/></g>
<g><path style="opacity:0.267" fill="#0c0c0c" d="M 381.5,195.5 C 382.833,196.5 382.833,197.5 381.5,198.5C 380.5,198.5 379.5,198.5 378.5,198.5C 379.694,197.728 380.694,196.728 381.5,195.5 Z"/></g>
<g><path style="opacity:0.218" fill="#090909" d="M 493.5,195.5 C 490.781,196.913 487.781,197.58 484.5,197.5C 484.5,197.167 484.5,196.833 484.5,196.5C 487.482,196.037 490.482,195.704 493.5,195.5 Z"/></g>
<g><path style="opacity:0.326" fill="#000000" d="M 483.5,197.5 C 482.595,198.702 482.595,200.036 483.5,201.5C 479.835,199.626 479.835,198.293 483.5,197.5 Z"/></g>
<g><path style="opacity:0.204" fill="#0f0f0f" d="M 377.5,198.5 C 373.368,199.863 369.035,200.863 364.5,201.5C 364.611,200.883 364.944,200.383 365.5,200C 369.45,199.538 373.284,198.704 377,197.5C 377.399,197.728 377.565,198.062 377.5,198.5 Z"/></g>
<g><path style="opacity:0.238" fill="#000000" d="M 483.5,201.5 C 485.5,201.5 486.5,202.5 486.5,204.5C 485.167,203.833 484.167,202.833 483.5,201.5 Z"/></g>
<g><path style="opacity:0.111" fill="#080808" d="M 361.5,201.5 C 357.736,202.992 353.736,203.992 349.5,204.5C 353.126,202.502 357.126,201.502 361.5,201.5 Z"/></g>
<g><path style="opacity:1" fill="#e7e7e7" d="M 377.5,198.5 C 377.833,198.5 378.167,198.5 378.5,198.5C 379.5,198.5 380.5,198.5 381.5,198.5C 378.054,201.392 376.22,205.059 376,209.5C 376.465,210.931 377.299,212.097 378.5,213C 381.613,214.417 384.613,215.917 387.5,217.5C 384.219,217.42 381.219,218.087 378.5,219.5C 378.167,219.5 377.833,219.5 377.5,219.5C 374.273,219.676 371.273,220.343 368.5,221.5C 367.791,222.404 366.791,222.737 365.5,222.5C 361.542,222.251 357.876,222.918 354.5,224.5C 349.609,225.01 344.942,226.01 340.5,227.5C 340.167,227.5 339.833,227.5 339.5,227.5C 335.738,227.691 332.071,228.358 328.5,229.5C 329.764,225.867 328.43,223.367 324.5,222C 311.415,219.388 298.249,218.888 285,220.5C 283.624,220.316 282.791,219.649 282.5,218.5C 283.492,218.672 284.158,218.338 284.5,217.5C 285.167,217.5 285.833,217.5 286.5,217.5C 291.412,217.102 296.079,216.102 300.5,214.5C 303.829,214.785 306.829,214.118 309.5,212.5C 309.833,212.5 310.167,212.5 310.5,212.5C 315.187,212.449 319.521,211.449 323.5,209.5C 328.362,207.966 333.362,206.966 338.5,206.5C 341.781,206.58 344.781,205.913 347.5,204.5C 348.167,204.5 348.833,204.5 349.5,204.5C 353.736,203.992 357.736,202.992 361.5,201.5C 362.5,201.5 363.5,201.5 364.5,201.5C 369.035,200.863 373.368,199.863 377.5,198.5 Z"/></g>
<g><path style="opacity:1" fill="#d5d5d5" d="M 462.5,180.5 C 463.167,180.5 463.833,180.5 464.5,180.5C 464.389,181.117 464.056,181.617 463.5,182C 471.528,182.54 479.528,184.207 487.5,187C 491.002,189.011 491.002,190.344 487.5,191C 487.833,191.333 488.167,191.667 488.5,192C 487.183,193.767 485.516,195.101 483.5,196C 483.728,196.399 484.062,196.565 484.5,196.5C 484.5,196.833 484.5,197.167 484.5,197.5C 484.167,197.5 483.833,197.5 483.5,197.5C 479.835,198.293 479.835,199.626 483.5,201.5C 484.167,202.833 485.167,203.833 486.5,204.5C 486.833,205.5 487.5,206.167 488.5,206.5C 489.167,206.5 489.5,206.833 489.5,207.5C 489.833,208.5 490.5,209.167 491.5,209.5C 491.833,210.5 492.5,211.167 493.5,211.5C 497.833,215.167 501.833,219.167 505.5,223.5C 505.5,224.833 506.167,225.5 507.5,225.5C 507.5,227.5 508.5,228.5 510.5,228.5C 511.167,231.167 512.833,232.833 515.5,233.5C 517.284,235.948 518.618,238.615 519.5,241.5C 517.727,244.06 515.727,246.393 513.5,248.5C 511.5,248.5 510.5,249.5 510.5,251.5C 509.167,251.5 508.5,252.167 508.5,253.5C 506.833,255.833 504.833,257.833 502.5,259.5C 501.167,260.167 500.167,261.167 499.5,262.5C 498.5,262.833 497.833,263.5 497.5,264.5C 497.5,265.167 497.167,265.5 496.5,265.5C 495.833,265.833 495.167,266.167 494.5,266.5C 495.031,264.456 496.198,262.789 498,261.5C 498.684,260.216 498.517,259.049 497.5,258C 507.393,251.154 509.893,241.654 505,229.5C 502.667,227.167 500.333,224.833 498,222.5C 497.194,219.554 495.861,216.888 494,214.5C 490.681,218.173 486.514,219.34 481.5,218C 477.111,216.487 473.111,214.32 469.5,211.5C 468.702,211.957 468.369,212.624 468.5,213.5C 465.5,211.167 462.833,208.5 460.5,205.5C 460.167,204.5 459.5,203.833 458.5,203.5C 457.5,203.5 456.5,203.5 455.5,203.5C 452.171,203.215 449.171,203.882 446.5,205.5C 444.958,206.301 443.292,206.634 441.5,206.5C 437.922,206.549 434.589,207.215 431.5,208.5C 431.167,208.5 430.833,208.5 430.5,208.5C 425.609,209.01 420.942,210.01 416.5,211.5C 414.958,212.301 413.292,212.634 411.5,212.5C 410.127,212.343 408.793,212.51 407.5,213C 406.402,213.77 406.402,214.603 407.5,215.5C 402.429,225.184 396.429,225.851 389.5,217.5C 388.833,217.5 388.167,217.5 387.5,217.5C 384.613,215.917 381.613,214.417 378.5,213C 377.299,212.097 376.465,210.931 376,209.5C 376.22,205.059 378.054,201.392 381.5,198.5C 382.833,197.5 382.833,196.5 381.5,195.5C 380.566,194.432 380.232,193.099 380.5,191.5C 381.158,192.398 381.824,193.398 382.5,194.5C 384.17,191.965 386.17,189.799 388.5,188C 391.968,187.566 395.302,188.066 398.5,189.5C 398.5,187.833 398.5,186.167 398.5,184.5C 399.612,186.599 400.279,188.933 400.5,191.5C 400.62,192.586 401.287,193.253 402.5,193.5C 403.416,193.457 404.083,193.124 404.5,192.5C 411.289,190.677 418.289,189.343 425.5,188.5C 426.791,188.737 427.791,188.404 428.5,187.5C 428.833,187.5 429.167,187.5 429.5,187.5C 432.781,187.58 435.781,186.913 438.5,185.5C 441.925,185.633 442.258,184.967 439.5,183.5C 440.043,183.44 440.376,183.107 440.5,182.5C 439.687,181.186 438.687,180.019 437.5,179C 438.328,178.085 439.328,177.419 440.5,177C 440.167,176.667 439.833,176.333 439.5,176C 442.167,175.333 444.833,175.333 447.5,176C 451.893,178.436 456.56,180.27 461.5,181.5C 462.107,181.376 462.44,181.043 462.5,180.5 Z"/></g>
<g><path style="opacity:1" fill="#cdcdcd" d="M 391.5,191.5 C 396.67,193.329 401.837,195.329 407,197.5C 408.566,196.939 409.899,197.606 411,199.5C 411.584,202.257 411.25,204.923 410,207.5C 406.408,210.421 403.575,213.921 401.5,218C 398.833,218.667 396.167,218.667 393.5,218C 390.446,215.806 387.112,214.139 383.5,213C 380.564,209.955 379.897,206.455 381.5,202.5C 383.671,200.16 385.338,197.494 386.5,194.5C 388.145,193.304 389.811,192.304 391.5,191.5 Z"/></g>
<g><path style="opacity:0.309" fill="#000000" d="M 400.5,191.5 C 401.708,192.234 403.041,192.567 404.5,192.5C 404.083,193.124 403.416,193.457 402.5,193.5C 401.287,193.253 400.62,192.586 400.5,191.5 Z"/></g>
<g><path style="opacity:0.592" fill="#0b0b0b" d="M 428.5,187.5 C 427.791,188.404 426.791,188.737 425.5,188.5C 426.172,187.733 427.005,187.066 428,186.5C 428.399,186.728 428.565,187.062 428.5,187.5 Z"/></g>
<g><path style="opacity:0.24" fill="#030303" d="M 438.5,185.5 C 435.781,186.913 432.781,187.58 429.5,187.5C 432.219,186.087 435.219,185.42 438.5,185.5 Z"/></g>
<g><path style="opacity:0.839" fill="#414141" d="M 164.5,199.5 C 164.451,203.078 163.785,206.411 162.5,209.5C 162.322,205.878 162.989,202.544 164.5,199.5 Z"/></g>
<g><path style="opacity:0.154" fill="#0c0c0c" d="M 455.5,203.5 C 452.829,205.118 449.829,205.785 446.5,205.5C 449.171,203.882 452.171,203.215 455.5,203.5 Z"/></g>
<g><path style="opacity:0.108" fill="#000000" d="M 458.5,203.5 C 459.5,203.833 460.167,204.5 460.5,205.5C 459.167,205.5 458.5,204.833 458.5,203.5 Z"/></g>
<g><path style="opacity:0.235" fill="#000000" d="M 486.5,204.5 C 487.833,204.5 488.5,205.167 488.5,206.5C 487.5,206.167 486.833,205.5 486.5,204.5 Z"/></g>
<g><path style="opacity:0.158" fill="#030303" d="M 347.5,204.5 C 344.781,205.913 341.781,206.58 338.5,206.5C 341.219,205.087 344.219,204.42 347.5,204.5 Z"/></g>
<g><path style="opacity:0.182" fill="#090909" d="M 441.5,206.5 C 438.456,208.011 435.122,208.678 431.5,208.5C 434.589,207.215 437.922,206.549 441.5,206.5 Z"/></g>
<g><path style="opacity:0.19" fill="#191919" d="M 182.5,205.5 C 182.938,205.435 183.272,205.601 183.5,206C 182.891,207.948 182.224,209.782 181.5,211.5C 181.205,209.265 181.539,207.265 182.5,205.5 Z"/></g>
<g><path style="opacity:0.148" fill="#000000" d="M 489.5,207.5 C 490.833,207.5 491.5,208.167 491.5,209.5C 490.5,209.167 489.833,208.5 489.5,207.5 Z"/></g>
<g><path style="opacity:0.176" fill="#101010" d="M 430.5,208.5 C 426.182,210.138 421.682,211.472 417,212.5C 416.601,212.272 416.435,211.938 416.5,211.5C 420.942,210.01 425.609,209.01 430.5,208.5 Z"/></g>
<g><path style="opacity:0.11" fill="#000000" d="M 491.5,209.5 C 492.833,209.5 493.5,210.167 493.5,211.5C 492.5,211.167 491.833,210.5 491.5,209.5 Z"/></g>
<g><path style="opacity:0.82" fill="#434343" d="M 323.5,209.5 C 319.521,211.449 315.187,212.449 310.5,212.5C 314.564,210.862 318.897,209.862 323.5,209.5 Z"/></g>
<g><path style="opacity:0.233" fill="#141414" d="M 309.5,212.5 C 306.829,214.118 303.829,214.785 300.5,214.5C 303.273,213.343 306.273,212.676 309.5,212.5 Z"/></g>
<g><path style="opacity:0.329" fill="#000000" d="M 411.5,212.5 C 410.791,213.404 409.791,213.737 408.5,213.5C 408.5,214.833 408.5,216.167 408.5,217.5C 407.662,217.158 407.328,216.492 407.5,215.5C 406.402,214.603 406.402,213.77 407.5,213C 408.793,212.51 410.127,212.343 411.5,212.5 Z"/></g>
<g><path style="opacity:1" fill="#e9e9e9" d="M 494.5,266.5 C 494.5,266.833 494.5,267.167 494.5,267.5C 493.5,268.167 492.5,268.833 491.5,269.5C 495.003,264.509 493.836,261.175 488,259.5C 483.526,261.436 479.026,262.936 474.5,264C 478.034,260.131 481.867,256.631 486,253.5C 488.04,251.719 488.54,249.719 487.5,247.5C 488.5,247.167 489.167,246.5 489.5,245.5C 489.5,244.833 489.833,244.5 490.5,244.5C 495.833,241.5 495.833,238.5 490.5,235.5C 489.833,234.167 488.833,233.167 487.5,232.5C 486.833,231.167 485.833,230.167 484.5,229.5C 483.5,229.167 482.833,228.5 482.5,227.5C 481.833,226.167 480.833,225.167 479.5,224.5C 479.167,223.5 478.5,222.833 477.5,222.5C 476.833,222.5 476.5,222.167 476.5,221.5C 476.167,220.5 475.5,219.833 474.5,219.5C 473.833,219.5 473.5,219.167 473.5,218.5C 473.167,217.5 472.5,216.833 471.5,216.5C 470.167,215.833 469.167,214.833 468.5,213.5C 468.369,212.624 468.702,211.957 469.5,211.5C 473.111,214.32 477.111,216.487 481.5,218C 486.514,219.34 490.681,218.173 494,214.5C 495.861,216.888 497.194,219.554 498,222.5C 500.333,224.833 502.667,227.167 505,229.5C 509.893,241.654 507.393,251.154 497.5,258C 498.517,259.049 498.684,260.216 498,261.5C 496.198,262.789 495.031,264.456 494.5,266.5 Z"/></g>
<g><path style="opacity:0.203" fill="#0f0f0f" d="M 300.5,214.5 C 296.079,216.102 291.412,217.102 286.5,217.5C 290.553,216.106 294.72,214.772 299,213.5C 299.383,214.056 299.883,214.389 300.5,214.5 Z"/></g>
<g><path style="opacity:0.115" fill="#000000" d="M 471.5,216.5 C 472.5,216.833 473.167,217.5 473.5,218.5C 472.167,218.5 471.5,217.833 471.5,216.5 Z"/></g>
<g><path style="opacity:0.3" fill="#141414" d="M 387.5,217.5 C 388.167,217.5 388.833,217.5 389.5,217.5C 389.5,218.833 389.5,220.167 389.5,221.5C 388.596,220.791 388.263,219.791 388.5,218.5C 385.164,218.467 381.997,219.134 379,220.5C 378.601,220.272 378.435,219.938 378.5,219.5C 381.219,218.087 384.219,217.42 387.5,217.5 Z"/></g>
<g><path style="opacity:0.223" fill="#040404" d="M 284.5,217.5 C 284.158,218.338 283.492,218.672 282.5,218.5C 280.621,219.341 278.621,219.675 276.5,219.5C 278.905,218.232 281.572,217.565 284.5,217.5 Z"/></g>
<g><path style="opacity:0.204" fill="#121212" d="M 377.5,219.5 C 374.877,221.265 371.877,221.932 368.5,221.5C 371.273,220.343 374.273,219.676 377.5,219.5 Z"/></g>
<g><path style="opacity:0.161" fill="#000000" d="M 474.5,219.5 C 475.5,219.833 476.167,220.5 476.5,221.5C 475.167,221.5 474.5,220.833 474.5,219.5 Z"/></g>
<g><path style="opacity:0.167" fill="#0b0b0b" d="M 271.5,220.5 C 267.404,222.023 263.071,223.023 258.5,223.5C 262.479,221.551 266.813,220.551 271.5,220.5 Z"/></g>
<g><path style="opacity:0.224" fill="#000000" d="M 477.5,222.5 C 478.5,222.833 479.167,223.5 479.5,224.5C 478.167,224.5 477.5,223.833 477.5,222.5 Z"/></g>
<g><path style="opacity:0.242" fill="#000000" d="M 256.5,223.5 C 255.167,224.167 253.833,224.833 252.5,225.5C 250.833,225.5 249.167,225.5 247.5,225.5C 250.219,224.087 253.219,223.42 256.5,223.5 Z"/></g>
<g><path style="opacity:0.139" fill="#111111" d="M 365.5,222.5 C 362.091,223.903 358.425,224.57 354.5,224.5C 357.876,222.918 361.542,222.251 365.5,222.5 Z"/></g>
<g><path style="opacity:0.215" fill="#000000" d="M 479.5,224.5 C 480.833,225.167 481.833,226.167 482.5,227.5C 480.5,227.5 479.5,226.5 479.5,224.5 Z"/></g>
<g><path style="opacity:0.682" fill="#2d2d2d" d="M 505.5,223.5 C 506.5,223.833 507.167,224.5 507.5,225.5C 506.167,225.5 505.5,224.833 505.5,223.5 Z"/></g>
<g><path style="opacity:0.153" fill="#090909" d="M 354.5,224.5 C 350.167,226.502 345.5,227.502 340.5,227.5C 344.942,226.01 349.609,225.01 354.5,224.5 Z"/></g>
<g><path style="opacity:0.108" fill="#141414" d="M 243.5,226.5 C 235.441,228.926 227.107,230.592 218.5,231.5C 226.568,229.072 234.901,227.405 243.5,226.5 Z"/></g>
<g><path style="opacity:1" fill="#e1e1e1" d="M 247.5,225.5 C 249.167,225.5 250.833,225.5 252.5,225.5C 253.873,225.343 255.207,225.51 256.5,226C 249.026,228.16 243.36,232.493 239.5,239C 239.758,242.122 241.425,244.789 244.5,247C 248.29,249.377 252.29,251.377 256.5,253C 254.942,253.21 253.609,253.71 252.5,254.5C 250.901,254.768 249.568,254.434 248.5,253.5C 245.373,252.419 242.04,251.753 238.5,251.5C 236.708,251.634 235.042,251.301 233.5,250.5C 230.411,249.215 227.078,248.549 223.5,248.5C 220.273,248.324 217.273,247.657 214.5,246.5C 210.385,245.057 206.052,244.057 201.5,243.5C 200.5,243.5 199.5,243.5 198.5,243.5C 194.837,241.584 190.837,240.584 186.5,240.5C 186.167,240.5 185.833,240.5 185.5,240.5C 185.167,239.833 184.833,239.167 184.5,238.5C 192.384,236.843 200.384,235.176 208.5,233.5C 212.122,233.678 215.456,233.011 218.5,231.5C 227.107,230.592 235.441,228.926 243.5,226.5C 244.568,225.566 245.901,225.232 247.5,225.5 Z"/></g>
<g><path style="opacity:0.761" fill="#424242" d="M 507.5,225.5 C 508.833,226.167 509.833,227.167 510.5,228.5C 508.5,228.5 507.5,227.5 507.5,225.5 Z"/></g>
<g><path style="opacity:1" fill="#cccccc" d="M 306.5,233.5 C 298.499,235.368 290.499,237.368 282.5,239.5C 290.676,241.961 299.01,243.628 307.5,244.5C 309.099,244.232 310.432,244.566 311.5,245.5C 311.5,245.833 311.5,246.167 311.5,246.5C 311.736,248.049 311.736,249.549 311.5,251C 294.315,256.052 277.315,255.386 260.5,249C 255.616,247.404 252.283,244.237 250.5,239.5C 251.457,237.082 252.791,234.916 254.5,233C 270.973,224.585 288.306,222.251 306.5,226C 308.246,226.471 309.913,227.138 311.5,228C 310.359,228.741 310.359,229.575 311.5,230.5C 309.855,231.696 308.189,232.696 306.5,233.5 Z"/></g>
<g><path style="opacity:0.239" fill="#171717" d="M 339.5,227.5 C 335.733,228.742 331.9,230.075 328,231.5C 327.601,231.272 327.435,230.938 327.5,230.5C 327.5,229.833 327.833,229.5 328.5,229.5C 332.071,228.358 335.738,227.691 339.5,227.5 Z"/></g>
<g><path style="opacity:0.714" fill="#3a3a3a" d="M 510.5,228.5 C 512.5,229.833 514.167,231.5 515.5,233.5C 512.833,232.833 511.167,231.167 510.5,228.5 Z"/></g>
<g><path style="opacity:0.206" fill="#030303" d="M 484.5,229.5 C 485.833,230.167 486.833,231.167 487.5,232.5C 485.5,232.5 484.5,231.5 484.5,229.5 Z"/></g>
<g><path style="opacity:0.199" fill="#0a0a0a" d="M 326.5,230.5 C 323.411,231.785 320.078,232.451 316.5,232.5C 319.544,230.989 322.878,230.322 326.5,230.5 Z"/></g>
<g><path style="opacity:0.948" fill="#fefffe" d="M 731.5,231.5 C 753.744,232.243 765.744,243.743 767.5,266C 765.228,291.597 751.894,308.264 727.5,316C 695.835,316.5 664.168,316.667 632.5,316.5C 634.223,308.325 635.89,300.158 637.5,292C 665.5,291.667 693.5,291.333 721.5,291C 730.268,290.21 736.102,285.71 739,277.5C 742.939,266.034 739.105,259.034 727.5,256.5C 728.351,248.095 729.684,239.762 731.5,231.5 Z"/></g>
<g><path style="opacity:0.144" fill="#080808" d="M 218.5,231.5 C 215.456,233.011 212.122,233.678 208.5,233.5C 211.589,232.215 214.922,231.549 218.5,231.5 Z"/></g>
<g><path style="opacity:0.276" fill="#000000" d="M 487.5,232.5 C 488.833,233.167 489.833,234.167 490.5,235.5C 488.5,235.5 487.5,234.5 487.5,232.5 Z"/></g>
<g><path style="opacity:0.722" fill="#454545" d="M 515.5,233.5 C 517.463,234.96 519.296,236.627 521,238.5C 521.585,239.998 521.085,240.998 519.5,241.5C 518.618,238.615 517.284,235.948 515.5,233.5 Z"/></g>
<g><path style="opacity:0.07" fill="#0a0a0a" d="M 413.5,234.5 C 416.167,238.167 416.167,241.833 413.5,245.5C 414.833,241.833 414.833,238.167 413.5,234.5 Z"/></g>
<g><path style="opacity:0.309" fill="#0e0e0e" d="M 316.5,232.5 C 307.547,234.656 298.547,236.989 289.5,239.5C 295.558,241.386 301.558,243.053 307.5,244.5C 299.01,243.628 290.676,241.961 282.5,239.5C 290.499,237.368 298.499,235.368 306.5,233.5C 309.833,233.167 313.167,232.833 316.5,232.5 Z"/></g>
<g><path style="opacity:0.2" fill="#080808" d="M 184.5,238.5 C 184.833,239.167 185.167,239.833 185.5,240.5C 184.325,240.719 183.325,240.386 182.5,239.5C 182.957,238.702 183.624,238.369 184.5,238.5 Z"/></g>
<g><path style="opacity:0.229" fill="#010101" d="M 490.5,235.5 C 495.833,238.5 495.833,241.5 490.5,244.5C 490.859,242.629 491.859,241.129 493.5,240C 491.859,238.871 490.859,237.371 490.5,235.5 Z"/></g>
<g><path style="opacity:0.151" fill="#1d1d1d" d="M 186.5,240.5 C 190.837,240.584 194.837,241.584 198.5,243.5C 194.239,243.102 190.239,242.102 186.5,240.5 Z"/></g>
<g><path style="opacity:0.214" fill="#141414" d="M 161.5,217.5 C 160.167,232.167 160.167,246.833 161.5,261.5C 159.961,254.568 159.294,247.402 159.5,240C 159.316,232.272 159.983,224.772 161.5,217.5 Z"/></g>
<g><path style="opacity:0.154" fill="#111111" d="M 201.5,243.5 C 206.052,244.057 210.385,245.057 214.5,246.5C 209.808,246.575 205.474,245.575 201.5,243.5 Z"/></g>
<g><path style="opacity:0.177" fill="#111111" d="M 311.5,246.5 C 311.5,246.167 311.5,245.833 311.5,245.5C 315.458,245.251 319.124,245.918 322.5,247.5C 318.846,247.058 315.179,246.724 311.5,246.5 Z"/></g>
<g><path style="opacity:0.111" fill="#000000" d="M 489.5,245.5 C 489.167,246.5 488.5,247.167 487.5,247.5C 487.5,246.167 488.167,245.5 489.5,245.5 Z"/></g>
<g><path style="opacity:0.149" fill="#020202" d="M 393.5,245.5 C 393.405,247.786 392.738,249.786 391.5,251.5C 391.259,249.102 391.926,247.102 393.5,245.5 Z"/></g>
<g><path style="opacity:0.2" fill="#080808" d="M 322.5,247.5 C 325.727,247.676 328.727,248.343 331.5,249.5C 328.171,249.785 325.171,249.118 322.5,247.5 Z"/></g>
<g><path style="opacity:0.174" fill="#0b0b0b" d="M 223.5,248.5 C 227.078,248.549 230.411,249.215 233.5,250.5C 229.878,250.678 226.544,250.011 223.5,248.5 Z"/></g>
<g><path style="opacity:0.183" fill="#0b0b0b" d="M 344.5,252.5 C 340.239,252.102 336.239,251.102 332.5,249.5C 332.435,249.062 332.601,248.728 333,248.5C 336.998,249.617 340.832,250.95 344.5,252.5 Z"/></g>
<g><path style="opacity:0.02" fill="#1f1f1f" d="M 513.5,248.5 C 512.833,249.833 511.833,250.833 510.5,251.5C 510.5,249.5 511.5,248.5 513.5,248.5 Z"/></g>
<g><path style="opacity:1" fill="#e3e3e3" d="M 282.5,218.5 C 282.791,219.649 283.624,220.316 285,220.5C 298.249,218.888 311.415,219.388 324.5,222C 328.43,223.367 329.764,225.867 328.5,229.5C 327.833,229.5 327.5,229.833 327.5,230.5C 327.167,230.5 326.833,230.5 326.5,230.5C 322.878,230.322 319.544,230.989 316.5,232.5C 313.167,232.833 309.833,233.167 306.5,233.5C 308.189,232.696 309.855,231.696 311.5,230.5C 310.359,229.575 310.359,228.741 311.5,228C 309.913,227.138 308.246,226.471 306.5,226C 288.306,222.251 270.973,224.585 254.5,233C 252.791,234.916 251.457,237.082 250.5,239.5C 252.283,244.237 255.616,247.404 260.5,249C 277.315,255.386 294.315,256.052 311.5,251C 311.736,249.549 311.736,248.049 311.5,246.5C 315.179,246.724 318.846,247.058 322.5,247.5C 325.171,249.118 328.171,249.785 331.5,249.5C 331.833,249.5 332.167,249.5 332.5,249.5C 336.239,251.102 340.239,252.102 344.5,252.5C 345.167,252.5 345.833,252.5 346.5,252.5C 349.219,253.913 352.219,254.58 355.5,254.5C 357.292,254.366 358.958,254.699 360.5,255.5C 363.544,257.011 366.878,257.678 370.5,257.5C 371.791,257.263 372.791,257.596 373.5,258.5C 376.589,259.785 379.922,260.451 383.5,260.5C 383.833,260.5 384.167,260.5 384.5,260.5C 384.842,261.338 385.508,261.672 386.5,261.5C 383.274,262.854 380.107,264.521 377,266.5C 375.011,270.737 375.511,274.737 378.5,278.5C 378.376,279.107 378.043,279.44 377.5,279.5C 374.482,279.296 371.482,278.963 368.5,278.5C 368.167,278.5 367.833,278.5 367.5,278.5C 363.368,277.137 359.035,276.137 354.5,275.5C 353.833,275.5 353.167,275.5 352.5,275.5C 348.453,273.74 344.12,272.74 339.5,272.5C 336.411,271.215 333.078,270.549 329.5,270.5C 327.708,270.634 326.042,270.301 324.5,269.5C 321.727,268.343 318.727,267.676 315.5,267.5C 310.256,267.118 305.256,266.118 300.5,264.5C 298.095,263.232 295.428,262.565 292.5,262.5C 291.833,262.5 291.167,262.5 290.5,262.5C 286.425,260.882 282.092,259.882 277.5,259.5C 272.5,259.502 267.833,258.502 263.5,256.5C 260.054,255.313 256.387,254.646 252.5,254.5C 253.609,253.71 254.942,253.21 256.5,253C 252.29,251.377 248.29,249.377 244.5,247C 241.425,244.789 239.758,242.122 239.5,239C 243.36,232.493 249.026,228.16 256.5,226C 255.207,225.51 253.873,225.343 252.5,225.5C 253.833,224.833 255.167,224.167 256.5,223.5C 257.167,223.5 257.833,223.5 258.5,223.5C 263.071,223.023 267.404,222.023 271.5,220.5C 273.042,219.699 274.708,219.366 276.5,219.5C 278.621,219.675 280.621,219.341 282.5,218.5 Z"/></g>
<g><path style="opacity:0.178" fill="#040404" d="M 238.5,251.5 C 242.04,251.753 245.373,252.419 248.5,253.5C 244.84,253.841 241.507,253.175 238.5,251.5 Z"/></g>
<g><path style="opacity:0.043" fill="#1d1d1d" d="M 510.5,251.5 C 510.167,252.5 509.5,253.167 508.5,253.5C 508.5,252.167 509.167,251.5 510.5,251.5 Z"/></g>
<g><path style="opacity:0.172" fill="#010101" d="M 346.5,252.5 C 349.781,252.42 352.781,253.087 355.5,254.5C 352.219,254.58 349.219,253.913 346.5,252.5 Z"/></g>
<g><path style="opacity:0.176" fill="#121212" d="M 252.5,254.5 C 256.387,254.646 260.054,255.313 263.5,256.5C 259.542,256.749 255.876,256.082 252.5,254.5 Z"/></g>
<g><path style="opacity:0.178" fill="#101010" d="M 360.5,255.5 C 364.122,255.322 367.456,255.989 370.5,257.5C 366.878,257.678 363.544,257.011 360.5,255.5 Z"/></g>
<g><path style="opacity:0.229" fill="#121212" d="M 373.5,258.5 C 377.16,258.159 380.493,258.825 383.5,260.5C 379.922,260.451 376.589,259.785 373.5,258.5 Z"/></g>
<g><path style="opacity:0.193" fill="#2a2a2a" d="M 479.5,255.5 C 478.581,258.089 476.914,260.089 474.5,261.5C 475.419,258.911 477.086,256.911 479.5,255.5 Z"/></g>
<g><path style="opacity:0.2" fill="#000000" d="M 502.5,259.5 C 502.5,261.5 501.5,262.5 499.5,262.5C 500.167,261.167 501.167,260.167 502.5,259.5 Z"/></g>
<g><path style="opacity:0.209" fill="#080808" d="M 277.5,259.5 C 282.092,259.882 286.425,260.882 290.5,262.5C 285.849,262.373 281.515,261.373 277.5,259.5 Z"/></g>
<g><path style="opacity:1" fill="#4c4c4c" d="M 389.5,257.5 C 389.5,259.167 389.5,260.833 389.5,262.5C 388.391,262.443 387.391,262.11 386.5,261.5C 385.508,261.672 384.842,261.338 384.5,260.5C 385.833,260.5 387.167,260.5 388.5,260.5C 388.263,259.209 388.596,258.209 389.5,257.5 Z"/></g>
<g><path style="opacity:0.294" fill="#060606" d="M 473.5,262.5 C 473.167,263.5 472.5,264.167 471.5,264.5C 471.5,263.167 472.167,262.5 473.5,262.5 Z"/></g>
<g><path style="opacity:0.255" fill="#000000" d="M 499.5,262.5 C 499.5,263.833 498.833,264.5 497.5,264.5C 497.833,263.5 498.5,262.833 499.5,262.5 Z"/></g>
<g><path style="opacity:0.173" fill="#090909" d="M 292.5,262.5 C 295.428,262.565 298.095,263.232 300.5,264.5C 297.505,264.706 294.838,264.04 292.5,262.5 Z"/></g>
<g><path style="opacity:0.26" fill="#000000" d="M 496.5,265.5 C 496.5,266.833 495.833,267.5 494.5,267.5C 494.5,267.167 494.5,266.833 494.5,266.5C 495.167,266.167 495.833,265.833 496.5,265.5 Z"/></g>
<g><path style="opacity:0.204" fill="#0f0f0f" d="M 408.5,261.5 C 408.33,262.822 408.663,263.989 409.5,265C 413.974,266.12 418.307,267.286 422.5,268.5C 416.771,268.556 411.437,267.223 406.5,264.5C 406.942,263.261 407.609,262.261 408.5,261.5 Z"/></g>
<g><path style="opacity:0.236" fill="#101010" d="M 494.5,267.5 C 494.5,269.5 493.5,270.5 491.5,270.5C 491.5,270.167 491.5,269.833 491.5,269.5C 492.5,268.833 493.5,268.167 494.5,267.5 Z"/></g>
<g><path style="opacity:0.108" fill="#0e0e0e" d="M 315.5,267.5 C 318.727,267.676 321.727,268.343 324.5,269.5C 321.171,269.785 318.171,269.118 315.5,267.5 Z"/></g>
<g><path style="opacity:1" fill="#d8d8d8" d="M 407.5,215.5 C 407.328,216.492 407.662,217.158 408.5,217.5C 410.769,222.974 412.435,228.641 413.5,234.5C 414.833,238.167 414.833,241.833 413.5,245.5C 412.408,251.016 410.741,256.35 408.5,261.5C 407.609,262.261 406.942,263.261 406.5,264.5C 411.437,267.223 416.771,268.556 422.5,268.5C 426.575,270.118 430.908,271.118 435.5,271.5C 435.833,271.5 436.167,271.5 436.5,271.5C 440.921,273.102 445.588,274.102 450.5,274.5C 453.737,276.376 457.07,276.71 460.5,275.5C 462.233,276.008 462.566,276.841 461.5,278C 457.686,278.234 454.019,279.068 450.5,280.5C 444.318,280.181 438.984,282.347 434.5,287C 436.481,287.605 436.815,288.605 435.5,290C 431.848,290.499 428.182,290.665 424.5,290.5C 422.901,290.768 421.568,290.434 420.5,289.5C 416.089,287.87 411.422,286.87 406.5,286.5C 403.364,285.979 401.03,286.979 399.5,289.5C 398.262,291.214 397.595,293.214 397.5,295.5C 397.279,298.067 396.612,300.401 395.5,302.5C 394.069,303.78 393.402,305.447 393.5,307.5C 392.968,312.095 391.635,316.429 389.5,320.5C 388.262,322.214 387.595,324.214 387.5,326.5C 387.567,327.959 387.234,329.292 386.5,330.5C 385.058,332.54 384.058,334.873 383.5,337.5C 383.957,338.298 384.624,338.631 385.5,338.5C 391.234,339.825 397.068,339.825 403,338.5C 403.692,339.025 404.192,339.692 404.5,340.5C 397.867,348.209 389.867,350.043 380.5,346C 375.516,340.288 374.349,334.121 377,327.5C 378.346,323.487 381.013,320.82 385,319.5C 385.945,319.905 386.612,320.572 387,321.5C 389.489,314.532 391.489,307.532 393,300.5C 387.376,302.614 382.876,301.114 379.5,296C 380.811,293.726 380.811,291.56 379.5,289.5C 379.5,289.167 379.5,288.833 379.5,288.5C 380.868,286.582 381.868,284.415 382.5,282C 381.095,280.731 379.429,280.231 377.5,280.5C 377.5,280.167 377.5,279.833 377.5,279.5C 378.043,279.44 378.376,279.107 378.5,278.5C 375.511,274.737 375.011,270.737 377,266.5C 380.107,264.521 383.274,262.854 386.5,261.5C 387.391,262.11 388.391,262.443 389.5,262.5C 389.5,260.833 389.5,259.167 389.5,257.5C 389.971,255.421 390.637,253.421 391.5,251.5C 392.738,249.786 393.405,247.786 393.5,245.5C 393.723,243.658 394.057,241.825 394.5,240C 392.596,233.883 390.929,227.716 389.5,221.5C 389.5,220.167 389.5,218.833 389.5,217.5C 396.429,225.851 402.429,225.184 407.5,215.5 Z"/></g>
<g><path style="opacity:1" fill="#cdcdcd" d="M 389.5,262.5 C 392.005,262.02 394.338,261.02 396.5,259.5C 398.541,260.236 400.541,261.069 402.5,262C 405.956,266.249 408.623,270.915 410.5,276C 410.375,277.627 409.875,279.127 409,280.5C 404.414,282.139 399.914,283.973 395.5,286C 392.833,286.667 390.167,286.667 387.5,286C 384.325,281.985 381.659,277.651 379.5,273C 380.196,271.107 381.03,269.274 382,267.5C 384.74,266.101 387.24,264.434 389.5,262.5 Z"/></g>
<g><path style="opacity:0.155" fill="#090909" d="M 422.5,268.5 C 427.151,268.627 431.485,269.627 435.5,271.5C 430.908,271.118 426.575,270.118 422.5,268.5 Z"/></g>
<g><path style="opacity:0.167" fill="#101010" d="M 329.5,270.5 C 333.078,270.549 336.411,271.215 339.5,272.5C 335.878,272.678 332.544,272.011 329.5,270.5 Z"/></g>
<g><path style="opacity:0.178" fill="#0b0b0b" d="M 436.5,271.5 C 441.477,271.581 446.143,272.581 450.5,274.5C 445.588,274.102 440.921,273.102 436.5,271.5 Z"/></g>
<g><path style="opacity:1" fill="#d3d3d3" d="M 487.5,247.5 C 488.54,249.719 488.04,251.719 486,253.5C 481.867,256.631 478.034,260.131 474.5,264C 479.026,262.936 483.526,261.436 488,259.5C 493.836,261.175 495.003,264.509 491.5,269.5C 491.5,269.833 491.5,270.167 491.5,270.5C 489.413,271.585 488.08,273.251 487.5,275.5C 486.833,275.5 486.5,275.833 486.5,276.5C 485.167,276.5 484.5,277.167 484.5,278.5C 484.5,279.167 484.167,279.5 483.5,279.5C 482.711,279.783 482.044,280.283 481.5,281C 483.74,281.977 486.073,282.477 488.5,282.5C 488.833,282.5 489.167,282.5 489.5,282.5C 489.5,282.833 489.5,283.167 489.5,283.5C 488.671,285.693 489.337,287.693 491.5,289.5C 491.023,290.478 490.357,291.311 489.5,292C 480.763,294.357 472.096,296.524 463.5,298.5C 463.5,299.167 463.5,299.833 463.5,300.5C 459.5,305.167 455.167,309.5 450.5,313.5C 450.906,311.891 450.906,310.557 450.5,309.5C 444.721,312.411 438.721,313.078 432.5,311.5C 431.269,310.349 431.269,309.183 432.5,308C 431.906,307.536 431.239,307.369 430.5,307.5C 430.5,307.167 430.5,306.833 430.5,306.5C 431.5,305.5 432.5,304.5 433.5,303.5C 435.5,303.5 436.5,302.5 436.5,300.5C 438.5,300.5 439.5,299.5 439.5,297.5C 439.5,296.833 439.833,296.5 440.5,296.5C 442.625,295.632 442.791,294.632 441,293.5C 437.208,292.562 433.375,291.896 429.5,291.5C 427.585,291.784 425.919,291.451 424.5,290.5C 428.182,290.665 431.848,290.499 435.5,290C 436.815,288.605 436.481,287.605 434.5,287C 438.984,282.347 444.318,280.181 450.5,280.5C 454.019,279.068 457.686,278.234 461.5,278C 462.566,276.841 462.233,276.008 460.5,275.5C 463.833,271.5 467.5,267.833 471.5,264.5C 472.5,264.167 473.167,263.5 473.5,262.5C 473.5,261.833 473.833,261.5 474.5,261.5C 476.914,260.089 478.581,258.089 479.5,255.5C 481.833,252.5 484.5,249.833 487.5,247.5 Z"/></g>
<g><path style="opacity:0.173" fill="#131313" d="M 491.5,270.5 C 490.92,272.749 489.587,274.415 487.5,275.5C 488.08,273.251 489.413,271.585 491.5,270.5 Z"/></g>
<g><path style="opacity:0.134" fill="#1c1c1c" d="M 339.5,272.5 C 344.12,272.74 348.453,273.74 352.5,275.5C 347.88,275.26 343.547,274.26 339.5,272.5 Z"/></g>
<g><path style="opacity:0.167" fill="#0c0c0c" d="M 450.5,274.5 C 453.86,274.616 457.193,274.949 460.5,275.5C 457.07,276.71 453.737,276.376 450.5,274.5 Z"/></g>
<g><path style="opacity:0.184" fill="#040404" d="M 354.5,275.5 C 359.035,276.137 363.368,277.137 367.5,278.5C 363.466,278.328 359.466,277.828 355.5,277C 354.944,276.617 354.611,276.117 354.5,275.5 Z"/></g>
<g><path style="opacity:0.067" fill="#080808" d="M 486.5,276.5 C 486.167,277.5 485.5,278.167 484.5,278.5C 484.5,277.167 485.167,276.5 486.5,276.5 Z"/></g>
<g><path style="opacity:0.187" fill="#090909" d="M 368.5,278.5 C 371.482,278.963 374.482,279.296 377.5,279.5C 377.5,279.833 377.5,280.167 377.5,280.5C 374.788,280.263 372.288,280.263 370,280.5C 369.283,279.956 368.783,279.289 368.5,278.5 Z"/></g>
<g><path style="opacity:0.2" fill="#040404" d="M 483.5,279.5 C 485.261,280.313 486.928,281.313 488.5,282.5C 486.073,282.477 483.74,281.977 481.5,281C 482.044,280.283 482.711,279.783 483.5,279.5 Z"/></g>
<g><path style="opacity:0.343" fill="#0e0e0e" d="M 377.5,280.5 C 379.429,280.231 381.095,280.731 382.5,282C 381.868,284.415 380.868,286.582 379.5,288.5C 379.993,286.194 380.326,283.861 380.5,281.5C 379.209,281.737 378.209,281.404 377.5,280.5 Z"/></g>
<g><path style="opacity:0.183" fill="#010101" d="M 489.5,283.5 C 489.5,283.167 489.5,282.833 489.5,282.5C 492.781,282.42 495.781,283.087 498.5,284.5C 495.482,284.296 492.482,283.963 489.5,283.5 Z"/></g>
<g><path style="opacity:0.18" fill="#0f0f0f" d="M 502.5,285.5 C 500.901,285.768 499.568,285.434 498.5,284.5C 500.001,283.557 501.335,283.891 502.5,285.5 Z"/></g>
<g><path style="opacity:0.168" fill="#121212" d="M 512.5,287.5 C 508.922,287.451 505.589,286.785 502.5,285.5C 503.117,285.389 503.617,285.056 504,284.5C 506.949,285.437 509.783,286.437 512.5,287.5 Z"/></g>
<g><path style="opacity:0.173" fill="#131313" d="M 406.5,286.5 C 411.422,286.87 416.089,287.87 420.5,289.5C 415.529,289.344 410.862,288.344 406.5,286.5 Z"/></g>
<g><path style="opacity:0.169" fill="#030303" d="M 513.5,287.5 C 516.781,287.42 519.781,288.087 522.5,289.5C 519.219,289.58 516.219,288.913 513.5,287.5 Z"/></g>
<g><path style="opacity:0.152" fill="#1c1c1c" d="M 166.5,289.5 C 167.738,291.214 168.405,293.214 168.5,295.5C 166.926,293.898 166.259,291.898 166.5,289.5 Z"/></g>
<g><path style="opacity:0.19" fill="#040404" d="M 399.5,289.5 C 399.741,291.898 399.074,293.898 397.5,295.5C 397.595,293.214 398.262,291.214 399.5,289.5 Z"/></g>
<g><path style="opacity:0.203" fill="#0d0d0d" d="M 379.5,289.5 C 379.598,291.553 378.931,293.22 377.5,294.5C 377.402,292.447 378.069,290.78 379.5,289.5 Z"/></g>
<g><path style="opacity:0.133" fill="#000000" d="M 527.5,290.5 C 530.833,290.833 534.167,291.167 537.5,291.5C 537.768,293.099 537.434,294.432 536.5,295.5C 536.5,294.5 536.5,293.5 536.5,292.5C 533.219,292.58 530.219,291.913 527.5,290.5 Z"/></g>
<g><path style="opacity:0.282" fill="#070707" d="M 429.5,291.5 C 433.375,291.896 437.208,292.562 441,293.5C 442.791,294.632 442.625,295.632 440.5,296.5C 440.423,295.25 439.756,294.417 438.5,294C 435.203,293.796 432.203,292.963 429.5,291.5 Z"/></g>
<g><path style="opacity:1" fill="#e5e5e5" d="M 379.5,289.5 C 380.811,291.56 380.811,293.726 379.5,296C 382.876,301.114 387.376,302.614 393,300.5C 391.489,307.532 389.489,314.532 387,321.5C 386.612,320.572 385.945,319.905 385,319.5C 381.013,320.82 378.346,323.487 377,327.5C 374.349,334.121 375.516,340.288 380.5,346C 389.867,350.043 397.867,348.209 404.5,340.5C 404.192,339.692 403.692,339.025 403,338.5C 397.068,339.825 391.234,339.825 385.5,338.5C 391.026,338.821 396.36,338.488 401.5,337.5C 401.5,336.833 401.833,336.5 402.5,336.5C 403.5,336.167 404.167,335.5 404.5,334.5C 406.914,333.089 408.581,331.089 409.5,328.5C 411.5,328.5 412.5,327.5 412.5,325.5C 413.5,323.833 414.833,322.5 416.5,321.5C 418.144,321.19 419.144,320.19 419.5,318.5C 421.144,318.19 422.144,317.19 422.5,315.5C 424.144,315.19 425.144,314.19 425.5,312.5C 426.833,311.833 427.833,310.833 428.5,309.5C 429.5,309.167 430.167,308.5 430.5,307.5C 431.239,307.369 431.906,307.536 432.5,308C 431.269,309.183 431.269,310.349 432.5,311.5C 438.721,313.078 444.721,312.411 450.5,309.5C 450.906,310.557 450.906,311.891 450.5,313.5C 448.833,315.833 446.833,317.833 444.5,319.5C 443.094,319.973 442.427,320.973 442.5,322.5C 441.833,323.167 441.167,323.833 440.5,324.5C 439.167,324.5 438.5,325.167 438.5,326.5C 435.833,329.833 432.833,332.833 429.5,335.5C 428.5,335.833 427.833,336.5 427.5,337.5C 426.167,338.167 425.167,339.167 424.5,340.5C 423.167,341.167 422.167,342.167 421.5,343.5C 420.094,343.973 419.427,344.973 419.5,346.5C 418.167,346.5 417.5,347.167 417.5,348.5C 417.5,349.167 417.167,349.5 416.5,349.5C 412.247,349.08 410.58,350.746 411.5,354.5C 411.167,355.5 410.5,356.167 409.5,356.5C 392.325,356.83 375.325,356.497 358.5,355.5C 358.5,355.167 358.5,354.833 358.5,354.5C 359.738,352.786 360.405,350.786 360.5,348.5C 360.433,347.041 360.766,345.708 361.5,344.5C 362.674,343.486 363.34,342.153 363.5,340.5C 366.295,327.909 369.962,315.576 374.5,303.5C 375.931,302.22 376.598,300.553 376.5,298.5C 376.433,297.041 376.766,295.708 377.5,294.5C 378.931,293.22 379.598,291.553 379.5,289.5 Z"/></g>
<g><path style="opacity:0.446" fill="#151515" d="M 463.5,298.5 C 465.415,298.216 467.081,298.549 468.5,299.5C 466.708,299.366 465.042,299.699 463.5,300.5C 463.5,299.833 463.5,299.167 463.5,298.5 Z"/></g>
<g><path style="opacity:0.765" fill="#4c4c4c" d="M 439.5,297.5 C 439.5,299.5 438.5,300.5 436.5,300.5C 437.167,299.167 438.167,298.167 439.5,297.5 Z"/></g>
<g><path style="opacity:0.145" fill="#010101" d="M 376.5,298.5 C 376.598,300.553 375.931,302.22 374.5,303.5C 374.402,301.447 375.069,299.78 376.5,298.5 Z"/></g>
<g><path style="opacity:0.129" fill="#090909" d="M 472.5,300.5 C 475.781,300.42 478.781,301.087 481.5,302.5C 478.171,302.785 475.171,302.118 472.5,300.5 Z"/></g>
<g><path style="opacity:0.757" fill="#505050" d="M 436.5,300.5 C 436.5,302.5 435.5,303.5 433.5,303.5C 434.167,302.167 435.167,301.167 436.5,300.5 Z"/></g>
<g><path style="opacity:0.102" fill="#0d0d0d" d="M 534.5,301.5 C 534.741,303.898 534.074,305.898 532.5,307.5C 532.595,305.214 533.262,303.214 534.5,301.5 Z"/></g>
<g><path style="opacity:0.207" fill="#070707" d="M 190.5,301.5 C 191.931,302.78 192.598,304.447 192.5,306.5C 191.069,305.22 190.402,303.553 190.5,301.5 Z"/></g>
<g><path style="opacity:0.167" fill="#0d0d0d" d="M 486.5,303.5 C 490.078,303.549 493.411,304.215 496.5,305.5C 492.84,305.841 489.507,305.175 486.5,303.5 Z"/></g>
<g><path style="opacity:0.443" fill="#161616" d="M 395.5,302.5 C 395.598,304.553 394.931,306.22 393.5,307.5C 393.402,305.447 394.069,303.78 395.5,302.5 Z"/></g>
<g><path style="opacity:0.161" fill="#0b0b0b" d="M 430.5,306.5 C 430.5,306.833 430.5,307.167 430.5,307.5C 430.167,308.5 429.5,309.167 428.5,309.5C 428.427,307.973 429.094,306.973 430.5,306.5 Z"/></g>
<g><path style="opacity:0.212" fill="#151515" d="M 509.5,308.5 C 511.552,309.053 511.885,310.053 510.5,311.5C 510.443,310.391 510.11,309.391 509.5,308.5 Z"/></g>
<g><path style="opacity:0.157" fill="#191919" d="M 428.5,309.5 C 427.833,310.833 426.833,311.833 425.5,312.5C 425.5,310.5 426.5,309.5 428.5,309.5 Z"/></g>
<g><path style="opacity:0.102" fill="#101010" d="M 193.5,308.5 C 194.931,309.78 195.598,311.447 195.5,313.5C 194.069,312.22 193.402,310.553 193.5,308.5 Z"/></g>
<g><path style="opacity:0.082" fill="#060606" d="M 173.5,310.5 C 174.537,311.93 175.204,313.597 175.5,315.5C 173.787,314.365 173.12,312.698 173.5,310.5 Z"/></g>
<g><path style="opacity:1" fill="#5f5f5f" d="M 425.5,312.5 C 425.144,314.19 424.144,315.19 422.5,315.5C 422.856,313.81 423.856,312.81 425.5,312.5 Z"/></g>
<g><path style="opacity:0.737" fill="#333333" d="M 509.5,313.5 C 509.34,315.153 508.674,316.486 507.5,317.5C 507.229,315.62 507.896,314.287 509.5,313.5 Z"/></g>
<g><path style="opacity:0.191" fill="#000000" d="M 175.5,315.5 C 176.931,316.78 177.598,318.447 177.5,320.5C 176.069,319.22 175.402,317.553 175.5,315.5 Z"/></g>
<g><path style="opacity:1" fill="#5f5f5f" d="M 422.5,315.5 C 422.144,317.19 421.144,318.19 419.5,318.5C 419.856,316.81 420.856,315.81 422.5,315.5 Z"/></g>
<g><path style="opacity:0.286" fill="#1b1b1b" d="M 444.5,319.5 C 444.573,321.027 443.906,322.027 442.5,322.5C 442.427,320.973 443.094,319.973 444.5,319.5 Z"/></g>
<g><path style="opacity:1" fill="#5e5e5e" d="M 419.5,318.5 C 419.144,320.19 418.144,321.19 416.5,321.5C 416.856,319.81 417.856,318.81 419.5,318.5 Z"/></g>
<g><path style="opacity:0.647" fill="#252525" d="M 506.5,319.5 C 506.34,321.153 505.674,322.486 504.5,323.5C 504.229,321.62 504.896,320.287 506.5,319.5 Z"/></g>
<g><path style="opacity:0.195" fill="#111111" d="M 389.5,320.5 C 389.741,322.898 389.074,324.898 387.5,326.5C 387.595,324.214 388.262,322.214 389.5,320.5 Z"/></g>
<g><path style="opacity:0.043" fill="#1d1d1d" d="M 440.5,324.5 C 440.167,325.5 439.5,326.167 438.5,326.5C 438.5,325.167 439.167,324.5 440.5,324.5 Z"/></g>
<g><path style="opacity:0.871" fill="#545454" d="M 504.5,323.5 C 504.573,325.027 503.906,326.027 502.5,326.5C 502.427,324.973 503.094,323.973 504.5,323.5 Z"/></g>
<g><path style="opacity:0.722" fill="#4b4b4b" d="M 412.5,325.5 C 412.5,327.5 411.5,328.5 409.5,328.5C 410.167,327.167 411.167,326.167 412.5,325.5 Z"/></g>
<g><path style="opacity:0.792" fill="#464646" d="M 501.5,328.5 C 501.573,330.027 500.906,331.027 499.5,331.5C 499.427,329.973 500.094,328.973 501.5,328.5 Z"/></g>
<g><path style="opacity:0.655" fill="#4a4a4a" d="M 204.5,330.5 C 205.906,330.973 206.573,331.973 206.5,333.5C 205.094,333.027 204.427,332.027 204.5,330.5 Z"/></g>
<g><path style="opacity:0.667" fill="#343434" d="M 409.5,328.5 C 408.581,331.089 406.914,333.089 404.5,334.5C 405.419,331.911 407.086,329.911 409.5,328.5 Z"/></g>
<g><path style="opacity:0.226" fill="#060606" d="M 386.5,330.5 C 386.007,332.806 385.674,335.139 385.5,337.5C 390.833,337.5 396.167,337.5 401.5,337.5C 396.36,338.488 391.026,338.821 385.5,338.5C 384.624,338.631 383.957,338.298 383.5,337.5C 384.058,334.873 385.058,332.54 386.5,330.5 Z"/></g>
<g><path style="opacity:0.224" fill="#1e1e1e" d="M 206.5,333.5 C 207.906,333.973 208.573,334.973 208.5,336.5C 207.094,336.027 206.427,335.027 206.5,333.5 Z"/></g>
<g><path style="opacity:0.276" fill="#060606" d="M 404.5,334.5 C 404.167,335.5 403.5,336.167 402.5,336.5C 402.5,335.167 403.167,334.5 404.5,334.5 Z"/></g>
<g><path style="opacity:0.233" fill="#161616" d="M 185.5,335.5 C 186.906,335.973 187.573,336.973 187.5,338.5C 186.094,338.027 185.427,337.027 185.5,335.5 Z"/></g>
<g><path style="opacity:0.273" fill="#000000" d="M 429.5,335.5 C 429.5,336.833 428.833,337.5 427.5,337.5C 427.833,336.5 428.5,335.833 429.5,335.5 Z"/></g>
<g><path style="opacity:0.247" fill="#252525" d="M 208.5,336.5 C 209.906,336.973 210.573,337.973 210.5,339.5C 209.094,339.027 208.427,338.027 208.5,336.5 Z"/></g>
<g><path style="opacity:0.123" fill="#040404" d="M 427.5,337.5 C 427.5,339.5 426.5,340.5 424.5,340.5C 425.167,339.167 426.167,338.167 427.5,337.5 Z"/></g>
<g><path style="opacity:0.608" fill="#191919" d="M 495.5,337.5 C 495.573,339.027 494.906,340.027 493.5,340.5C 493.427,338.973 494.094,337.973 495.5,337.5 Z"/></g>
<g><path style="opacity:0.202" fill="#030303" d="M 188.5,340.5 C 189.906,340.973 190.573,341.973 190.5,343.5C 189.094,343.027 188.427,342.027 188.5,340.5 Z"/></g>
<g><path style="opacity:0.753" fill="#3c3c3c" d="M 363.5,340.5 C 363.34,342.153 362.674,343.486 361.5,344.5C 361.229,342.62 361.896,341.287 363.5,340.5 Z"/></g>
<g><path style="opacity:0.141" fill="#1e1e1e" d="M 424.5,340.5 C 424.5,342.5 423.5,343.5 421.5,343.5C 422.167,342.167 423.167,341.167 424.5,340.5 Z"/></g>
<g><path style="opacity:0.227" fill="#000000" d="M 492.5,341.5 C 492.573,343.027 491.906,344.027 490.5,344.5C 490.427,342.973 491.094,341.973 492.5,341.5 Z"/></g>
<g><path style="opacity:0.031" fill="#0b0b0b" d="M 421.5,343.5 C 421.573,345.027 420.906,346.027 419.5,346.5C 419.427,344.973 420.094,343.973 421.5,343.5 Z"/></g>
<g><path style="opacity:1" fill="#ababab" d="M 223.5,382.5 C 217.527,377.194 211.86,371.527 206.5,365.5C 206.573,363.973 205.906,362.973 204.5,362.5C 201.364,359.571 198.697,356.238 196.5,352.5C 196.573,350.973 195.906,349.973 194.5,349.5C 192.684,347.882 191.351,345.882 190.5,343.5C 191.397,342.402 192.23,342.402 193,343.5C 201.996,357.171 212.496,369.671 224.5,381C 223.944,381.383 223.611,381.883 223.5,382.5 Z"/></g>
<g><path style="opacity:0.012" fill="#111111" d="M 419.5,346.5 C 419.167,347.5 418.5,348.167 417.5,348.5C 417.5,347.167 418.167,346.5 419.5,346.5 Z"/></g>
<g><path style="opacity:0.549" fill="#232323" d="M 490.5,344.5 C 490.573,346.027 489.906,347.027 488.5,347.5C 488.427,345.973 489.094,344.973 490.5,344.5 Z"/></g>
<g><path style="opacity:0.057" fill="#0e0e0e" d="M 512.5,346.5 C 512.573,348.027 511.906,349.027 510.5,349.5C 510.427,347.973 511.094,346.973 512.5,346.5 Z"/></g>
<g><path style="opacity:0.141" fill="#0e0e0e" d="M 360.5,348.5 C 360.405,350.786 359.738,352.786 358.5,354.5C 358.259,352.102 358.926,350.102 360.5,348.5 Z"/></g>
<g><path style="opacity:0.196" fill="#1a1a1a" d="M 194.5,349.5 C 195.906,349.973 196.573,350.973 196.5,352.5C 195.094,352.027 194.427,351.027 194.5,349.5 Z"/></g>
<g><path style="opacity:1" fill="#969696" d="M 416.5,349.5 C 415.167,351.5 413.5,353.167 411.5,354.5C 410.58,350.746 412.247,349.08 416.5,349.5 Z"/></g>
<g><path style="opacity:0.565" fill="#323232" d="M 216.5,347.5 C 218.587,348.585 219.92,350.251 220.5,352.5C 220.167,352.5 219.833,352.5 219.5,352.5C 218.075,351.078 217.075,349.411 216.5,347.5 Z"/></g>
<g><path style="opacity:0.62" fill="#1f1f1f" d="M 486.5,349.5 C 486.5,350.833 485.833,351.5 484.5,351.5C 484.833,350.5 485.5,349.833 486.5,349.5 Z"/></g>
<g><path style="opacity:0.214" fill="#000000" d="M 484.5,351.5 C 484.573,353.027 483.906,354.027 482.5,354.5C 482.427,352.973 483.094,351.973 484.5,351.5 Z"/></g>
<g><path style="opacity:1" fill="#8c8c8c" d="M 219.5,352.5 C 219.833,352.5 220.167,352.5 220.5,352.5C 222.5,353.833 224.167,355.5 225.5,357.5C 222.268,357.228 220.268,355.562 219.5,352.5 Z"/></g>
<g><path style="opacity:0.649" fill="#4c4c4c" d="M 358.5,355.5 C 375.325,356.497 392.325,356.83 409.5,356.5C 392.329,357.827 374.995,357.827 357.5,356.5C 357.624,355.893 357.957,355.56 358.5,355.5 Z"/></g>
<g><path style="opacity:0.069" fill="#050505" d="M 504.5,357.5 C 504.5,358.833 503.833,359.5 502.5,359.5C 502.833,358.5 503.5,357.833 504.5,357.5 Z"/></g>
<g><path style="opacity:0.027" fill="#343434" d="M 225.5,358.5 C 226.833,358.5 227.5,359.167 227.5,360.5C 226.5,360.167 225.833,359.5 225.5,358.5 Z"/></g>
<g><path style="opacity:0.769" fill="#5e5e5e" d="M 479.5,357.5 C 479.5,359.5 478.5,360.5 476.5,360.5C 477.167,359.167 478.167,358.167 479.5,357.5 Z"/></g>
<g><path style="opacity:0.162" fill="#181818" d="M 228.5,360.5 C 229.906,360.973 230.573,361.973 230.5,363.5C 229.094,363.027 228.427,362.027 228.5,360.5 Z"/></g>
<g><path style="opacity:0.249" fill="#000100" d="M 204.5,362.5 C 205.906,362.973 206.573,363.973 206.5,365.5C 205.094,365.027 204.427,364.027 204.5,362.5 Z"/></g>
<g><path style="opacity:0.82" fill="#4c4c4c" d="M 476.5,360.5 C 476.5,362.5 475.5,363.5 473.5,363.5C 474.167,362.167 475.167,361.167 476.5,360.5 Z"/></g>
<g><path style="opacity:0.027" fill="#1f1f1f" d="M 230.5,363.5 C 232.027,363.427 233.027,364.094 233.5,365.5C 231.973,365.573 230.973,364.906 230.5,363.5 Z"/></g>
<g><path style="opacity:0.226" fill="#0c0c0c" d="M 499.5,363.5 C 499.262,365.404 498.262,366.738 496.5,367.5C 496.738,365.596 497.738,364.262 499.5,363.5 Z"/></g>
<g><path style="opacity:0.576" fill="#111111" d="M 473.5,363.5 C 473.5,364.833 472.833,365.5 471.5,365.5C 471.833,364.5 472.5,363.833 473.5,363.5 Z"/></g>
<g><path style="opacity:0.69" fill="#323232" d="M 233.5,365.5 C 234.5,365.833 235.167,366.5 235.5,367.5C 234.167,367.5 233.5,366.833 233.5,365.5 Z"/></g>
<g><path style="opacity:0.186" fill="#0f0f0f" d="M 467.5,369.5 C 466.415,371.587 464.749,372.92 462.5,373.5C 463.585,371.413 465.251,370.08 467.5,369.5 Z"/></g>
<g><path style="opacity:0.216" fill="#060606" d="M 239.5,371.5 C 241.027,371.427 242.027,372.094 242.5,373.5C 240.973,373.573 239.973,372.906 239.5,371.5 Z"/></g>
<g><path style="opacity:0.225" fill="#171717" d="M 461.5,374.5 C 460.738,376.262 459.404,377.262 457.5,377.5C 458.262,375.738 459.596,374.738 461.5,374.5 Z"/></g>
<g><path style="opacity:0.216" fill="#000000" d="M 457.5,377.5 C 457.167,378.5 456.5,379.167 455.5,379.5C 455.5,378.167 456.167,377.5 457.5,377.5 Z"/></g>
<g><path style="opacity:0.031" fill="#222222" d="M 249.5,379.5 C 251.027,379.427 252.027,380.094 252.5,381.5C 250.973,381.573 249.973,380.906 249.5,379.5 Z"/></g>
<g><path style="opacity:1" fill="#b1b1b1" d="M 515.5,341.5 C 514.89,343.434 513.89,345.101 512.5,346.5C 511.094,346.973 510.427,347.973 510.5,349.5C 508.853,352.473 506.853,355.14 504.5,357.5C 503.5,357.833 502.833,358.5 502.5,359.5C 502.262,361.404 501.262,362.738 499.5,363.5C 497.738,364.262 496.738,365.596 496.5,367.5C 489.466,375.535 481.799,382.868 473.5,389.5C 471.973,389.427 470.973,390.094 470.5,391.5C 470.5,392.167 470.167,392.5 469.5,392.5C 467.973,392.427 466.973,393.094 466.5,394.5C 464.77,395.026 463.436,396.026 462.5,397.5C 460.025,400.241 457.025,402.241 453.5,403.5C 454.048,402.312 454.381,401.145 454.5,400C 478.667,385.167 498.167,365.667 513,341.5C 513.77,340.402 514.603,340.402 515.5,341.5 Z"/></g>
<g><path style="opacity:0.753" fill="#4c4c4c" d="M 455.5,379.5 C 455.027,380.906 454.027,381.573 452.5,381.5C 452.973,380.094 453.973,379.427 455.5,379.5 Z"/></g>
<g><path style="opacity:0.253" fill="#171717" d="M 252.5,381.5 C 254.027,381.427 255.027,382.094 255.5,383.5C 253.973,383.573 252.973,382.906 252.5,381.5 Z"/></g>
<g><path style="opacity:0.714" fill="#343434" d="M 452.5,381.5 C 452.027,382.906 451.027,383.573 449.5,383.5C 449.973,382.094 450.973,381.427 452.5,381.5 Z"/></g>
<g><path style="opacity:0.675" fill="#282828" d="M 225.5,384.5 C 227.749,385.08 229.415,386.413 230.5,388.5C 228.251,387.92 226.585,386.587 225.5,384.5 Z"/></g>
<g><path style="opacity:0.173" fill="#1d1d1d" d="M 447.5,384.5 C 446.738,386.262 445.404,387.262 443.5,387.5C 444.262,385.738 445.596,384.738 447.5,384.5 Z"/></g>
<g><path style="opacity:0.918" fill="#5b5b5b" d="M 441.5,388.5 C 441.027,389.906 440.027,390.573 438.5,390.5C 438.973,389.094 439.973,388.427 441.5,388.5 Z"/></g>
<g><path style="opacity:0.576" fill="#202020" d="M 231.5,389.5 C 233.027,389.427 234.027,390.094 234.5,391.5C 232.973,391.573 231.973,390.906 231.5,389.5 Z"/></g>
<g><path style="opacity:0.229" fill="#010101" d="M 473.5,389.5 C 473.027,390.906 472.027,391.573 470.5,391.5C 470.973,390.094 471.973,389.427 473.5,389.5 Z"/></g>
<g><path style="opacity:0.203" fill="#000000" d="M 234.5,391.5 C 235.5,391.833 236.167,392.5 236.5,393.5C 235.167,393.5 234.5,392.833 234.5,391.5 Z"/></g>
<g><path style="opacity:0.136" fill="#080808" d="M 268.5,391.5 C 270.38,391.229 271.713,391.896 272.5,393.5C 270.847,393.34 269.514,392.674 268.5,391.5 Z"/></g>
<g><path style="opacity:0.976" fill="#696969" d="M 436.5,391.5 C 436.027,392.906 435.027,393.573 433.5,393.5C 433.973,392.094 434.973,391.427 436.5,391.5 Z"/></g>
<g><path style="opacity:0.047" fill="#111111" d="M 469.5,392.5 C 469.027,393.906 468.027,394.573 466.5,394.5C 466.973,393.094 467.973,392.427 469.5,392.5 Z"/></g>
<g><path style="opacity:0.047" fill="#050505" d="M 466.5,394.5 C 465.965,396.446 464.632,397.446 462.5,397.5C 463.436,396.026 464.77,395.026 466.5,394.5 Z"/></g>
<g><path style="opacity:0.565" fill="#242424" d="M 239.5,395.5 C 241.027,395.427 242.027,396.094 242.5,397.5C 240.973,397.573 239.973,396.906 239.5,395.5 Z"/></g>
<g><path style="opacity:0.146" fill="#0c0c0c" d="M 276.5,395.5 C 278.967,395.755 280.967,396.755 282.5,398.5C 280.033,398.245 278.033,397.245 276.5,395.5 Z"/></g>
<g><path style="opacity:0.545" fill="#070707" d="M 426.5,396.5 C 425.486,397.674 424.153,398.34 422.5,398.5C 423.287,396.896 424.62,396.229 426.5,396.5 Z"/></g>
<g><path style="opacity:0.1" fill="#1c1c1c" d="M 422.5,398.5 C 420.491,400.065 418.157,401.065 415.5,401.5C 417.32,399.552 419.654,398.552 422.5,398.5 Z"/></g>
<g><path style="opacity:0.093" fill="#1a1a1a" d="M 284.5,399.5 C 286.698,399.12 288.365,399.787 289.5,401.5C 287.597,401.204 285.93,400.537 284.5,399.5 Z"/></g>
<g><path style="opacity:0.047" fill="#080808" d="M 250.5,402.5 C 251.5,402.833 252.167,403.5 252.5,404.5C 251.167,404.5 250.5,403.833 250.5,402.5 Z"/></g>
<g><path style="opacity:0.843" fill="#494949" d="M 406.5,404.5 C 404.898,406.074 402.898,406.741 400.5,406.5C 402.214,405.262 404.214,404.595 406.5,404.5 Z"/></g>
<g><path style="opacity:0.197" fill="#131313" d="M 400.5,406.5 C 396.761,408.102 392.761,409.102 388.5,409.5C 392.163,407.584 396.163,406.584 400.5,406.5 Z"/></g>
<g><path style="opacity:0.164" fill="#000000" d="M 258.5,407.5 C 259.71,407.932 260.71,408.599 261.5,409.5C 259.821,409.715 258.821,409.048 258.5,407.5 Z"/></g>
<g><path style="opacity:0.116" fill="#0e0e0e" d="M 305.5,406.5 C 308.373,406.802 311.039,407.469 313.5,408.5C 310.447,408.889 307.78,408.223 305.5,406.5 Z"/></g>
<g><path style="opacity:0.17" fill="#000000" d="M 382.5,410.5 C 380.735,411.461 378.735,411.795 376.5,411.5C 378.444,410.172 380.444,409.839 382.5,410.5 Z"/></g>
<g><path style="opacity:0.254" fill="#000100" d="M 264.5,410.5 C 265.71,410.932 266.71,411.599 267.5,412.5C 265.821,412.715 264.821,412.048 264.5,410.5 Z"/></g>
<g><path style="opacity:0.275" fill="#050505" d="M 317.5,409.5 C 320.781,409.42 323.781,410.087 326.5,411.5C 323.219,411.58 320.219,410.913 317.5,409.5 Z"/></g>
<g><path style="opacity:0.237" fill="#131313" d="M 440.5,410.5 C 439.514,412.408 437.848,413.408 435.5,413.5C 436.768,411.953 438.435,410.953 440.5,410.5 Z"/></g>
<g><path style="opacity:0.212" fill="#000000" d="M 270.5,413.5 C 271.71,413.932 272.71,414.599 273.5,415.5C 271.821,415.715 270.821,415.048 270.5,413.5 Z"/></g>
<g><path style="opacity:0.141" fill="#040404" d="M 433.5,414.5 C 432.486,415.674 431.153,416.34 429.5,416.5C 430.287,414.896 431.62,414.229 433.5,414.5 Z"/></g>
<g><path style="opacity:0.035" fill="#0e0e0e" d="M 276.5,416.5 C 278.153,416.66 279.486,417.326 280.5,418.5C 278.62,418.771 277.287,418.104 276.5,416.5 Z"/></g>
<g><path style="opacity:0.209" fill="#101010" d="M 421.5,419.5 C 420.22,420.931 418.553,421.598 416.5,421.5C 417.78,420.069 419.447,419.402 421.5,419.5 Z"/></g>
<g><path style="opacity:0.162" fill="#0f0f0f" d="M 413.5,422.5 C 411.786,423.738 409.786,424.405 407.5,424.5C 409.102,422.926 411.102,422.259 413.5,422.5 Z"/></g>
<g><path style="opacity:0.166" fill="#0a0a0a" d="M 406.5,424.5 C 404.485,425.924 402.152,426.59 399.5,426.5C 401.515,425.076 403.848,424.41 406.5,424.5 Z"/></g>
<g><path style="opacity:0.162" fill="#0c0c0c" d="M 306.5,426.5 C 311.017,427.19 315.35,428.19 319.5,429.5C 315.466,429.328 311.466,428.828 307.5,428C 306.944,427.617 306.611,427.117 306.5,426.5 Z"/></g>
<g><path style="opacity:0.16" fill="#0a0a0a" d="M 399.5,426.5 C 396.877,428.265 393.877,428.932 390.5,428.5C 393.273,427.343 396.273,426.676 399.5,426.5 Z"/></g>
<g><path style="opacity:0.2" fill="#0e0e0e" d="M 321.5,429.5 C 326.324,429.992 330.99,430.659 335.5,431.5C 331.486,431.666 327.486,431.499 323.5,431C 322.584,430.722 321.918,430.222 321.5,429.5 Z"/></g>
<g><path style="opacity:0.166" fill="#0e0e0e" d="M 385.5,429.5 C 380.447,431.26 375.114,431.927 369.5,431.5C 374.646,430.449 379.979,429.782 385.5,429.5 Z"/></g>
</svg>
