<svg id="svg" version="1.1" xmlns="http://www.w3.org/2000/svg" xmlns:xlink="http://www.w3.org/1999/xlink" width="400" height="75" viewBox="0, 0, 400,75"><g id="svgg"><path id="path0" d="M44.083 14.330 C 42.095 14.682,40.509 15.182,38.973 15.941 C 38.351 16.249,37.802 16.500,37.753 16.500 C 37.704 16.500,37.046 16.902,36.290 17.394 C 31.132 20.752,28.355 25.934,28.991 31.010 C 29.590 35.781,33.574 37.178,40.083 34.900 C 41.275 34.483,42.344 34.135,42.458 34.126 C 42.573 34.118,42.667 34.056,42.667 33.988 C 42.667 33.920,43.248 33.624,43.958 33.331 C 44.669 33.038,47.425 31.690,50.083 30.337 C 52.742 28.984,56.904 26.864,59.333 25.627 C 61.762 24.389,64.294 23.173,64.958 22.924 C 66.451 22.364,66.457 22.431,64.792 20.775 C 59.248 15.258,51.847 12.955,44.083 14.330 M81.917 14.408 C 80.406 14.667,80.151 14.751,78.718 15.458 L 77.519 16.050 76.218 15.763 C 75.502 15.606,74.658 15.435,74.341 15.383 L 73.765 15.289 74.713 16.336 C 75.933 17.684,76.966 19.217,77.874 21.025 L 78.597 22.467 78.965 21.257 C 79.168 20.591,79.333 19.877,79.333 19.670 C 79.333 19.316,80.030 18.508,81.000 17.739 C 82.280 16.724,83.938 14.024,83.181 14.188 C 83.127 14.199,82.558 14.299,81.917 14.408 M72.157 21.598 C 71.108 22.289,69.350 23.421,68.250 24.115 C 67.150 24.809,65.897 25.611,65.465 25.897 C 65.033 26.183,63.871 26.937,62.882 27.573 C 61.893 28.208,60.446 29.140,59.667 29.642 C 58.887 30.144,57.612 30.965,56.833 31.466 C 56.054 31.967,55.229 32.515,55.000 32.684 C 54.771 32.853,54.171 33.233,53.667 33.529 C 53.163 33.825,52.665 34.146,52.561 34.242 C 52.457 34.338,51.932 34.697,51.394 35.041 C 50.857 35.384,50.269 35.759,50.089 35.874 C 49.909 35.989,48.728 36.758,47.464 37.583 C 46.200 38.408,44.585 39.453,43.875 39.904 C 43.164 40.356,41.608 41.358,40.417 42.133 C 39.225 42.907,37.875 43.783,37.417 44.080 C 34.956 45.672,33.118 46.871,32.022 47.600 C 31.347 48.049,30.447 48.636,30.022 48.904 C 28.218 50.044,26.042 51.536,25.500 52.003 L 24.917 52.507 25.833 52.147 C 26.337 51.950,27.912 51.381,29.333 50.884 C 30.754 50.386,32.742 49.650,33.750 49.249 C 34.758 48.847,36.633 48.111,37.917 47.612 C 40.714 46.525,42.356 45.858,44.583 44.907 C 54.007 40.882,59.759 41.940,61.002 47.928 C 61.682 51.201,59.557 55.133,55.765 57.617 C 54.326 58.561,54.426 58.482,54.532 58.588 C 54.811 58.867,59.331 56.842,61.247 55.581 C 66.950 51.825,70.030 46.559,71.239 38.500 C 71.409 37.361,71.329 34.310,71.111 33.667 C 71.064 33.529,70.934 32.892,70.821 32.250 C 70.623 31.122,70.015 29.087,69.392 27.465 L 69.091 26.681 69.862 25.882 C 70.785 24.926,72.602 22.784,73.125 22.036 C 73.331 21.741,73.663 21.276,73.863 21.002 C 74.466 20.175,74.153 20.285,72.157 21.598 M107.417 26.938 C 102.068 28.805,99.826 35.720,103.536 38.912 C 105.039 40.205,107.497 40.585,107.502 39.524 C 107.503 39.282,107.650 38.490,107.828 37.764 C 108.203 36.235,108.224 36.305,107.245 35.831 C 105.771 35.118,105.659 33.585,106.962 31.969 C 107.975 30.712,108.283 30.667,115.793 30.667 C 119.297 30.667,122.188 30.601,122.238 30.519 C 122.323 30.381,122.560 29.009,122.781 27.375 L 122.877 26.667 115.480 26.686 C 109.619 26.701,107.945 26.754,107.417 26.938 M139.921 26.875 C 139.752 27.383,139.467 28.557,139.080 30.333 C 138.850 31.387,138.555 32.700,138.425 33.250 C 137.273 38.115,137.006 40.353,137.352 42.240 C 138.870 50.508,149.437 52.289,156.374 45.446 C 159.036 42.820,159.862 41.272,160.834 37.083 C 161.538 34.055,161.652 33.553,161.987 32.000 C 162.306 30.526,162.842 27.570,162.894 27.000 C 162.913 26.790,162.586 26.750,160.845 26.750 L 158.774 26.750 158.636 27.250 C 158.374 28.202,157.684 31.423,157.423 32.917 C 157.279 33.742,157.053 34.867,156.922 35.417 C 156.790 35.967,156.522 37.092,156.325 37.917 C 155.434 41.650,152.969 44.243,149.500 45.096 C 144.406 46.349,140.640 42.899,141.753 38.000 C 141.909 37.313,142.209 35.813,142.419 34.667 C 142.629 33.521,142.966 31.871,143.169 31.000 C 143.929 27.730,144.110 26.833,144.029 26.751 C 143.830 26.553,139.989 26.669,139.921 26.875 M179.918 26.831 C 179.816 26.996,179.166 29.680,178.747 31.667 C 178.622 32.262,178.357 33.462,178.160 34.333 C 177.962 35.204,177.622 36.892,177.403 38.083 C 177.184 39.275,176.847 40.925,176.654 41.750 C 175.660 46.001,174.985 49.341,175.087 49.506 C 175.142 49.595,176.074 49.667,177.171 49.667 C 179.506 49.667,179.331 49.820,179.741 47.417 C 179.898 46.500,180.128 45.300,180.252 44.750 C 180.377 44.200,180.652 42.981,180.864 42.042 L 181.250 40.334 184.712 40.334 C 188.727 40.333,188.244 40.603,188.825 38.033 C 189.279 36.029,189.520 36.167,185.570 36.167 L 182.160 36.167 182.245 35.792 C 182.291 35.585,182.445 34.675,182.585 33.770 C 182.726 32.864,182.875 32.067,182.917 31.999 C 183.019 31.835,184.000 27.223,184.000 26.911 C 184.000 26.620,180.096 26.543,179.918 26.831 M197.549 26.958 C 197.490 27.119,197.201 27.550,196.908 27.917 C 196.615 28.283,195.828 29.408,195.158 30.417 C 194.489 31.425,193.700 32.550,193.405 32.917 C 193.110 33.283,192.704 33.879,192.502 34.241 C 192.301 34.602,191.895 35.202,191.601 35.574 C 191.306 35.946,190.774 36.684,190.417 37.215 L 189.769 38.180 190.115 39.631 C 190.306 40.430,190.626 41.608,190.827 42.250 C 191.843 45.488,192.323 47.141,192.582 48.294 C 192.908 49.742,192.761 49.667,195.260 49.667 L 197.500 49.667 197.500 49.192 C 197.500 48.931,197.193 47.674,196.818 46.400 C 196.443 45.126,196.037 43.746,195.917 43.333 C 195.796 42.921,195.572 42.171,195.418 41.667 C 195.263 41.162,195.076 40.450,195.000 40.083 C 194.925 39.717,194.792 39.192,194.705 38.917 C 194.519 38.330,194.679 37.977,195.870 36.334 C 196.302 35.738,196.810 35.025,196.998 34.750 C 197.186 34.475,197.595 33.875,197.907 33.417 C 199.995 30.353,200.512 29.602,201.380 28.374 C 201.914 27.617,202.305 26.923,202.249 26.832 C 202.048 26.506,197.672 26.624,197.549 26.958 M217.937 26.800 C 217.888 26.880,217.695 27.763,217.508 28.764 C 217.142 30.721,216.904 31.852,216.334 34.333 C 216.134 35.204,215.868 36.424,215.743 37.045 C 215.618 37.666,215.478 38.234,215.432 38.308 C 215.387 38.382,215.228 39.224,215.081 40.179 C 214.933 41.135,214.710 42.329,214.585 42.833 C 214.461 43.337,214.200 44.462,214.004 45.333 C 213.809 46.204,213.541 47.382,213.408 47.951 C 212.981 49.781,212.860 49.667,215.232 49.667 C 217.443 49.667,217.500 49.644,217.500 48.768 C 217.500 48.563,217.638 47.838,217.807 47.156 C 217.976 46.475,218.239 45.354,218.392 44.667 C 218.545 43.979,218.807 42.817,218.974 42.083 L 219.278 40.750 225.014 40.667 L 230.750 40.583 230.803 40.167 C 230.832 39.938,231.006 39.121,231.188 38.352 C 231.371 37.583,231.457 36.890,231.379 36.812 C 231.301 36.735,228.720 36.651,225.643 36.627 L 220.048 36.583 220.429 34.833 C 220.911 32.622,221.297 30.925,221.680 29.333 C 221.845 28.646,222.004 27.783,222.032 27.417 L 222.083 26.750 220.055 26.703 C 218.939 26.678,217.986 26.721,217.937 26.800 M234.666 27.458 C 234.552 27.894,234.353 28.738,234.224 29.333 C 234.096 29.929,233.887 30.867,233.760 31.417 C 233.160 34.028,232.803 35.734,232.503 37.417 C 232.323 38.425,231.984 40.075,231.748 41.083 C 231.513 42.092,231.217 43.404,231.091 44.000 C 230.965 44.596,230.691 45.833,230.482 46.750 C 230.273 47.667,230.098 48.679,230.093 49.000 L 230.083 49.583 232.127 49.630 L 234.171 49.677 234.331 49.257 C 234.419 49.025,234.677 47.804,234.905 46.543 C 235.133 45.282,235.430 43.762,235.566 43.167 C 236.585 38.703,236.851 37.487,237.244 35.500 C 237.802 32.685,238.030 31.566,238.246 30.583 C 239.188 26.303,239.318 26.667,236.843 26.667 L 234.873 26.667 234.666 27.458 M255.759 26.954 C 255.618 27.321,255.190 29.438,255.008 30.667 C 254.933 31.171,254.706 32.296,254.504 33.167 C 254.301 34.037,254.039 35.200,253.920 35.750 C 253.801 36.300,253.540 37.462,253.341 38.333 C 253.142 39.204,252.835 40.742,252.658 41.750 C 252.481 42.758,252.224 44.033,252.087 44.583 C 251.544 46.765,251.019 49.395,251.100 49.527 C 251.289 49.833,255.137 49.691,255.229 49.375 C 255.323 49.049,256.099 45.626,256.428 44.083 C 256.546 43.533,256.807 42.333,257.010 41.417 C 257.213 40.500,257.437 39.337,257.509 38.833 C 257.580 38.329,257.752 37.429,257.891 36.833 C 258.029 36.237,258.276 35.094,258.439 34.292 C 258.802 32.510,258.799 32.510,259.580 34.208 C 260.344 35.868,264.804 44.992,266.159 47.667 L 267.129 49.583 269.727 49.629 C 272.315 49.675,272.325 49.674,272.394 49.296 C 272.526 48.573,273.033 46.079,273.251 45.083 C 273.371 44.533,273.618 43.408,273.800 42.583 C 274.105 41.201,274.467 39.462,275.363 35.083 C 275.550 34.167,275.808 32.967,275.935 32.417 C 276.240 31.104,276.832 28.425,277.005 27.583 C 277.193 26.665,277.155 26.650,274.821 26.703 L 272.753 26.750 272.620 27.583 C 272.472 28.521,272.258 29.610,271.935 31.083 C 271.120 34.793,270.802 36.194,270.593 37.000 C 270.463 37.504,270.203 38.817,270.017 39.917 C 269.830 41.017,269.580 42.248,269.460 42.654 L 269.243 43.391 268.360 41.570 C 267.875 40.569,266.920 38.614,266.239 37.226 C 265.558 35.838,265.000 34.650,265.000 34.587 C 265.000 34.477,262.899 30.078,261.774 27.833 L 261.231 26.750 258.552 26.704 C 256.115 26.663,255.862 26.685,255.759 26.954 M293.607 27.542 C 293.378 28.343,293.000 30.205,293.000 30.531 C 293.000 30.605,294.696 30.667,296.769 30.667 L 300.539 30.667 300.435 31.125 C 300.377 31.377,300.249 32.033,300.150 32.583 C 299.914 33.888,299.282 36.874,298.526 40.250 C 298.341 41.075,298.016 42.594,297.803 43.625 L 297.417 45.499 293.628 45.500 L 289.840 45.500 289.765 45.875 C 289.723 46.081,289.532 46.948,289.340 47.800 C 289.148 48.653,289.035 49.421,289.089 49.508 C 289.223 49.727,308.446 49.722,308.581 49.504 C 308.698 49.315,309.135 47.250,309.279 46.208 L 309.377 45.500 305.526 45.500 L 301.675 45.500 301.825 45.105 C 301.908 44.887,302.096 44.006,302.243 43.146 C 302.642 40.818,302.805 40.036,303.664 36.333 C 304.062 34.616,304.388 33.128,304.696 31.625 L 304.892 30.667 308.671 30.667 L 312.451 30.667 312.724 29.625 C 313.175 27.905,313.345 26.987,313.243 26.822 C 313.185 26.729,309.305 26.667,303.502 26.667 L 293.857 26.667 293.607 27.542 M330.083 26.875 C 330.014 27.072,329.733 28.327,329.254 30.583 C 329.137 31.133,328.699 33.158,328.280 35.083 C 327.861 37.008,327.366 39.371,327.180 40.333 C 326.994 41.296,326.576 43.246,326.251 44.667 C 325.493 47.984,325.333 48.788,325.333 49.278 L 325.333 49.677 327.455 49.630 L 329.576 49.583 329.792 48.333 C 330.093 46.594,330.887 42.850,331.357 40.958 L 331.513 40.333 334.995 40.333 L 338.476 40.333 338.719 39.458 C 339.091 38.120,339.363 36.515,339.249 36.332 C 339.187 36.232,337.815 36.167,335.763 36.167 L 332.380 36.167 332.588 34.875 C 332.702 34.165,332.879 33.277,332.980 32.901 C 333.082 32.526,333.238 31.851,333.328 31.401 C 333.418 30.952,333.679 29.767,333.908 28.770 C 334.138 27.772,334.286 26.891,334.236 26.811 C 334.088 26.571,330.169 26.631,330.083 26.875 M347.804 26.958 C 347.495 27.322,345.940 29.566,343.022 33.856 C 342.439 34.715,341.520 36.028,340.981 36.776 C 339.769 38.455,339.725 37.728,341.367 43.167 C 341.547 43.762,341.806 44.625,341.944 45.083 C 342.081 45.542,342.340 46.517,342.518 47.250 C 342.696 47.983,342.921 48.827,343.017 49.125 L 343.193 49.667 345.420 49.667 C 347.834 49.667,347.943 49.625,347.691 48.791 C 347.602 48.493,347.376 47.650,347.189 46.917 C 347.002 46.183,346.690 45.058,346.495 44.417 C 346.299 43.775,346.033 42.894,345.903 42.458 C 345.773 42.023,345.548 41.273,345.403 40.792 C 344.664 38.345,344.670 38.316,346.277 36.110 C 346.842 35.334,347.396 34.524,347.509 34.308 C 347.622 34.093,348.144 33.350,348.670 32.656 C 349.196 31.963,349.756 31.138,349.916 30.823 C 350.075 30.508,350.340 30.100,350.504 29.917 C 351.058 29.298,352.500 27.109,352.500 26.887 C 352.500 26.510,348.128 26.576,347.804 26.958 M114.241 36.792 C 114.182 37.135,114.029 37.787,113.900 38.239 C 113.515 39.592,113.580 40.121,114.143 40.245 C 115.434 40.528,115.961 41.984,115.325 43.511 C 114.505 45.482,114.424 45.500,106.223 45.500 L 99.673 45.500 99.590 45.875 C 99.544 46.081,99.351 46.916,99.161 47.730 C 98.655 49.890,97.853 49.683,106.542 49.630 L 114.091 49.583 115.251 49.012 C 120.084 46.632,121.695 40.001,118.087 37.336 C 116.210 35.950,114.429 35.697,114.241 36.792 " stroke="none" fill="#f9f9f9" fill-rule="evenodd"></path><path id="path1" d="M46.083 13.656 C 45.717 13.716,46.485 13.762,47.791 13.758 C 49.097 13.753,50.166 13.694,50.166 13.625 C 50.167 13.476,47.038 13.500,46.083 13.656 M50.542 13.782 C 50.702 13.823,50.965 13.823,51.125 13.782 C 51.285 13.740,51.154 13.705,50.833 13.705 C 50.512 13.705,50.381 13.740,50.542 13.782 M83.404 14.053 C 83.924 14.433,82.801 16.245,80.922 18.060 C 79.970 18.978,80.386 18.764,81.546 17.738 C 81.968 17.364,82.405 16.858,82.517 16.613 C 82.629 16.367,82.771 16.167,82.834 16.167 C 83.024 16.167,83.833 14.562,83.833 14.186 C 83.833 13.934,83.729 13.833,83.468 13.833 C 83.125 13.833,83.121 13.847,83.404 14.053 M42.833 14.183 C 42.145 14.317,41.643 14.474,40.750 14.835 C 40.567 14.909,40.275 15.016,40.101 15.072 C 39.928 15.128,39.821 15.210,39.863 15.252 C 39.906 15.295,40.498 15.149,41.179 14.927 C 41.860 14.705,42.904 14.414,43.500 14.281 C 44.671 14.019,44.102 13.935,42.833 14.183 M53.917 14.407 C 54.742 14.625,55.745 14.923,56.146 15.069 C 56.953 15.362,57.324 15.412,57.075 15.196 C 56.988 15.120,56.579 14.960,56.167 14.841 C 55.754 14.721,55.185 14.523,54.903 14.400 C 54.620 14.278,53.945 14.139,53.403 14.093 C 52.429 14.011,52.435 14.015,53.917 14.407 M80.782 14.185 C 80.548 14.247,80.184 14.419,79.974 14.566 C 79.764 14.713,79.477 14.833,79.335 14.833 C 79.194 14.833,78.782 14.992,78.419 15.187 C 77.880 15.476,77.577 15.523,76.755 15.448 C 75.773 15.359,75.763 15.362,76.333 15.582 C 77.010 15.844,77.698 15.893,77.925 15.695 C 78.303 15.366,80.681 14.478,81.750 14.267 L 82.917 14.037 82.062 14.054 C 81.592 14.063,81.016 14.122,80.782 14.185 M73.167 14.990 C 73.167 15.076,73.242 15.193,73.333 15.250 C 73.425 15.307,73.500 15.272,73.500 15.173 C 73.500 15.067,73.687 15.030,73.958 15.083 C 74.338 15.156,74.359 15.145,74.083 15.014 C 73.643 14.806,73.167 14.794,73.167 14.990 M38.362 15.756 C 37.873 15.978,37.248 16.349,36.974 16.580 C 36.699 16.811,36.409 17.000,36.328 17.000 C 36.247 17.000,35.905 17.188,35.567 17.417 C 35.230 17.646,35.058 17.832,35.185 17.829 C 35.312 17.827,35.958 17.461,36.620 17.015 C 37.282 16.569,38.201 16.068,38.662 15.902 C 39.123 15.736,39.500 15.541,39.500 15.467 C 39.500 15.270,39.344 15.310,38.362 15.756 M57.667 15.576 C 57.667 15.617,58.018 15.807,58.448 15.996 C 58.877 16.186,59.646 16.621,60.156 16.961 C 60.666 17.302,61.286 17.693,61.534 17.832 C 62.631 18.444,66.333 21.888,66.333 22.296 C 66.333 22.402,66.127 22.601,65.875 22.738 C 65.270 23.066,65.541 23.073,66.175 22.746 C 66.882 22.380,66.837 22.293,64.966 20.360 C 64.210 19.580,62.515 18.141,61.961 17.810 C 61.601 17.593,60.948 17.186,60.512 16.904 C 58.797 15.795,57.667 15.267,57.667 15.576 M74.247 16.330 C 74.603 16.695,74.932 16.957,74.978 16.911 C 75.087 16.802,73.983 15.667,73.767 15.667 C 73.675 15.667,73.891 15.965,74.247 16.330 M75.284 17.578 C 75.449 17.804,75.640 17.992,75.708 17.995 C 75.777 17.998,75.833 18.066,75.833 18.148 C 75.833 18.229,76.131 18.742,76.496 19.287 C 76.860 19.832,77.436 20.947,77.775 21.764 C 78.335 23.111,78.568 23.490,78.843 23.497 C 78.962 23.501,79.299 22.149,79.425 21.167 C 79.544 20.240,79.262 20.600,79.099 21.583 C 78.883 22.887,78.805 23.167,78.657 23.167 C 78.574 23.167,78.457 22.960,78.397 22.708 C 78.220 21.969,76.848 19.232,76.493 18.910 C 76.313 18.748,76.167 18.548,76.167 18.465 C 76.167 18.261,75.282 17.167,75.117 17.167 C 75.044 17.167,75.119 17.352,75.284 17.578 M33.998 18.568 C 33.219 19.134,32.019 20.436,31.459 21.320 C 31.026 22.004,31.314 21.979,31.792 21.291 C 32.301 20.558,33.803 18.991,34.416 18.552 C 34.691 18.355,34.878 18.156,34.831 18.109 C 34.784 18.062,34.409 18.269,33.998 18.568 M79.697 19.036 C 79.464 19.270,79.440 19.500,79.649 19.500 C 79.802 19.500,80.053 18.997,79.951 18.896 C 79.920 18.864,79.806 18.928,79.697 19.036 M73.689 20.086 C 73.290 20.315,72.747 20.670,72.484 20.876 C 71.374 21.744,71.033 21.973,70.083 22.489 C 69.533 22.788,68.566 23.416,67.933 23.884 C 67.300 24.353,66.539 24.866,66.241 25.026 C 65.340 25.509,63.862 26.485,63.745 26.674 C 63.617 26.882,67.503 24.539,67.750 24.260 C 67.842 24.156,68.292 23.855,68.750 23.592 C 69.208 23.328,70.648 22.411,71.949 21.555 C 75.051 19.512,75.423 19.454,73.972 21.241 C 73.819 21.429,73.196 22.215,72.587 22.987 C 71.978 23.758,70.993 24.933,70.399 25.597 L 69.319 26.803 69.668 27.777 C 70.320 29.592,70.954 31.747,71.082 32.583 C 71.153 33.042,71.242 33.329,71.281 33.223 C 71.381 32.948,70.906 30.562,70.574 29.667 C 70.421 29.254,70.126 28.447,69.919 27.873 L 69.542 26.829 71.021 25.236 C 71.835 24.360,72.500 23.548,72.500 23.431 C 72.500 23.314,72.659 23.075,72.853 22.901 C 73.447 22.368,75.000 20.223,75.000 19.936 C 75.000 19.552,74.530 19.606,73.689 20.086 M30.512 22.676 C 30.243 23.048,29.970 23.592,29.907 23.885 C 29.843 24.177,29.719 24.463,29.630 24.519 C 29.137 24.834,28.622 27.118,28.545 29.333 L 28.467 31.583 29.042 32.840 C 30.306 35.607,31.442 36.255,35.000 36.239 C 36.916 36.230,37.538 36.169,38.000 35.945 C 38.321 35.789,38.442 35.702,38.270 35.751 C 37.128 36.075,34.764 36.218,33.454 36.043 C 28.578 35.390,27.195 29.734,30.376 23.452 C 31.199 21.826,31.221 21.697,30.512 22.676 M63.877 23.553 C 62.494 24.161,62.225 24.504,63.542 23.981 C 64.023 23.789,64.578 23.570,64.775 23.493 C 65.136 23.353,65.470 22.990,65.218 23.011 C 65.144 23.018,64.541 23.261,63.877 23.553 M61.383 24.721 C 60.476 25.113,60.146 25.333,60.467 25.333 C 60.726 25.333,62.500 24.541,62.500 24.426 C 62.500 24.273,62.293 24.328,61.383 24.721 M58.792 26.043 C 58.082 26.418,57.531 26.753,57.567 26.790 C 57.678 26.900,59.760 25.872,59.991 25.594 C 60.268 25.260,60.306 25.246,58.792 26.043 M62.697 27.268 C 62.301 27.505,62.015 27.737,62.061 27.783 C 62.172 27.894,63.500 27.144,63.500 26.969 C 63.500 26.784,63.510 26.781,62.697 27.268 M55.458 27.706 C 54.086 28.459,54.274 28.590,55.708 27.880 C 57.133 27.176,57.149 27.165,56.736 27.174 C 56.560 27.178,55.985 27.417,55.458 27.706 M61.250 28.144 C 60.560 28.522,60.087 28.877,59.934 29.132 C 59.836 29.295,61.434 28.386,61.819 28.059 C 62.057 27.857,61.668 27.916,61.250 28.144 M51.667 29.727 C 50.337 30.399,49.025 31.073,48.750 31.223 C 48.475 31.374,47.663 31.767,46.945 32.096 C 46.227 32.425,45.670 32.726,45.707 32.763 C 45.792 32.848,47.798 32.070,48.063 31.850 C 48.339 31.622,52.515 29.500,52.690 29.500 C 52.769 29.500,53.190 29.276,53.625 29.003 C 54.960 28.165,54.201 28.446,51.667 29.727 M58.666 29.894 C 58.161 30.182,56.961 30.934,55.999 31.567 C 55.037 32.199,53.612 33.133,52.833 33.641 C 52.054 34.149,51.379 34.614,51.333 34.675 C 51.288 34.736,50.688 35.103,50.000 35.489 C 49.313 35.876,48.600 36.320,48.417 36.474 C 47.908 36.904,47.117 37.427,46.792 37.548 C 46.631 37.607,46.500 37.736,46.500 37.834 C 46.500 38.089,48.114 37.131,48.500 36.647 C 48.546 36.590,48.958 36.342,49.417 36.097 C 49.875 35.851,50.438 35.513,50.667 35.344 C 51.174 34.972,53.409 33.480,53.801 33.252 C 53.956 33.162,54.721 32.666,55.500 32.150 C 56.279 31.634,57.329 30.978,57.833 30.692 C 58.638 30.237,59.895 29.322,59.667 29.359 C 59.621 29.366,59.170 29.607,58.666 29.894 M44.500 33.274 C 43.996 33.506,43.404 33.766,43.185 33.853 C 42.966 33.939,42.822 34.045,42.865 34.088 C 42.979 34.201,45.038 33.349,45.327 33.070 C 45.647 32.760,45.584 32.776,44.500 33.274 M42.263 34.312 C 42.214 34.392,41.943 34.503,41.662 34.559 C 41.019 34.688,38.639 35.528,38.711 35.600 C 38.868 35.757,42.667 34.455,42.667 34.244 C 42.667 34.109,42.357 34.161,42.263 34.312 M71.550 36.833 C 71.550 37.337,71.581 37.544,71.619 37.292 C 71.658 37.040,71.658 36.627,71.619 36.375 C 71.581 36.123,71.550 36.329,71.550 36.833 M45.232 38.574 C 44.527 39.078,42.609 40.300,40.771 41.417 C 40.130 41.807,39.088 42.667,39.258 42.667 C 39.322 42.667,40.096 42.188,40.979 41.603 C 41.861 41.018,43.371 40.032,44.333 39.411 C 46.373 38.096,46.246 38.190,46.135 38.079 C 46.087 38.031,45.681 38.254,45.232 38.574 M71.087 40.697 C 70.960 41.511,70.068 44.755,69.895 45.035 C 69.833 45.136,69.857 45.172,69.950 45.115 C 70.367 44.857,71.563 40.341,71.287 40.065 C 71.239 40.017,71.149 40.301,71.087 40.697 M37.983 43.197 C 37.580 43.489,37.151 43.827,37.030 43.947 C 36.909 44.068,36.747 44.167,36.670 44.167 C 36.593 44.167,35.492 44.852,34.224 45.690 C 32.180 47.040,29.753 48.611,28.981 49.085 C 28.833 49.176,28.270 49.540,27.731 49.894 C 27.191 50.249,25.944 51.068,24.958 51.714 C 23.359 52.764,22.796 53.333,23.358 53.333 C 23.672 53.333,25.515 52.626,25.428 52.539 C 25.383 52.494,25.043 52.580,24.670 52.729 C 23.430 53.225,23.523 52.798,24.820 52.043 C 25.096 51.882,26.056 51.279,26.953 50.703 C 31.557 47.748,32.642 47.045,33.252 46.624 C 34.740 45.596,38.436 43.224,38.708 43.121 C 39.004 43.009,39.118 42.667,38.858 42.667 C 38.780 42.667,38.387 42.905,37.983 43.197 M52.417 42.765 C 53.170 42.884,56.013 42.924,55.726 42.812 C 55.556 42.745,54.667 42.695,53.750 42.701 C 52.833 42.707,52.233 42.736,52.417 42.765 M50.083 43.175 C 49.717 43.252,48.779 43.548,48.000 43.834 C 47.221 44.120,46.314 44.422,45.985 44.505 C 45.656 44.588,44.756 44.950,43.985 45.310 C 43.214 45.669,42.076 46.171,41.456 46.424 C 40.837 46.678,40.361 46.916,40.399 46.954 C 40.478 47.033,42.463 46.254,43.833 45.606 C 44.337 45.367,45.163 45.028,45.667 44.852 C 47.665 44.154,49.133 43.666,50.167 43.356 C 51.287 43.020,51.247 42.933,50.083 43.175 M57.083 43.430 C 59.056 44.247,60.667 46.493,60.667 48.428 C 60.667 48.662,60.733 48.812,60.813 48.762 C 60.997 48.649,60.590 46.658,60.227 45.893 C 59.659 44.694,57.406 42.985,56.426 43.008 C 56.237 43.013,56.533 43.203,57.083 43.430 M69.667 45.558 C 69.667 45.848,68.231 48.647,67.858 49.083 C 67.702 49.267,67.320 49.792,67.011 50.250 C 66.701 50.708,66.221 51.326,65.944 51.623 C 65.666 51.919,65.482 52.205,65.535 52.257 C 65.805 52.527,68.371 48.869,69.599 46.464 C 70.034 45.611,70.092 45.333,69.833 45.333 C 69.742 45.333,69.667 45.435,69.667 45.558 M38.158 47.710 C 36.432 48.427,34.718 49.093,33.875 49.375 C 33.577 49.474,33.333 49.615,33.333 49.687 C 33.333 49.807,34.271 49.539,35.083 49.186 C 35.444 49.030,35.726 48.910,37.744 48.060 C 38.474 47.752,39.191 47.500,39.337 47.500 C 39.483 47.500,39.740 47.400,39.907 47.278 C 40.473 46.864,39.784 47.034,38.158 47.710 M32.307 49.915 C 32.263 49.960,31.744 50.177,31.155 50.398 C 30.565 50.619,29.627 50.984,29.070 51.210 C 28.512 51.435,27.668 51.713,27.195 51.827 C 26.721 51.940,26.333 52.101,26.333 52.183 C 26.333 52.452,26.720 52.353,28.750 51.562 C 32.269 50.190,33.019 49.860,32.653 49.845 C 32.508 49.838,32.352 49.870,32.307 49.915 M60.593 50.460 C 60.249 52.405,59.564 53.572,57.510 55.717 C 56.663 56.602,54.019 58.333,53.516 58.333 C 53.199 58.333,52.000 59.165,52.000 59.385 C 52.000 59.756,53.403 59.563,55.046 58.968 C 56.325 58.504,56.163 58.406,54.816 58.828 C 52.850 59.444,52.901 59.149,54.972 57.930 C 57.708 56.320,60.115 53.551,60.579 51.479 C 60.612 51.330,60.714 50.937,60.806 50.605 C 60.898 50.274,60.912 49.965,60.838 49.919 C 60.764 49.874,60.654 50.117,60.593 50.460 M64.486 53.136 C 64.081 53.577,63.487 54.120,63.167 54.341 C 62.846 54.562,62.356 54.949,62.078 55.202 C 61.214 55.987,58.486 57.463,56.602 58.164 C 56.337 58.262,56.158 58.380,56.203 58.426 C 56.249 58.471,56.653 58.349,57.101 58.154 C 57.550 57.960,58.217 57.707,58.583 57.592 C 59.142 57.417,60.204 56.755,62.741 55.000 C 63.503 54.473,64.836 53.271,65.092 52.880 C 65.556 52.172,65.250 52.301,64.486 53.136 " stroke="none" fill="#676767" fill-rule="evenodd"></path><path id="path2" d="M44.667 14.105 L 43.750 14.317 44.667 14.223 C 45.171 14.171,45.615 14.100,45.653 14.064 C 45.833 13.897,45.506 13.911,44.667 14.105 M47.292 13.957 C 47.956 13.989,49.044 13.989,49.708 13.957 C 50.373 13.925,49.829 13.900,48.500 13.900 C 47.171 13.900,46.627 13.925,47.292 13.957 M52.250 14.167 C 52.307 14.258,52.517 14.328,52.718 14.322 C 53.070 14.310,53.071 14.305,52.750 14.167 C 52.291 13.970,52.128 13.970,52.250 14.167 M82.500 14.170 C 82.162 14.281,82.217 14.302,82.791 14.279 C 83.181 14.263,83.500 14.194,83.500 14.125 C 83.500 13.969,83.049 13.990,82.500 14.170 M73.667 15.299 C 73.667 15.371,74.023 15.765,74.458 16.174 L 75.250 16.917 74.523 16.141 C 73.896 15.473,73.838 15.354,74.106 15.285 C 74.363 15.219,74.352 15.202,74.042 15.186 C 73.835 15.175,73.667 15.226,73.667 15.299 M58.333 16.167 C 58.654 16.342,58.992 16.486,59.083 16.486 C 59.175 16.486,58.987 16.342,58.667 16.167 C 58.346 15.991,58.008 15.847,57.917 15.847 C 57.825 15.847,58.012 15.991,58.333 16.167 M36.875 16.853 C 36.307 17.216,36.123 17.461,36.625 17.185 C 37.007 16.975,37.606 16.511,37.500 16.508 C 37.454 16.507,37.173 16.662,36.875 16.853 M59.583 16.753 C 59.767 16.902,60.067 17.098,60.250 17.188 L 60.583 17.352 60.250 17.080 C 60.067 16.931,59.767 16.735,59.583 16.645 L 59.250 16.482 59.583 16.753 M76.218 18.429 C 76.361 18.710,76.605 19.046,76.759 19.174 C 76.914 19.303,76.840 19.112,76.594 18.750 C 76.014 17.895,75.895 17.794,76.218 18.429 M33.409 19.542 L 32.750 20.250 33.458 19.591 C 34.117 18.978,34.243 18.833,34.117 18.833 C 34.090 18.833,33.771 19.152,33.409 19.542 M62.833 18.885 C 62.833 18.914,63.077 19.158,63.375 19.427 L 63.917 19.917 63.427 19.375 C 62.971 18.870,62.833 18.757,62.833 18.885 M74.164 20.193 C 73.936 20.378,73.844 20.480,73.958 20.421 C 74.333 20.228,74.179 20.590,73.500 21.500 C 72.823 22.408,72.566 22.929,73.172 22.167 C 73.751 21.438,74.702 19.980,74.639 19.917 C 74.606 19.883,74.392 20.008,74.164 20.193 M78.732 21.939 C 78.668 22.202,78.533 22.473,78.433 22.542 C 78.307 22.627,78.328 22.717,78.500 22.828 C 78.703 22.959,78.773 22.860,78.872 22.297 C 79.012 21.498,78.907 21.227,78.732 21.939 M72.158 23.292 L 71.583 23.917 72.208 23.342 C 72.552 23.026,72.833 22.745,72.833 22.717 C 72.833 22.590,72.692 22.710,72.158 23.292 M59.500 25.500 C 59.179 25.676,58.977 25.823,59.050 25.826 C 59.227 25.836,60.167 25.347,60.167 25.246 C 60.167 25.137,60.157 25.140,59.500 25.500 M69.514 26.235 C 69.297 26.466,69.170 26.767,69.216 26.943 C 69.289 27.228,69.296 27.227,69.314 26.927 C 69.325 26.750,69.496 26.431,69.696 26.219 C 69.895 26.007,70.021 25.833,69.975 25.833 C 69.929 25.833,69.722 26.014,69.514 26.235 M28.938 27.280 C 28.799 28.215,28.656 30.277,28.743 30.083 C 28.851 29.846,29.170 26.781,29.095 26.706 C 29.061 26.672,28.990 26.931,28.938 27.280 M53.000 28.833 C 52.679 29.009,52.477 29.156,52.550 29.160 C 52.727 29.169,53.667 28.680,53.667 28.579 C 53.667 28.470,53.657 28.474,53.000 28.833 M70.354 30.167 C 70.351 30.212,70.452 30.625,70.579 31.083 C 70.720 31.588,70.812 31.752,70.815 31.500 C 70.818 31.162,70.375 29.881,70.354 30.167 M28.879 31.000 C 28.879 31.412,28.911 31.581,28.951 31.375 C 28.991 31.169,28.991 30.831,28.951 30.625 C 28.911 30.419,28.879 30.587,28.879 31.000 M70.942 32.750 C 70.995 33.208,71.107 33.656,71.189 33.745 C 71.345 33.912,71.224 33.100,70.979 32.333 C 70.896 32.075,70.882 32.232,70.942 32.750 M29.340 32.883 C 29.326 33.166,29.823 33.935,30.276 34.333 L 30.750 34.749 30.311 34.249 C 30.070 33.975,29.755 33.525,29.610 33.250 C 29.465 32.975,29.344 32.810,29.340 32.883 M43.167 33.667 C 42.846 33.842,42.658 33.986,42.750 33.986 C 42.842 33.986,43.179 33.842,43.500 33.667 C 43.821 33.491,44.008 33.347,43.917 33.347 C 43.825 33.347,43.487 33.491,43.167 33.667 M71.183 34.615 C 71.224 35.360,71.466 35.779,71.483 35.135 C 71.493 34.796,71.425 34.473,71.333 34.417 C 71.242 34.360,71.174 34.449,71.183 34.615 M38.333 35.500 C 37.990 35.610,37.975 35.636,38.250 35.648 C 38.433 35.655,38.696 35.589,38.833 35.500 C 39.125 35.311,38.923 35.311,38.333 35.500 M35.875 35.948 C 36.035 35.990,36.298 35.990,36.458 35.948 C 36.619 35.906,36.487 35.872,36.167 35.872 C 35.846 35.872,35.715 35.906,35.875 35.948 M71.290 38.055 C 71.085 38.563,71.133 39.159,71.349 38.787 C 71.444 38.624,71.498 38.324,71.468 38.120 C 71.419 37.787,71.401 37.780,71.290 38.055 M70.937 40.423 C 70.880 40.572,70.841 40.857,70.850 41.055 C 70.861 41.284,70.918 41.203,71.004 40.834 C 71.150 40.215,71.110 39.972,70.937 40.423 M70.635 42.000 C 70.576 42.321,70.483 42.733,70.428 42.917 C 70.373 43.100,70.446 42.997,70.590 42.688 C 70.734 42.378,70.826 41.966,70.796 41.771 C 70.757 41.519,70.710 41.585,70.635 42.000 M52.711 42.620 C 52.964 42.658,53.339 42.657,53.544 42.617 C 53.749 42.578,53.542 42.546,53.083 42.548 C 52.625 42.549,52.457 42.581,52.711 42.620 M54.542 42.615 C 54.702 42.657,54.965 42.657,55.125 42.615 C 55.285 42.573,55.154 42.539,54.833 42.539 C 54.512 42.539,54.381 42.573,54.542 42.615 M57.594 43.315 C 57.967 43.484,58.567 43.875,58.928 44.182 C 59.319 44.517,59.449 44.582,59.250 44.346 C 58.831 43.847,57.519 42.999,57.176 43.004 C 57.033 43.006,57.222 43.146,57.594 43.315 M48.542 43.374 C 48.244 43.470,48.000 43.609,48.000 43.682 C 48.000 43.756,48.244 43.717,48.542 43.596 C 48.840 43.476,49.196 43.335,49.333 43.285 C 49.811 43.109,49.127 43.187,48.542 43.374 M47.083 43.911 C 46.808 44.037,46.696 44.143,46.833 44.147 C 46.971 44.151,47.271 44.048,47.500 43.917 C 48.031 43.613,47.742 43.609,47.083 43.911 M41.417 46.176 C 41.050 46.349,40.862 46.490,41.000 46.489 C 41.137 46.487,41.512 46.342,41.833 46.167 C 42.582 45.757,42.288 45.763,41.417 46.176 M36.122 48.287 C 35.501 48.523,35.023 48.745,35.059 48.781 C 35.126 48.848,37.335 48.054,37.477 47.912 C 37.634 47.755,37.228 47.868,36.122 48.287 M68.016 48.427 C 67.824 48.753,67.742 48.973,67.834 48.916 C 68.015 48.804,68.556 47.833,68.437 47.833 C 68.398 47.833,68.209 48.100,68.016 48.427 M60.977 48.542 C 60.883 49.375,60.903 50.023,61.024 50.098 C 61.102 50.147,61.167 49.769,61.167 49.260 C 61.167 48.446,61.041 47.969,60.977 48.542 M29.031 50.947 C 28.361 51.179,27.843 51.399,27.881 51.436 C 27.968 51.524,30.002 50.888,30.333 50.670 C 30.725 50.412,30.351 50.491,29.031 50.947 M25.849 51.496 C 25.354 51.854,24.902 52.223,24.845 52.315 C 24.787 52.408,24.555 52.564,24.329 52.662 C 23.938 52.832,23.942 52.836,24.417 52.742 C 24.692 52.687,24.940 52.577,24.969 52.497 C 24.998 52.417,25.148 52.392,25.302 52.442 C 25.499 52.504,25.521 52.486,25.377 52.382 C 25.228 52.274,25.403 52.055,26.002 51.598 C 26.716 51.054,26.962 50.817,26.792 50.839 C 26.769 50.842,26.345 51.137,25.849 51.496 M64.161 53.269 C 63.660 53.783,63.400 54.108,63.583 53.991 C 63.915 53.779,65.273 52.333,65.141 52.333 C 65.103 52.333,64.662 52.754,64.161 53.269 M61.124 55.652 C 60.439 56.091,60.344 56.246,60.948 55.939 C 61.240 55.791,61.526 55.594,61.583 55.501 C 61.716 55.285,61.676 55.298,61.124 55.652 M57.667 57.500 C 57.346 57.676,57.158 57.819,57.250 57.819 C 57.342 57.819,57.679 57.676,58.000 57.500 C 58.321 57.324,58.508 57.181,58.417 57.181 C 58.325 57.181,57.987 57.324,57.667 57.500 M55.750 58.268 C 55.200 58.494,54.975 58.633,55.250 58.576 C 55.789 58.466,57.192 57.863,56.917 57.859 C 56.825 57.858,56.300 58.042,55.750 58.268 M54.183 58.503 C 53.475 58.983,53.508 59.105,54.290 58.895 C 54.495 58.840,54.619 58.724,54.565 58.637 C 54.511 58.549,54.605 58.373,54.775 58.244 C 55.335 57.820,54.930 57.997,54.183 58.503 " stroke="none" fill="#b0b0b0" fill-rule="evenodd"></path><path id="path3" d="M47.796 13.789 C 48.188 13.824,48.788 13.824,49.129 13.788 C 49.471 13.752,49.150 13.723,48.417 13.724 C 47.683 13.724,47.404 13.754,47.796 13.789 M30.000 34.219 C 30.000 34.248,30.244 34.491,30.542 34.760 L 31.083 35.250 30.594 34.708 C 30.138 34.203,30.000 34.090,30.000 34.219 M71.379 36.833 C 71.379 37.246,71.411 37.415,71.451 37.208 C 71.491 37.002,71.491 36.665,71.451 36.458 C 71.411 36.252,71.379 36.421,71.379 36.833 " stroke="none" fill="#949494" fill-rule="evenodd"></path><path id="path4" d="" stroke="none" fill="#9c9c9c" fill-rule="evenodd"></path></g></svg>